STARTFONT 2.1
COMMENT
COMMENT Converted from OpenType font "UbuntuMono-BoldItalic.ttf" by "otf2bdf 3.0".
COMMENT
FONT -FreeType-Ubuntu Mono-Bold-I-Normal--28-200-100-100-P-139-ISO10646-1
SIZE 20 100 100
FONTBOUNDINGBOX 27 28 -8 -5
STARTPROPERTIES 19
FOUNDRY "FreeType"
FAMILY_NAME "Ubuntu Mono"
WEIGHT_NAME "Bold"
SLANT "I"
SETWIDTH_NAME "Normal"
ADD_STYLE_NAME ""
PIXEL_SIZE 28
POINT_SIZE 200
RESOLUTION_X 100
RESOLUTION_Y 100
SPACING "P"
AVERAGE_WIDTH 139
CHARSET_REGISTRY "ISO10646"
CHARSET_ENCODING "1"
FONT_ASCENT 23
FONT_DESCENT 4
COPYRIGHT "Copyright 2011 Canonical Ltd.  Licensed under the Ubuntu Font Licence 1.0"
_OTF_FONTFILE "UbuntuMono-BoldItalic.ttf"
_OTF_PSNAME "UbuntuMono-BoldItalic"
ENDPROPERTIES
CHARS 1224
STARTCHAR 0000
ENCODING 0
SWIDTH 468 0
DWIDTH 13 0
BBX 0 0 0 0
BITMAP
ENDCHAR
STARTCHAR 0008
ENCODING 8
SWIDTH 468 0
DWIDTH 13 0
BBX 0 0 0 0
BITMAP
ENDCHAR
STARTCHAR 0009
ENCODING 9
SWIDTH 468 0
DWIDTH 13 0
BBX 0 0 0 0
BITMAP
ENDCHAR
STARTCHAR 000D
ENCODING 13
SWIDTH 468 0
DWIDTH 13 0
BBX 0 0 0 0
BITMAP
ENDCHAR
STARTCHAR 001D
ENCODING 29
SWIDTH 468 0
DWIDTH 13 0
BBX 0 0 0 0
BITMAP
ENDCHAR
STARTCHAR 0020
ENCODING 32
SWIDTH 468 0
DWIDTH 13 0
BBX 0 0 0 0
BITMAP
ENDCHAR
STARTCHAR 0021
ENCODING 33
SWIDTH 468 0
DWIDTH 13 0
BBX 7 17 5 0
BITMAP
1E
1E
1E
1C
3C
3C
3C
38
38
78
70
00
00
F0
F0
F0
E0
ENDCHAR
STARTCHAR 0022
ENCODING 34
SWIDTH 468 0
DWIDTH 13 0
BBX 10 8 5 11
BITMAP
79C0
79C0
73C0
73C0
7380
E380
E300
E300
ENDCHAR
STARTCHAR 0023
ENCODING 35
SWIDTH 468 0
DWIDTH 13 0
BBX 15 17 1 0
BITMAP
018C
039C
039C
0738
3FFE
3FFC
7FFC
0E70
1CE0
1CE0
FFF8
FFF8
FFF8
7380
7380
E300
E700
ENDCHAR
STARTCHAR 0024
ENCODING 36
SWIDTH 468 0
DWIDTH 13 0
BBX 13 22 2 -3
BITMAP
01C0
01C0
03C0
0FF8
1FF0
3C10
3800
3800
3C00
1F00
1FC0
07E0
01E0
00E0
00E0
C1E0
FFC0
FF80
3E00
1C00
1C00
3800
ENDCHAR
STARTCHAR 0025
ENCODING 37
SWIDTH 468 0
DWIDTH 13 0
BBX 15 18 1 0
BITMAP
0400
1F06
3F0E
331C
3338
3330
3660
3EC0
3DC0
0380
0778
06F8
0CDC
1998
3998
7198
E1F0
C0F0
ENDCHAR
STARTCHAR 0026
ENCODING 38
SWIDTH 468 0
DWIDTH 13 0
BBX 13 18 1 0
BITMAP
0080
07F0
0FF0
0E70
0C30
1C70
1CE0
0FE0
0F80
1F18
3FB8
73B8
71F0
E1F0
E0E0
F3F0
7FF0
3E70
ENDCHAR
STARTCHAR 0027
ENCODING 39
SWIDTH 468 0
DWIDTH 13 0
BBX 4 8 8 11
BITMAP
70
70
F0
F0
E0
E0
E0
C0
ENDCHAR
STARTCHAR 0028
ENCODING 40
SWIDTH 468 0
DWIDTH 13 0
BBX 11 24 4 -5
BITMAP
0040
00C0
03E0
07C0
0F80
1E00
1E00
3C00
7800
7800
7000
F000
E000
E000
E000
E000
E000
E000
E000
F000
7000
7800
3C00
1800
ENDCHAR
STARTCHAR 0029
ENCODING 41
SWIDTH 468 0
DWIDTH 13 0
BBX 11 24 1 -4
BITMAP
0300
0780
03C0
01C0
01E0
00E0
00E0
00E0
00E0
00E0
00E0
00E0
01E0
01C0
03C0
03C0
0780
0700
0F00
1E00
7C00
F800
6000
4000
ENDCHAR
STARTCHAR 002A
ENCODING 42
SWIDTH 468 0
DWIDTH 13 0
BBX 11 10 4 6
BITMAP
0E00
0E00
CC40
EDC0
FFE0
7FC0
1F00
3F80
7380
3380
ENDCHAR
STARTCHAR 002B
ENCODING 43
SWIDTH 468 0
DWIDTH 13 0
BBX 12 13 2 1
BITMAP
0380
0380
0380
0700
0700
7FF0
FFF0
FFF0
0E00
0E00
0E00
1C00
1C00
ENDCHAR
STARTCHAR 002C
ENCODING 44
SWIDTH 468 0
DWIDTH 13 0
BBX 6 9 3 -4
BITMAP
18
3C
3C
3C
3C
1C
38
F0
E0
ENDCHAR
STARTCHAR 002D
ENCODING 45
SWIDTH 468 0
DWIDTH 13 0
BBX 8 4 4 5
BITMAP
7F
FF
FF
FE
ENDCHAR
STARTCHAR 002E
ENCODING 46
SWIDTH 468 0
DWIDTH 13 0
BBX 4 5 5 0
BITMAP
20
F0
F0
F0
F0
ENDCHAR
STARTCHAR 002F
ENCODING 47
SWIDTH 468 0
DWIDTH 13 0
BBX 16 24 0 -5
BITMAP
000F
001E
001E
003C
0038
0078
0070
00F0
00E0
01E0
01C0
03C0
0380
0780
0700
0F00
1E00
1E00
3C00
3800
7800
7000
F000
E000
ENDCHAR
STARTCHAR 0030
ENCODING 48
SWIDTH 468 0
DWIDTH 13 0
BBX 13 18 2 0
BITMAP
0180
07E0
1FF0
1E78
3C78
3838
7038
7238
F778
E778
E670
E070
E0F0
E0E0
F1E0
FFC0
7F80
3F00
ENDCHAR
STARTCHAR 0031
ENCODING 49
SWIDTH 468 0
DWIDTH 13 0
BBX 11 17 2 0
BITMAP
01E0
03E0
0FC0
3FC0
3FC0
33C0
0380
0380
0780
0780
0700
0700
0F00
0F00
FFE0
FFE0
FFC0
ENDCHAR
STARTCHAR 0032
ENCODING 50
SWIDTH 468 0
DWIDTH 13 0
BBX 14 18 1 0
BITMAP
00C0
07F0
1FF8
1F7C
083C
003C
0038
0078
00F0
03E0
07C0
0F00
1E00
3C00
7800
7FF0
FFF0
FFE0
ENDCHAR
STARTCHAR 0033
ENCODING 51
SWIDTH 468 0
DWIDTH 13 0
BBX 13 18 1 0
BITMAP
0180
0FF0
0FF8
0C78
0038
0038
0038
00F0
07E0
07E0
01F0
0070
0070
0070
00F0
73E0
FFE0
FF80
ENDCHAR
STARTCHAR 0034
ENCODING 52
SWIDTH 468 0
DWIDTH 13 0
BBX 14 17 1 0
BITMAP
003C
007C
00F8
01F8
03B8
0738
0E78
1C70
3870
7070
7FF8
FFF8
FFF8
00E0
01E0
01C0
01C0
ENDCHAR
STARTCHAR 0035
ENCODING 53
SWIDTH 468 0
DWIDTH 13 0
BBX 14 17 1 0
BITMAP
07FC
07FC
07FC
0E00
0E00
0E00
1F00
1FC0
1FE0
01F0
0070
0070
0070
00F0
7FE0
FFE0
7F80
ENDCHAR
STARTCHAR 0036
ENCODING 54
SWIDTH 468 0
DWIDTH 13 0
BBX 13 17 2 0
BITMAP
01F8
07F8
0FF0
1E00
3C00
7800
7380
7FE0
FFF0
F0F0
E070
E070
E070
F0F0
7FE0
7FC0
3F80
ENDCHAR
STARTCHAR 0037
ENCODING 55
SWIDTH 468 0
DWIDTH 13 0
BBX 13 17 3 0
BITMAP
7FF8
7FF8
7FF8
00F0
01E0
03C0
0380
0700
0F00
0E00
1E00
3C00
3C00
3800
7800
7000
F000
ENDCHAR
STARTCHAR 0038
ENCODING 56
SWIDTH 468 0
DWIDTH 13 0
BBX 13 18 2 0
BITMAP
0080
0FF0
1FF0
1C78
3838
3838
3C78
1CF0
1FE0
1FC0
7BE0
70E0
E0F0
E0F0
E0E0
FBE0
FFC0
3F80
ENDCHAR
STARTCHAR 0039
ENCODING 57
SWIDTH 468 0
DWIDTH 13 0
BBX 13 18 2 0
BITMAP
0300
0FE0
3FF0
3CF0
7878
7078
7038
7078
7878
3FF8
3FF0
04F0
00E0
01E0
07C0
FF80
FE00
F800
ENDCHAR
STARTCHAR 003A
ENCODING 58
SWIDTH 468 0
DWIDTH 13 0
BBX 6 13 5 0
BITMAP
1C
3C
3C
3C
38
00
00
00
20
F0
F0
F0
F0
ENDCHAR
STARTCHAR 003B
ENCODING 59
SWIDTH 468 0
DWIDTH 13 0
BBX 8 17 3 -4
BITMAP
07
0F
0F
0F
0E
00
00
00
18
3C
3C
3C
3C
1C
38
F0
E0
ENDCHAR
STARTCHAR 003C
ENCODING 60
SWIDTH 468 0
DWIDTH 13 0
BBX 13 12 2 1
BITMAP
0018
00F8
03F8
1FE0
7F00
7800
FC00
7F00
1FC0
07E0
01E0
0040
ENDCHAR
STARTCHAR 003D
ENCODING 61
SWIDTH 468 0
DWIDTH 13 0
BBX 14 8 1 3
BITMAP
3FFC
3FF8
0000
0000
0000
7FF0
7FF0
FFF0
ENDCHAR
STARTCHAR 003E
ENCODING 62
SWIDTH 468 0
DWIDTH 13 0
BBX 12 11 2 1
BITMAP
3000
3C00
7F00
1FC0
07F0
00F0
03F0
1FE0
FF00
FC00
E000
ENDCHAR
STARTCHAR 003F
ENCODING 63
SWIDTH 468 0
DWIDTH 13 0
BBX 11 18 4 0
BITMAP
0200
3FC0
7FC0
33E0
01E0
01C0
03C0
0780
1F00
3C00
3800
3800
0000
0000
7000
F800
F800
7000
ENDCHAR
STARTCHAR 0040
ENCODING 64
SWIDTH 468 0
DWIDTH 13 0
BBX 14 22 2 -4
BITMAP
0080
07F0
0FF8
1C38
381C
701C
71F8
67F8
E7B8
EE38
CE70
CE70
CE70
CE70
CFE0
CFE0
C7E0
E000
F000
7F80
3F80
0780
ENDCHAR
STARTCHAR 0041
ENCODING 65
SWIDTH 468 0
DWIDTH 13 0
BBX 13 17 0 0
BITMAP
00F0
00F0
01F8
03F8
03B8
07B8
0738
0F38
0E38
1E38
1FF8
3FF8
3FF8
7838
7038
F038
F038
ENDCHAR
STARTCHAR 0042
ENCODING 66
SWIDTH 468 0
DWIDTH 13 0
BBX 14 17 1 0
BITMAP
0FF0
0FF8
1FFC
1E1C
1C1C
1C3C
1CF8
3FF0
3FF0
39F8
3878
7838
7078
7078
7FF0
FFE0
FF80
ENDCHAR
STARTCHAR 0043
ENCODING 67
SWIDTH 468 0
DWIDTH 13 0
BBX 13 18 2 0
BITMAP
0040
03F8
0FF8
1FB8
1E00
3C00
3800
7800
7000
7000
7000
F000
F000
F000
7800
7FE0
3FE0
1FC0
ENDCHAR
STARTCHAR 0044
ENCODING 68
SWIDTH 468 0
DWIDTH 13 0
BBX 14 17 1 0
BITMAP
0FE0
0FF0
1FF8
1E38
1C3C
1C3C
3C3C
3C3C
3838
3838
7878
7878
70F0
71F0
FFE0
FFC0
FF00
ENDCHAR
STARTCHAR 0045
ENCODING 69
SWIDTH 468 0
DWIDTH 13 0
BBX 14 17 2 0
BITMAP
1FFC
1FF8
1FF8
1C00
3C00
3C00
3FE0
3FE0
7FE0
7800
7000
7000
7000
F000
FFE0
FFE0
FFC0
ENDCHAR
STARTCHAR 0046
ENCODING 70
SWIDTH 468 0
DWIDTH 13 0
BBX 14 17 2 0
BITMAP
0FFC
1FFC
1FFC
1C00
1C00
3C00
3C00
3FF0
3FE0
7FE0
7800
7000
7000
F000
F000
E000
E000
ENDCHAR
STARTCHAR 0047
ENCODING 71
SWIDTH 468 0
DWIDTH 13 0
BBX 13 18 2 0
BITMAP
00C0
07F8
0FF8
1FB8
3C00
3C00
7800
7000
7000
F070
F070
F0F0
F0E0
F0E0
F0E0
7FE0
7FE0
3FC0
ENDCHAR
STARTCHAR 0048
ENCODING 72
SWIDTH 468 0
DWIDTH 13 0
BBX 15 17 1 0
BITMAP
0E0E
1E1E
1E1E
1C1C
1C1C
3C3C
3C3C
3FF8
3FF8
3838
7878
7070
7070
7070
F0F0
F0F0
E0E0
ENDCHAR
STARTCHAR 0049
ENCODING 73
SWIDTH 468 0
DWIDTH 13 0
BBX 15 17 1 0
BITMAP
0FFE
0FFE
1FFC
01C0
01C0
03C0
03C0
0380
0380
0380
0780
0700
0700
0700
7FE0
FFE0
FFE0
ENDCHAR
STARTCHAR 004A
ENCODING 74
SWIDTH 468 0
DWIDTH 13 0
BBX 14 17 1 0
BITMAP
07FC
07FC
07FC
003C
0038
0038
0078
0078
0070
0070
0070
00F0
00E0
41E0
7FE0
FFC0
7F80
ENDCHAR
STARTCHAR 004B
ENCODING 75
SWIDTH 468 0
DWIDTH 13 0
BBX 15 17 1 0
BITMAP
0E1E
0E1C
1E3C
1E78
1CF0
1DE0
3FC0
3F80
3F80
3B80
7BC0
79C0
71E0
70E0
F0F0
F0F0
E070
ENDCHAR
STARTCHAR 004C
ENCODING 76
SWIDTH 468 0
DWIDTH 13 0
BBX 12 17 1 0
BITMAP
0F00
0E00
0E00
1E00
1E00
1C00
1C00
1C00
3C00
3800
3800
3800
7800
7800
7FF0
7FE0
FFE0
ENDCHAR
STARTCHAR 004D
ENCODING 77
SWIDTH 468 0
DWIDTH 13 0
BBX 16 17 0 0
BITMAP
070F
070F
0F1F
0F1E
0F3E
1DB6
1DFE
1DEE
39EE
39CC
399C
381C
701C
701C
7038
7038
E038
ENDCHAR
STARTCHAR 004E
ENCODING 78
SWIDTH 468 0
DWIDTH 13 0
BBX 15 17 1 0
BITMAP
0E0E
1E0E
1F0E
1F1C
1F1C
3B1C
3B9C
3BB8
39B8
39B8
71B8
71F0
70F0
70F0
E0F0
E0F0
E0E0
ENDCHAR
STARTCHAR 004F
ENCODING 79
SWIDTH 468 0
DWIDTH 13 0
BBX 13 18 2 0
BITMAP
0180
07E0
1FF0
1EF8
3C78
7838
7038
7078
F078
F078
E070
E070
E0F0
E0E0
F1E0
FFC0
7F80
3F00
ENDCHAR
STARTCHAR 0050
ENCODING 80
SWIDTH 468 0
DWIDTH 13 0
BBX 14 17 1 0
BITMAP
0FF0
0FFC
0FFC
1E1C
1C1C
1C1C
1C1C
3C3C
3FF8
3FF0
3FC0
7800
7800
7000
7000
F000
F000
ENDCHAR
STARTCHAR 0051
ENCODING 81
SWIDTH 468 0
DWIDTH 13 0
BBX 13 23 2 -5
BITMAP
0180
07E0
1FF0
1EF8
3C78
7838
7038
7078
F078
F078
E070
E070
E0F0
E0E0
F1E0
FFC0
7F80
3F00
1C00
1C00
1FC0
0F80
0180
ENDCHAR
STARTCHAR 0052
ENCODING 82
SWIDTH 468 0
DWIDTH 13 0
BBX 14 17 1 0
BITMAP
0FF0
0FF8
1EFC
1E3C
1C3C
1C3C
3C38
3CF8
3FF0
3FE0
7FC0
79C0
71E0
70E0
70E0
F0F0
E070
ENDCHAR
STARTCHAR 0053
ENCODING 83
SWIDTH 468 0
DWIDTH 13 0
BBX 14 18 1 0
BITMAP
0060
07FC
0FFC
1F38
1C00
1C00
1E00
1F00
0FC0
07E0
03F0
00F0
0070
0070
40F0
7FE0
FFE0
7F80
ENDCHAR
STARTCHAR 0054
ENCODING 84
SWIDTH 468 0
DWIDTH 13 0
BBX 13 17 4 0
BITMAP
FFF8
FFF0
FFF0
0E00
0E00
1E00
1E00
1C00
1C00
3C00
3C00
3800
3800
7800
7800
7000
7000
ENDCHAR
STARTCHAR 0055
ENCODING 85
SWIDTH 468 0
DWIDTH 13 0
BBX 14 17 2 0
BITMAP
1C3C
3C3C
3C38
3838
3878
7878
7870
7070
7070
F0F0
F0E0
E0E0
E1E0
E1E0
FFC0
FF80
7F00
ENDCHAR
STARTCHAR 0056
ENCODING 86
SWIDTH 468 0
DWIDTH 13 0
BBX 13 17 4 0
BITMAP
E078
E070
E0F0
E0E0
E0E0
E1E0
E1C0
E3C0
E380
E780
E700
EF00
EE00
FC00
FC00
7800
7800
ENDCHAR
STARTCHAR 0057
ENCODING 87
SWIDTH 468 0
DWIDTH 13 0
BBX 16 17 1 0
BITMAP
1C07
1C0E
1C0E
3C0E
380E
381C
399C
3B9C
779C
7798
7FB8
7CF8
7CF0
78F0
F8F0
F0E0
F0E0
ENDCHAR
STARTCHAR 0058
ENCODING 88
SWIDTH 468 0
DWIDTH 13 0
BBX 16 17 0 0
BITMAP
0F07
070F
079E
039C
03B8
03F8
01F0
01E0
01E0
03E0
07F0
0F70
1E70
1C78
3C78
7838
F038
ENDCHAR
STARTCHAR 0059
ENCODING 89
SWIDTH 468 0
DWIDTH 13 0
BBX 13 17 4 0
BITMAP
E078
E0F0
F0F0
71E0
71C0
73C0
7780
7F00
3E00
3C00
3C00
3C00
3800
3800
7800
7800
7000
ENDCHAR
STARTCHAR 005A
ENCODING 90
SWIDTH 468 0
DWIDTH 13 0
BBX 15 17 1 0
BITMAP
0FFE
0FFC
1FFC
0038
0078
00F0
01E0
03C0
0780
0F00
0E00
1E00
3C00
7800
FFF0
FFE0
FFE0
ENDCHAR
STARTCHAR 005B
ENCODING 91
SWIDTH 468 0
DWIDTH 13 0
BBX 14 24 2 -5
BITMAP
03FC
03FC
0380
0780
0700
0700
0700
0F00
0E00
0E00
0E00
1E00
1C00
1C00
1C00
3C00
3800
3800
3800
7800
7800
7F80
7F00
FF00
ENDCHAR
STARTCHAR 005C
ENCODING 92
SWIDTH 468 0
DWIDTH 13 0
BBX 5 24 6 -5
BITMAP
E0
E0
E0
E0
E0
F0
F0
F0
70
70
70
70
70
70
70
70
78
78
78
38
38
38
38
38
ENDCHAR
STARTCHAR 005D
ENCODING 93
SWIDTH 468 0
DWIDTH 13 0
BBX 14 24 0 -5
BITMAP
03FC
03F8
0038
0038
0078
0078
0070
0070
00F0
00F0
00E0
00E0
00E0
01E0
01C0
01C0
01C0
03C0
0380
0380
0380
7F80
7F00
FF00
ENDCHAR
STARTCHAR 005E
ENCODING 94
SWIDTH 468 0
DWIDTH 13 0
BBX 12 10 3 7
BITMAP
0380
07C0
0FC0
1FC0
3DE0
79E0
70E0
F0F0
E0F0
4040
ENDCHAR
STARTCHAR 005F
ENCODING 95
SWIDTH 468 0
DWIDTH 13 0
BBX 13 3 -1 -5
BITMAP
7FF8
FFF8
FFF8
ENDCHAR
STARTCHAR 0060
ENCODING 96
SWIDTH 468 0
DWIDTH 13 0
BBX 5 5 7 14
BITMAP
40
F0
F8
38
08
ENDCHAR
STARTCHAR 0061
ENCODING 97
SWIDTH 468 0
DWIDTH 13 0
BBX 12 13 2 0
BITMAP
0FF0
1FF0
3FF0
78F0
70F0
F0E0
E0E0
E1E0
E1E0
E1E0
FFE0
FFE0
7EE0
ENDCHAR
STARTCHAR 0062
ENCODING 98
SWIDTH 468 0
DWIDTH 13 0
BBX 13 19 1 0
BITMAP
0F00
0F00
0E00
0E00
1E00
1E00
1FE0
1FF0
1FF8
3C78
3C38
3838
3878
7878
7870
70F0
7FE0
FFC0
FF80
ENDCHAR
STARTCHAR 0063
ENCODING 99
SWIDTH 468 0
DWIDTH 13 0
BBX 13 13 2 0
BITMAP
07F8
1FF0
3FF0
7C00
7800
F000
F000
F000
F000
F000
7FC0
7FE0
3FE0
ENDCHAR
STARTCHAR 0064
ENCODING 100
SWIDTH 468 0
DWIDTH 13 0
BBX 14 19 2 0
BITMAP
001C
003C
003C
0038
0038
0078
0FF8
1FF0
3FF0
78F0
70F0
F0E0
E0E0
E1E0
E1E0
E1E0
FFE0
FFE0
7EE0
ENDCHAR
STARTCHAR 0065
ENCODING 101
SWIDTH 468 0
DWIDTH 13 0
BBX 13 13 2 0
BITMAP
0FE0
1FF0
3EF0
7878
7070
F1F0
FFE0
FF80
E000
F000
7DC0
7FC0
3FC0
ENDCHAR
STARTCHAR 0066
ENCODING 102
SWIDTH 468 0
DWIDTH 13 0
BBX 17 24 -1 -5
BITMAP
001F80
003F80
007F80
00F000
00E000
00E000
07FF00
07FF00
0FFE00
01C000
01C000
01C000
03C000
03C000
038000
038000
038000
078000
078000
070000
5F0000
7E0000
FC0000
700000
ENDCHAR
STARTCHAR 0067
ENCODING 103
SWIDTH 468 0
DWIDTH 13 0
BBX 15 18 0 -5
BITMAP
03FE
07FE
0FBC
1E1C
1C3C
3C3C
3C38
3838
3C78
3FF8
1FF0
0FF0
00F0
00F0
61E0
FFC0
FF80
1C00
ENDCHAR
STARTCHAR 0068
ENCODING 104
SWIDTH 468 0
DWIDTH 13 0
BBX 13 19 1 0
BITMAP
0700
0F00
0F00
0E00
0E00
1E00
1FF0
1FF0
1FF8
3C78
3C78
3878
3870
3870
78F0
78F0
70E0
70E0
F1E0
ENDCHAR
STARTCHAR 0069
ENCODING 105
SWIDTH 468 0
DWIDTH 13 0
BBX 10 19 3 0
BITMAP
0700
0F80
0F80
0F00
0000
0000
7F00
FE00
FE00
0E00
1E00
1E00
1C00
1C00
3C00
3C00
3FC0
1FC0
1FC0
ENDCHAR
STARTCHAR 006A
ENCODING 106
SWIDTH 468 0
DWIDTH 13 0
BBX 13 24 0 -5
BITMAP
0038
0078
0078
0078
0000
0000
0FF8
0FF8
0FF8
0070
0070
00F0
00F0
00E0
00E0
01E0
01E0
01C0
01C0
03C0
6780
FF80
FF00
1C00
ENDCHAR
STARTCHAR 006B
ENCODING 107
SWIDTH 468 0
DWIDTH 13 0
BBX 13 19 2 0
BITMAP
0E00
0E00
1E00
1E00
1C00
1C00
3C78
3CF0
39E0
3BC0
3F80
7F00
7F00
7780
7380
F3C0
F1C0
E1E0
E1E0
ENDCHAR
STARTCHAR 006C
ENCODING 108
SWIDTH 468 0
DWIDTH 13 0
BBX 9 19 4 0
BITMAP
7F00
FE00
FE00
1E00
1E00
1C00
1C00
3C00
3C00
3800
3800
3800
7800
7800
7000
7000
7F00
7F80
3F80
ENDCHAR
STARTCHAR 006D
ENCODING 109
SWIDTH 468 0
DWIDTH 13 0
BBX 14 13 1 0
BITMAP
1F78
3FFC
3BDC
3B9C
3398
73B8
7338
7738
6030
E070
E070
E070
C070
ENDCHAR
STARTCHAR 006E
ENCODING 110
SWIDTH 468 0
DWIDTH 13 0
BBX 13 13 1 0
BITMAP
1FF0
1FF0
1FF8
3C78
3C78
3878
3870
3870
78F0
78F0
70E0
70E0
F1E0
ENDCHAR
STARTCHAR 006F
ENCODING 111
SWIDTH 468 0
DWIDTH 13 0
BBX 12 13 2 0
BITMAP
0FC0
1FE0
3FF0
78F0
7070
F070
E0F0
E0F0
E0E0
F1E0
FFC0
7F80
7F00
ENDCHAR
STARTCHAR 0070
ENCODING 112
SWIDTH 468 0
DWIDTH 13 0
BBX 14 18 0 -5
BITMAP
0FF0
0FF8
0F7C
1E3C
1E1C
1C1C
1C3C
3C3C
3C78
38F8
3FF0
7FE0
7FC0
7000
7000
F000
F000
E000
ENDCHAR
STARTCHAR 0071
ENCODING 113
SWIDTH 468 0
DWIDTH 13 0
BBX 13 18 2 -5
BITMAP
07F8
1FF8
3FF0
7870
70F0
F0F0
F0E0
E0E0
E1E0
F1E0
FFC0
7FC0
3FC0
03C0
0380
0380
0380
0780
ENDCHAR
STARTCHAR 0072
ENCODING 114
SWIDTH 468 0
DWIDTH 13 0
BBX 13 13 2 0
BITMAP
0FF8
1FF0
3FF0
3C00
3800
3800
7800
7800
7000
7000
7000
F000
E000
ENDCHAR
STARTCHAR 0073
ENCODING 115
SWIDTH 468 0
DWIDTH 13 0
BBX 12 13 2 0
BITMAP
0FF0
1FF0
3EE0
3800
3C00
3F00
1FC0
07C0
01E0
01E0
FFC0
FFC0
FF00
ENDCHAR
STARTCHAR 0074
ENCODING 116
SWIDTH 468 0
DWIDTH 13 0
BBX 12 17 3 0
BITMAP
0700
0E00
0E00
1E00
7FF0
FFE0
FFE0
3C00
3C00
3800
3800
3800
7800
7800
7FC0
3FC0
1FC0
ENDCHAR
STARTCHAR 0075
ENCODING 117
SWIDTH 468 0
DWIDTH 13 0
BBX 12 13 2 0
BITMAP
3870
3870
7870
78F0
70E0
70E0
F0E0
F1E0
F1E0
F1C0
FFE0
7FE0
7EE0
ENDCHAR
STARTCHAR 0076
ENCODING 118
SWIDTH 468 0
DWIDTH 13 0
BBX 12 13 3 0
BITMAP
F070
F0F0
F0E0
F1E0
F1C0
F3C0
7380
7780
7700
7F00
7E00
7C00
3800
ENDCHAR
STARTCHAR 0077
ENCODING 119
SWIDTH 468 0
DWIDTH 13 0
BBX 14 13 2 0
BITMAP
701C
701C
E038
E738
E738
EF30
EF70
DF60
DB60
FBE0
F3C0
E3C0
E380
ENDCHAR
STARTCHAR 0078
ENCODING 120
SWIDTH 468 0
DWIDTH 13 0
BBX 14 13 1 0
BITMAP
3C3C
1C38
1E70
0EF0
0FE0
07C0
0780
0FC0
1FC0
3DE0
79E0
70E0
E0F0
ENDCHAR
STARTCHAR 0079
ENCODING 121
SWIDTH 468 0
DWIDTH 13 0
BBX 16 18 -1 -5
BITMAP
0F0F
0F0F
0F0E
0F1E
0F1C
071C
0738
0738
0770
07F0
03E0
03E0
03C0
0780
0F00
FE00
FC00
7000
ENDCHAR
STARTCHAR 007A
ENCODING 122
SWIDTH 468 0
DWIDTH 13 0
BBX 14 13 1 0
BITMAP
0FFC
1FF8
1FF8
00F0
01E0
03C0
0780
0F00
1E00
3C00
7FE0
7FE0
FFE0
ENDCHAR
STARTCHAR 007B
ENCODING 123
SWIDTH 468 0
DWIDTH 13 0
BBX 13 24 3 -5
BITMAP
01F8
03F8
0780
0700
0700
0700
0F00
0E00
0E00
1E00
FC00
F000
F800
3800
3800
3800
3800
3800
3800
7800
7800
7F00
3F00
0F00
ENDCHAR
STARTCHAR 007C
ENCODING 124
SWIDTH 468 0
DWIDTH 13 0
BBX 9 24 3 -5
BITMAP
0380
0380
0380
0780
0780
0700
0700
0F00
0F00
0E00
0E00
1E00
1E00
1C00
1C00
3C00
3C00
3800
3800
7800
7800
7000
7000
F000
ENDCHAR
STARTCHAR 007D
ENCODING 125
SWIDTH 468 0
DWIDTH 13 0
BBX 13 24 0 -5
BITMAP
07E0
07F0
00F0
0070
00F0
00E0
00E0
00E0
00E0
00E0
00F8
0078
01F8
01C0
0380
0380
0380
0780
0700
0700
0F00
7E00
FE00
F000
ENDCHAR
STARTCHAR 007E
ENCODING 126
SWIDTH 468 0
DWIDTH 13 0
BBX 12 5 2 5
BITMAP
3C30
7E30
FFF0
EFE0
C3C0
ENDCHAR
STARTCHAR 00A0
ENCODING 160
SWIDTH 468 0
DWIDTH 13 0
BBX 0 0 0 0
BITMAP
ENDCHAR
STARTCHAR 00A1
ENCODING 161
SWIDTH 468 0
DWIDTH 13 0
BBX 7 17 4 -4
BITMAP
0E
1E
1E
1E
08
00
00
38
38
38
78
78
78
F0
F0
F0
F0
ENDCHAR
STARTCHAR 00A2
ENCODING 162
SWIDTH 468 0
DWIDTH 13 0
BBX 13 20 2 -3
BITMAP
00E0
00E0
01E0
01E0
0FF8
1FF0
3E10
7800
7000
7000
F000
F000
7800
7FE0
3FE0
1FE0
0E00
0E00
0E00
1E00
ENDCHAR
STARTCHAR 00A3
ENCODING 163
SWIDTH 468 0
DWIDTH 13 0
BBX 14 18 2 0
BITMAP
0030
01FC
07FC
0788
0F00
0E00
0E00
1E00
7FE0
7FE0
FFC0
3C00
3C00
3800
7800
7FE0
7FE0
FFE0
ENDCHAR
STARTCHAR 00A4
ENCODING 164
SWIDTH 468 0
DWIDTH 13 0
BBX 13 12 2 2
BITMAP
2020
7270
FFF8
7FF0
38E0
70F0
7070
78F0
3DE0
7FF0
FFF8
6070
ENDCHAR
STARTCHAR 00A5
ENCODING 165
SWIDTH 468 0
DWIDTH 13 0
BBX 15 17 2 0
BITMAP
381E
381C
3C38
1C78
1C70
1EE0
0FC0
0FC0
7FF0
7FF0
0F00
0F00
FFE0
FFE0
1E00
1E00
1C00
ENDCHAR
STARTCHAR 00A6
ENCODING 166
SWIDTH 468 0
DWIDTH 13 0
BBX 9 24 4 -5
BITMAP
0780
0700
0700
0F00
0F00
0E00
0E00
1E00
1E00
0000
0000
0000
0000
0000
3800
3800
7800
7800
7000
7000
F000
F000
E000
E000
ENDCHAR
STARTCHAR 00A7
ENCODING 167
SWIDTH 468 0
DWIDTH 13 0
BBX 14 21 1 -3
BITMAP
0060
03FC
07F8
0F08
0E00
0F00
07C0
0FF0
1CF0
3878
3830
3870
3EF0
1FC0
07C0
01C0
01C0
43C0
FFC0
FF80
3C00
ENDCHAR
STARTCHAR 00A8
ENCODING 168
SWIDTH 468 0
DWIDTH 13 0
BBX 9 4 6 15
BITMAP
4300
E780
E780
E300
ENDCHAR
STARTCHAR 00A9
ENCODING 169
SWIDTH 468 0
DWIDTH 13 0
BBX 12 13 2 0
BITMAP
1F80
3FC0
6060
C730
CF30
D830
D830
D830
DF30
CF30
6060
3FC0
1F80
ENDCHAR
STARTCHAR 00AA
ENCODING 170
SWIDTH 468 0
DWIDTH 13 0
BBX 10 10 4 8
BITMAP
0300
1FC0
3FC0
71C0
7180
6380
E380
7380
7F80
3F80
ENDCHAR
STARTCHAR 00AB
ENCODING 171
SWIDTH 468 0
DWIDTH 13 0
BBX 12 12 3 1
BITMAP
0800
1C70
38E0
71C0
7380
E700
E700
E380
6380
7180
31C0
2000
ENDCHAR
STARTCHAR 00AC
ENCODING 172
SWIDTH 468 0
DWIDTH 13 0
BBX 12 9 2 1
BITMAP
7FF0
7FF0
FFF0
0060
00E0
00E0
00E0
00E0
01C0
ENDCHAR
STARTCHAR 00AD
ENCODING 173
SWIDTH 468 0
DWIDTH 13 0
BBX 8 4 4 5
BITMAP
7F
FF
FF
FE
ENDCHAR
STARTCHAR 00AE
ENCODING 174
SWIDTH 468 0
DWIDTH 13 0
BBX 12 13 2 0
BITMAP
1F80
3FC0
6060
CE30
CB30
C9B0
CF30
CF30
C930
C9B0
6060
3FC0
1F80
ENDCHAR
STARTCHAR 00AF
ENCODING 175
SWIDTH 468 0
DWIDTH 13 0
BBX 8 2 6 16
BITMAP
FF
FF
ENDCHAR
STARTCHAR 00B0
ENCODING 176
SWIDTH 468 0
DWIDTH 13 0
BBX 8 7 6 12
BITMAP
7C
FE
C7
C7
E7
FE
7C
ENDCHAR
STARTCHAR 00B1
ENCODING 177
SWIDTH 468 0
DWIDTH 13 0
BBX 14 16 1 0
BITMAP
00E0
01C0
01C0
01C0
01C0
3FFC
3FFC
3FF8
0380
0300
0700
0700
0000
FFF0
FFF0
FFE0
ENDCHAR
STARTCHAR 00B2
ENCODING 178
SWIDTH 468 0
DWIDTH 13 0
BBX 8 11 5 7
BITMAP
04
3F
7F
27
07
1E
3C
70
FF
FE
FE
ENDCHAR
STARTCHAR 00B3
ENCODING 179
SWIDTH 468 0
DWIDTH 13 0
BBX 8 11 5 7
BITMAP
04
3F
3F
03
1F
1E
0F
07
FF
FE
78
ENDCHAR
STARTCHAR 00B4
ENCODING 180
SWIDTH 468 0
DWIDTH 13 0
BBX 6 5 8 14
BITMAP
18
38
FC
F0
40
ENDCHAR
STARTCHAR 00B5
ENCODING 181
SWIDTH 468 0
DWIDTH 13 0
BBX 15 18 0 -5
BITMAP
0F1E
0E1C
0E1C
1E3C
1E3C
1C38
1C38
3C78
3C78
3C78
3FFC
7FF8
7FB8
7000
7000
7000
F000
E000
ENDCHAR
STARTCHAR 00B6
ENCODING 182
SWIDTH 468 0
DWIDTH 13 0
BBX 13 22 3 -5
BITMAP
0FF8
3FF8
7F38
FE30
FE70
FE70
FE70
FC60
FCE0
7CE0
3CE0
18C0
39C0
39C0
39C0
31C0
7380
7380
7380
7380
E700
E700
ENDCHAR
STARTCHAR 00B7
ENCODING 183
SWIDTH 468 0
DWIDTH 13 0
BBX 4 5 6 5
BITMAP
60
F0
F0
F0
F0
ENDCHAR
STARTCHAR 00B8
ENCODING 184
SWIDTH 468 0
DWIDTH 13 0
BBX 5 6 4 -5
BITMAP
18
30
38
18
F8
F0
ENDCHAR
STARTCHAR 00B9
ENCODING 185
SWIDTH 468 0
DWIDTH 13 0
BBX 9 10 4 7
BITMAP
0F00
3F00
3E00
2E00
0E00
0E00
0E00
7F80
7F00
FF00
ENDCHAR
STARTCHAR 00BA
ENCODING 186
SWIDTH 468 0
DWIDTH 13 0
BBX 9 10 5 8
BITMAP
0600
3F00
7F80
7180
E180
E380
C380
E700
FF00
7E00
ENDCHAR
STARTCHAR 00BB
ENCODING 187
SWIDTH 468 0
DWIDTH 13 0
BBX 12 12 2 1
BITMAP
1080
31C0
38C0
18E0
1CE0
1C70
1CF0
38E0
71C0
6380
E700
4000
ENDCHAR
STARTCHAR 00BC
ENCODING 188
SWIDTH 468 0
DWIDTH 13 0
BBX 14 17 1 0
BITMAP
0E0C
3E1C
3E38
0C70
0C60
0CE0
1DC0
0380
0300
0700
0E38
1C78
18F0
39B0
73F8
E3F8
C060
ENDCHAR
STARTCHAR 00BD
ENCODING 189
SWIDTH 468 0
DWIDTH 13 0
BBX 14 17 1 0
BITMAP
0E0C
3E1C
3E38
0C70
0C60
0CE0
1DC0
0380
0300
0700
0EF0
1CF8
1818
3870
70E0
E1F0
C3F0
ENDCHAR
STARTCHAR 00BE
ENCODING 190
SWIDTH 468 0
DWIDTH 13 0
BBX 15 18 1 0
BITMAP
0600
1F0E
031C
0E18
1F38
0770
3EE0
3CC0
01C0
0380
0700
0638
0E78
1CF0
39B0
33F8
73F8
E060
ENDCHAR
STARTCHAR 00BF
ENCODING 191
SWIDTH 468 0
DWIDTH 13 0
BBX 11 18 1 -5
BITMAP
01C0
01E0
03E0
01E0
0080
0000
03C0
0380
0780
0F00
3E00
7800
7000
F000
F8C0
7FC0
7FC0
1E00
ENDCHAR
STARTCHAR 00C0
ENCODING 192
SWIDTH 468 0
DWIDTH 13 0
BBX 13 23 0 0
BITMAP
0040
00E0
00F8
0078
0018
0000
00F0
00F0
01F8
03F8
03B8
07B8
0738
0F38
0E38
1E38
1FF8
3FF8
3FF8
7838
7038
F038
F038
ENDCHAR
STARTCHAR 00C1
ENCODING 193
SWIDTH 468 0
DWIDTH 13 0
BBX 15 23 0 0
BITMAP
0008
001C
003E
0078
0060
0000
00F0
00F0
01F8
03F8
03B8
07B8
0738
0F38
0E38
1E38
1FF8
3FF8
3FF8
7838
7038
F038
F038
ENDCHAR
STARTCHAR 00C2
ENCODING 194
SWIDTH 468 0
DWIDTH 13 0
BBX 15 23 0 0
BITMAP
0010
0038
007C
01EE
0084
0000
00F0
00F0
01F8
03F8
03B8
07B8
0738
0F38
0E38
1E38
1FF8
3FF8
3FF8
7838
7038
F038
F038
ENDCHAR
STARTCHAR 00C3
ENCODING 195
SWIDTH 468 0
DWIDTH 13 0
BBX 16 22 0 1
BITMAP
00FF
01FE
01BC
0000
0000
00F0
00F0
01F8
03F8
03B8
07B8
0738
0F38
0E38
1E38
1FF8
3FF8
3FF8
7838
7038
F038
F038
ENDCHAR
STARTCHAR 00C4
ENCODING 196
SWIDTH 468 0
DWIDTH 13 0
BBX 16 23 0 0
BITMAP
0080
01CF
01CF
01CE
0000
0000
00F0
00F0
01F8
03F8
03B8
07B8
0738
0F38
0E38
1E38
1FF8
3FF8
3FF8
7838
7038
F038
F038
ENDCHAR
STARTCHAR 00C5
ENCODING 197
SWIDTH 468 0
DWIDTH 13 0
BBX 14 22 0 0
BITMAP
0070
00F8
00CC
00CC
00F8
00F0
00F0
01F8
01F8
03B8
07B8
0738
0F38
0E38
1E38
1FF8
3FF8
3FF8
7838
7038
7038
F038
ENDCHAR
STARTCHAR 00C6
ENCODING 198
SWIDTH 468 0
DWIDTH 13 0
BBX 17 17 0 0
BITMAP
00FF80
00FF00
01FF00
01B800
03B800
077000
077E00
0E7C00
0E7C00
1CE000
1FE000
3FE000
3FE000
79C000
71FC00
F1F800
E1F800
ENDCHAR
STARTCHAR 00C7
ENCODING 199
SWIDTH 468 0
DWIDTH 13 0
BBX 13 23 2 -5
BITMAP
0040
03F8
0FF8
1FB8
1E00
3C00
3800
7800
7000
7000
7000
F000
F000
F000
7800
7FE0
3FE0
1FC0
0C00
0E00
0600
3E00
1C00
ENDCHAR
STARTCHAR 00C8
ENCODING 200
SWIDTH 468 0
DWIDTH 13 0
BBX 14 23 2 0
BITMAP
0100
01C0
03E0
00F0
0020
0000
1FFC
1FF8
1FF8
1C00
3C00
3C00
3FE0
3FE0
7FE0
7800
7000
7000
7000
F000
FFE0
FFE0
FFC0
ENDCHAR
STARTCHAR 00C9
ENCODING 201
SWIDTH 468 0
DWIDTH 13 0
BBX 14 23 2 0
BITMAP
0020
0070
00F8
01E0
0180
0000
1FFC
1FF8
1FF8
1C00
3C00
3C00
3FE0
3FE0
7FE0
7800
7000
7000
7000
F000
FFE0
FFE0
FFC0
ENDCHAR
STARTCHAR 00CA
ENCODING 202
SWIDTH 468 0
DWIDTH 13 0
BBX 14 23 2 0
BITMAP
0040
00E0
01F0
03B8
0210
0000
1FFC
1FF8
1FF8
1C00
3C00
3C00
3FE0
3FE0
7FE0
7800
7000
7000
7000
F000
FFE0
FFE0
FFC0
ENDCHAR
STARTCHAR 00CB
ENCODING 203
SWIDTH 468 0
DWIDTH 13 0
BBX 14 23 2 0
BITMAP
0200
071C
073C
0738
0000
0000
1FFC
1FF8
1FF8
1C00
3C00
3C00
3FE0
3FE0
7FE0
7800
7000
7000
7000
F000
FFE0
FFE0
FFC0
ENDCHAR
STARTCHAR 00CC
ENCODING 204
SWIDTH 468 0
DWIDTH 13 0
BBX 15 23 1 0
BITMAP
0080
01C0
01F0
00F8
0030
0000
0FFE
0FFE
1FFC
01C0
01C0
03C0
03C0
0380
0380
0380
0780
0700
0700
0700
7FE0
FFE0
FFE0
ENDCHAR
STARTCHAR 00CD
ENCODING 205
SWIDTH 468 0
DWIDTH 13 0
BBX 15 23 1 0
BITMAP
0010
0038
007C
00F0
0040
0000
0FFE
0FFE
1FFC
01C0
01C0
03C0
03C0
0380
0380
0380
0780
0700
0700
0700
7FE0
FFE0
FFE0
ENDCHAR
STARTCHAR 00CE
ENCODING 206
SWIDTH 468 0
DWIDTH 13 0
BBX 15 23 1 0
BITMAP
0020
0070
00F8
03DC
0108
0000
0FFE
0FFE
1FFC
01C0
01C0
03C0
03C0
0380
0380
0380
0780
0700
0700
0700
7FE0
FFE0
FFE0
ENDCHAR
STARTCHAR 00CF
ENCODING 207
SWIDTH 468 0
DWIDTH 13 0
BBX 15 23 1 0
BITMAP
0100
038E
039E
038C
0000
0000
0FFE
0FFE
1FFC
01C0
01C0
03C0
03C0
0380
0380
0380
0780
0700
0700
0700
7FE0
FFE0
FFE0
ENDCHAR
STARTCHAR 00D0
ENCODING 208
SWIDTH 468 0
DWIDTH 13 0
BBX 14 17 1 0
BITMAP
0FE0
0FF0
0FF8
0E38
1E3C
1C3C
1C3C
7F3C
7E38
7E38
3878
3878
78F0
79F0
7FE0
7FC0
FF00
ENDCHAR
STARTCHAR 00D1
ENCODING 209
SWIDTH 468 0
DWIDTH 13 0
BBX 15 22 1 1
BITMAP
01FE
03FC
0378
0000
0000
0E0E
1E0E
1F0E
1F1C
1F1C
3B1C
3B9C
3BB8
39B8
39B8
71B8
71F0
70F0
70F0
E0F0
E0F0
E0E0
ENDCHAR
STARTCHAR 00D2
ENCODING 210
SWIDTH 468 0
DWIDTH 13 0
BBX 13 23 2 0
BITMAP
0100
01C0
03E0
00F0
0020
0180
07E0
1FF0
1EF8
3C78
7838
7038
7078
F078
F078
E070
E070
E0F0
E0E0
F1E0
FFC0
7F80
3F00
ENDCHAR
STARTCHAR 00D3
ENCODING 211
SWIDTH 468 0
DWIDTH 13 0
BBX 13 23 2 0
BITMAP
0020
00E0
01F0
03C0
0100
0180
07E0
1FF0
1EF8
3C78
7838
7038
7078
F078
F078
E070
E070
E0F0
E0E0
F1E0
FFC0
7F80
3F00
ENDCHAR
STARTCHAR 00D4
ENCODING 212
SWIDTH 468 0
DWIDTH 13 0
BBX 13 23 2 0
BITMAP
0040
01E0
03F0
0770
0230
0180
07E0
1FF0
1EF8
3C78
7838
7038
7078
F078
F078
E070
E070
E0F0
E0E0
F1E0
FFC0
7F80
3F00
ENDCHAR
STARTCHAR 00D5
ENCODING 213
SWIDTH 468 0
DWIDTH 13 0
BBX 14 22 2 1
BITMAP
03FC
07F8
0670
0000
0180
07E0
1FF0
1EF8
3C78
7838
7038
7078
F078
F078
E070
E070
E0F0
E0E0
F1E0
FFC0
7F80
3F00
ENDCHAR
STARTCHAR 00D6
ENCODING 214
SWIDTH 468 0
DWIDTH 13 0
BBX 14 23 2 0
BITMAP
0200
073C
073C
0738
0000
0180
07E0
1FF0
1EF8
3C78
7838
7038
7078
F078
F078
E070
E070
E0F0
E0E0
F1E0
FFC0
7F80
3F00
ENDCHAR
STARTCHAR 00D7
ENCODING 215
SWIDTH 468 0
DWIDTH 13 0
BBX 12 11 2 2
BITMAP
1000
3870
3CF0
1FE0
0FC0
0F80
1F80
3FC0
79C0
F1E0
6080
ENDCHAR
STARTCHAR 00D8
ENCODING 216
SWIDTH 468 0
DWIDTH 13 0
BBX 13 19 2 -1
BITMAP
0198
07F8
1FF0
1E78
3CF8
78F8
71F8
73B8
F338
E778
EE70
EC70
FCF0
F8E0
F1E0
FFC0
FF80
FF00
C000
ENDCHAR
STARTCHAR 00D9
ENCODING 217
SWIDTH 468 0
DWIDTH 13 0
BBX 14 23 2 0
BITMAP
0200
0380
07C0
01E0
0040
0000
1C3C
3C3C
3C38
3838
3878
7878
7870
7070
7070
F0F0
F0E0
E0E0
E1E0
E1E0
FFC0
FF80
7F00
ENDCHAR
STARTCHAR 00DA
ENCODING 218
SWIDTH 468 0
DWIDTH 13 0
BBX 14 23 2 0
BITMAP
0020
0070
01F0
03E0
0180
0000
1C3C
3C3C
3C38
3838
3878
7878
7870
7070
7070
F0F0
F0E0
E0E0
E1E0
E1E0
FFC0
FF80
7F00
ENDCHAR
STARTCHAR 00DB
ENCODING 219
SWIDTH 468 0
DWIDTH 13 0
BBX 14 23 2 0
BITMAP
0040
00E0
01F0
07B8
0210
0000
1C3C
3C3C
3C38
3838
3878
7878
7870
7070
7070
F0F0
F0E0
E0E0
E1E0
E1E0
FFC0
FF80
7F00
ENDCHAR
STARTCHAR 00DC
ENCODING 220
SWIDTH 468 0
DWIDTH 13 0
BBX 14 23 2 0
BITMAP
0200
071C
073C
0718
0000
0000
1C3C
3C3C
3C38
3838
3878
7878
7870
7070
7070
F0F0
F0E0
E0E0
E1E0
E1E0
FFC0
FF80
7F00
ENDCHAR
STARTCHAR 00DD
ENCODING 221
SWIDTH 468 0
DWIDTH 13 0
BBX 13 23 4 0
BITMAP
0040
01C0
03E0
0780
0200
0000
E078
E0F0
F0F0
71E0
71C0
73C0
7780
7F00
3E00
3C00
3C00
3C00
3800
3800
7800
7800
7000
ENDCHAR
STARTCHAR 00DE
ENCODING 222
SWIDTH 468 0
DWIDTH 13 0
BBX 14 17 1 0
BITMAP
0E00
0E00
0FC0
1FF0
1FF8
1C7C
1C3C
3C3C
3C3C
3838
38F8
7FF0
7FE0
7F00
7000
F000
F000
ENDCHAR
STARTCHAR 00DF
ENCODING 223
SWIDTH 468 0
DWIDTH 13 0
BBX 18 24 -3 -5
BITMAP
003F80
007FC0
00FFC0
00E1C0
01E3C0
01C380
01C780
01CF00
03CE00
03DC00
039E00
039E00
078F00
078780
078380
070380
073F80
0F7F00
0F7E00
0E0000
FE0000
FC0000
FC0000
600000
ENDCHAR
STARTCHAR 00E0
ENCODING 224
SWIDTH 468 0
DWIDTH 13 0
BBX 12 19 2 0
BITMAP
0100
0380
03E0
01E0
0060
0000
0FF0
1FF0
3FF0
78F0
70F0
F0E0
E0E0
E1E0
E1E0
E1E0
FFE0
FFE0
7EE0
ENDCHAR
STARTCHAR 00E1
ENCODING 225
SWIDTH 468 0
DWIDTH 13 0
BBX 12 19 2 0
BITMAP
0020
0070
01F0
01E0
0180
0000
0FF0
1FF0
3FF0
78F0
70F0
F0E0
E0E0
E1E0
E1E0
E1E0
FFE0
FFE0
7EE0
ENDCHAR
STARTCHAR 00E2
ENCODING 226
SWIDTH 468 0
DWIDTH 13 0
BBX 12 19 2 0
BITMAP
00C0
01E0
03F0
0730
0200
0000
0FF0
1FF0
3FF0
78F0
70F0
F0E0
E0E0
E1E0
E1E0
E1E0
FFE0
FFE0
7EE0
ENDCHAR
STARTCHAR 00E3
ENCODING 227
SWIDTH 468 0
DWIDTH 13 0
BBX 13 19 2 0
BITMAP
0100
07F8
07F8
0670
0000
0000
0FF0
1FF0
3FF0
78F0
70F0
F0E0
E0E0
E1E0
E1E0
E1E0
FFE0
FFE0
7EE0
ENDCHAR
STARTCHAR 00E4
ENCODING 228
SWIDTH 468 0
DWIDTH 13 0
BBX 14 19 2 0
BITMAP
0218
073C
073C
0738
0000
0000
0FF0
1FF0
3FF0
78F0
70F0
F0E0
E0E0
E1E0
E1E0
E1E0
FFE0
FFE0
7EE0
ENDCHAR
STARTCHAR 00E5
ENCODING 229
SWIDTH 468 0
DWIDTH 13 0
BBX 12 20 2 0
BITMAP
01E0
01F0
0330
0330
01F0
0040
0000
0FF0
1FF0
3FF0
78F0
70F0
F0E0
E0E0
E1E0
E1E0
E1E0
FFE0
FFE0
7EE0
ENDCHAR
STARTCHAR 00E6
ENCODING 230
SWIDTH 468 0
DWIDTH 13 0
BBX 14 13 1 0
BITMAP
3E78
3FFC
27CC
038C
039C
1F38
7FF8
77E0
E700
C700
CF90
FFF0
F9F0
ENDCHAR
STARTCHAR 00E7
ENCODING 231
SWIDTH 468 0
DWIDTH 13 0
BBX 13 18 2 -5
BITMAP
07F8
1FF0
3FF0
7C00
7800
F000
F000
F000
F000
F000
7FC0
7FE0
3FE0
0E00
0700
0700
3E00
1C00
ENDCHAR
STARTCHAR 00E8
ENCODING 232
SWIDTH 468 0
DWIDTH 13 0
BBX 13 19 2 0
BITMAP
0300
0380
07C0
01E0
0040
0000
0FE0
1FF0
3EF0
7878
7070
F1F0
FFE0
FF80
E000
F000
7DC0
7FC0
3FC0
ENDCHAR
STARTCHAR 00E9
ENCODING 233
SWIDTH 468 0
DWIDTH 13 0
BBX 13 19 2 0
BITMAP
0060
00E0
01F0
03C0
0100
0000
0FE0
1FF0
3EF0
7878
7070
F1F0
FFE0
FF80
E000
F000
7DC0
7FC0
3FC0
ENDCHAR
STARTCHAR 00EA
ENCODING 234
SWIDTH 468 0
DWIDTH 13 0
BBX 13 19 2 0
BITMAP
00C0
01E0
03E0
0770
0020
0000
0FE0
1FF0
3EF0
7878
7070
F1F0
FFE0
FF80
E000
F000
7DC0
7FC0
3FC0
ENDCHAR
STARTCHAR 00EB
ENCODING 235
SWIDTH 468 0
DWIDTH 13 0
BBX 13 19 2 0
BITMAP
0410
0E78
0E78
0E30
0000
0000
0FE0
1FF0
3EF0
7878
7070
F1F0
FFE0
FF80
E000
F000
7DC0
7FC0
3FC0
ENDCHAR
STARTCHAR 00EC
ENCODING 236
SWIDTH 468 0
DWIDTH 13 0
BBX 10 19 3 0
BITMAP
0800
1E00
1F00
0700
0100
0000
7F00
FE00
FE00
0E00
1E00
1E00
1C00
1C00
3C00
3C00
3FC0
1FC0
1FC0
ENDCHAR
STARTCHAR 00ED
ENCODING 237
SWIDTH 468 0
DWIDTH 13 0
BBX 10 19 3 0
BITMAP
0180
0380
0FC0
0F00
0400
0000
7F00
FE00
FE00
0E00
1E00
1E00
1C00
1C00
3C00
3C00
3FC0
1FC0
1FC0
ENDCHAR
STARTCHAR 00EE
ENCODING 238
SWIDTH 468 0
DWIDTH 13 0
BBX 10 19 3 0
BITMAP
0300
0700
1F80
1DC0
1080
0000
7F00
FE00
FE00
0E00
1E00
1E00
1C00
1C00
3C00
3C00
3FC0
1FC0
1FC0
ENDCHAR
STARTCHAR 00EF
ENCODING 239
SWIDTH 468 0
DWIDTH 13 0
BBX 11 19 3 0
BITMAP
1040
38E0
39E0
38C0
0000
0000
7F00
FE00
FE00
0E00
1E00
1E00
1C00
1C00
3C00
3C00
3FC0
1FC0
1FC0
ENDCHAR
STARTCHAR 00F0
ENCODING 240
SWIDTH 468 0
DWIDTH 13 0
BBX 14 19 2 0
BITMAP
0180
03C4
01FC
01FC
03F0
0270
0070
0770
1FF0
7FF0
78F0
F0F0
E0F0
E0E0
E1E0
E3C0
FFC0
FF80
7F00
ENDCHAR
STARTCHAR 00F1
ENCODING 241
SWIDTH 468 0
DWIDTH 13 0
BBX 14 19 1 0
BITMAP
0180
07FC
07F8
0670
0000
0000
1FF0
1FF0
1FF8
3C78
3C78
3878
3870
3870
78F0
78F0
70E0
70E0
F1E0
ENDCHAR
STARTCHAR 00F2
ENCODING 242
SWIDTH 468 0
DWIDTH 13 0
BBX 12 19 2 0
BITMAP
0200
0780
07C0
01C0
0040
0000
0FC0
1FE0
3FF0
78F0
7070
F070
E0F0
E0F0
E0E0
F1E0
FFC0
7F80
7F00
ENDCHAR
STARTCHAR 00F3
ENCODING 243
SWIDTH 468 0
DWIDTH 13 0
BBX 12 19 2 0
BITMAP
0040
01E0
03E0
0380
0200
0000
0FC0
1FE0
3FF0
78F0
7070
F070
E0F0
E0F0
E0E0
F1E0
FFC0
7F80
7F00
ENDCHAR
STARTCHAR 00F4
ENCODING 244
SWIDTH 468 0
DWIDTH 13 0
BBX 12 19 2 0
BITMAP
0080
01C0
07E0
0770
0420
0000
0FC0
1FE0
3FF0
78F0
7070
F070
E0F0
E0F0
E0E0
F1E0
FFC0
7F80
7F00
ENDCHAR
STARTCHAR 00F5
ENCODING 245
SWIDTH 468 0
DWIDTH 13 0
BBX 13 19 2 0
BITMAP
0300
0FF8
0FF0
0CE0
0000
0000
0FC0
1FE0
3FF0
78F0
7070
F070
E0F0
E0F0
E0E0
F1E0
FFC0
7F80
7F00
ENDCHAR
STARTCHAR 00F6
ENCODING 246
SWIDTH 468 0
DWIDTH 13 0
BBX 13 19 2 0
BITMAP
0430
0E78
0E78
0E30
0000
0000
0FC0
1FE0
3FF0
78F0
7070
F070
E0F0
E0F0
E0E0
F1E0
FFC0
7F80
7F00
ENDCHAR
STARTCHAR 00F7
ENCODING 247
SWIDTH 468 0
DWIDTH 13 0
BBX 13 14 2 0
BITMAP
0380
03C0
0380
0100
0000
7FF8
7FF0
FFF0
0000
0000
0E00
1E00
1E00
0C00
ENDCHAR
STARTCHAR 00F8
ENCODING 248
SWIDTH 468 0
DWIDTH 13 0
BBX 13 15 2 -1
BITMAP
0018
07F8
1FF0
3EF0
38F8
79F8
73F8
7778
FE70
FC70
78F0
7FE0
7FC0
FF80
4000
ENDCHAR
STARTCHAR 00F9
ENCODING 249
SWIDTH 468 0
DWIDTH 13 0
BBX 12 19 2 0
BITMAP
0600
0700
0FC0
03C0
0080
0000
3870
3870
7870
78F0
70E0
70E0
F0E0
F1E0
F1E0
F1C0
FFE0
7FE0
7EE0
ENDCHAR
STARTCHAR 00FA
ENCODING 250
SWIDTH 468 0
DWIDTH 13 0
BBX 12 19 2 0
BITMAP
0040
01E0
03E0
0380
0200
0000
3870
3870
7870
78F0
70E0
70E0
F0E0
F1E0
F1E0
F1C0
FFE0
7FE0
7EE0
ENDCHAR
STARTCHAR 00FB
ENCODING 251
SWIDTH 468 0
DWIDTH 13 0
BBX 12 19 2 0
BITMAP
0080
01C0
07E0
0E70
0420
0000
3870
3870
7870
78F0
70E0
70E0
F0E0
F1E0
F1E0
F1C0
FFE0
7FE0
7EE0
ENDCHAR
STARTCHAR 00FC
ENCODING 252
SWIDTH 468 0
DWIDTH 13 0
BBX 12 19 2 0
BITMAP
0420
0E70
1E70
0C70
0000
0000
3870
3870
7870
78F0
70E0
70E0
F0E0
F1E0
F1E0
F1C0
FFE0
7FE0
7EE0
ENDCHAR
STARTCHAR 00FD
ENCODING 253
SWIDTH 468 0
DWIDTH 13 0
BBX 16 24 -1 -5
BITMAP
0008
003C
007C
00F0
0040
0000
0F0F
0F0F
0F0E
0F1E
0F1C
071C
0738
0738
0770
07F0
03E0
03E0
03C0
0780
0F00
FE00
FC00
7000
ENDCHAR
STARTCHAR 00FE
ENCODING 254
SWIDTH 468 0
DWIDTH 13 0
BBX 14 24 0 -5
BITMAP
0780
0780
0700
0700
0700
0F00
0FF0
0FF8
0FFC
1E3C
1E1C
1C1C
1C3C
3C3C
3C78
38F8
3FF0
7FE0
7FC0
7000
7000
F000
F000
E000
ENDCHAR
STARTCHAR 00FF
ENCODING 255
SWIDTH 468 0
DWIDTH 13 0
BBX 16 24 -1 -5
BITMAP
0184
01CE
03CE
018E
0000
0000
0F0F
0F0F
0F0E
0F1E
0F1C
071C
0738
0738
0770
07F0
03E0
03E0
03C0
0780
0F00
FE00
FC00
7000
ENDCHAR
STARTCHAR 0100
ENCODING 256
SWIDTH 468 0
DWIDTH 13 0
BBX 15 22 0 0
BITMAP
01FE
01FE
01FE
0000
0000
00F0
00F0
01F8
03F8
03B8
07B8
0738
0F38
0E38
1E38
1FF8
3FF8
3FF8
7838
7038
F038
F038
ENDCHAR
STARTCHAR 0101
ENCODING 257
SWIDTH 468 0
DWIDTH 13 0
BBX 13 18 2 0
BITMAP
07F8
07F8
0000
0000
0000
0FF0
1FF0
3FF0
78F0
70F0
F0E0
E0E0
E1E0
E1E0
E1E0
FFE0
FFE0
7EE0
ENDCHAR
STARTCHAR 0102
ENCODING 258
SWIDTH 468 0
DWIDTH 13 0
BBX 16 23 0 0
BITMAP
00C7
00CE
00FE
007C
0000
0000
00F0
00F0
01F8
03F8
03B8
07B8
0738
0F38
0E38
1E38
1FF8
3FF8
3FF8
7838
7038
F038
F038
ENDCHAR
STARTCHAR 0103
ENCODING 259
SWIDTH 468 0
DWIDTH 13 0
BBX 13 19 2 0
BITMAP
0718
0738
03F0
03E0
0000
0000
0FF0
1FF0
3FF0
78F0
70F0
F0E0
E0E0
E1E0
E1E0
E1E0
FFE0
FFE0
7EE0
ENDCHAR
STARTCHAR 0104
ENCODING 260
SWIDTH 468 0
DWIDTH 13 0
BBX 14 22 0 -5
BITMAP
0078
00F8
01F8
01F8
03B8
03B8
0738
0738
0E38
0E38
1FF8
1FFC
3FFC
383C
783C
703C
F03C
0038
0070
00E0
00F8
0070
ENDCHAR
STARTCHAR 0105
ENCODING 261
SWIDTH 468 0
DWIDTH 13 0
BBX 12 18 2 -5
BITMAP
0FF0
1FF0
3FF0
78F0
70F0
F0E0
E0E0
E1E0
E1E0
E1E0
FFE0
FFE0
7EE0
01C0
0380
0780
07C0
0180
ENDCHAR
STARTCHAR 0106
ENCODING 262
SWIDTH 468 0
DWIDTH 13 0
BBX 13 23 2 0
BITMAP
0010
0070
00F8
01E0
0080
0040
03F8
0FF8
1FB8
1E00
3C00
3800
7800
7000
7000
7000
F000
F000
F000
7800
7FE0
3FE0
1FC0
ENDCHAR
STARTCHAR 0107
ENCODING 263
SWIDTH 468 0
DWIDTH 13 0
BBX 13 19 2 0
BITMAP
0030
0070
01F8
01E0
0080
0000
07F8
1FF0
3FF0
7C00
7800
F000
F000
F000
F000
F000
7FC0
7FE0
3FE0
ENDCHAR
STARTCHAR 0108
ENCODING 264
SWIDTH 468 0
DWIDTH 13 0
BBX 14 23 2 0
BITMAP
0020
0070
00F8
03DC
0108
0040
03F8
0FF8
1FB8
1E00
3C00
3800
7800
7000
7000
7000
F000
F000
F000
7800
7FE0
3FE0
1FC0
ENDCHAR
STARTCHAR 0109
ENCODING 265
SWIDTH 468 0
DWIDTH 13 0
BBX 13 19 2 0
BITMAP
0040
00E0
03F0
03B8
0210
0000
07F8
1FF0
3FF0
7C00
7800
F000
F000
F000
F000
F000
7FC0
7FE0
3FE0
ENDCHAR
STARTCHAR 010A
ENCODING 266
SWIDTH 468 0
DWIDTH 13 0
BBX 13 23 2 0
BITMAP
0040
00F0
00F0
00E0
0000
0040
03F8
0FF8
1FB8
1E00
3C00
3800
7800
7000
7000
7000
F000
F000
F000
7800
7FE0
3FE0
1FC0
ENDCHAR
STARTCHAR 010B
ENCODING 267
SWIDTH 468 0
DWIDTH 13 0
BBX 13 19 2 0
BITMAP
00C0
01E0
01E0
00C0
0000
0000
07F8
1FF0
3FF0
7C00
7800
F000
F000
F000
F000
F000
7FC0
7FE0
3FE0
ENDCHAR
STARTCHAR 010C
ENCODING 268
SWIDTH 468 0
DWIDTH 13 0
BBX 14 23 2 0
BITMAP
0188
01DC
00F8
00F0
0040
0040
03F8
0FF8
1FB8
1E00
3C00
3800
7800
7000
7000
7000
F000
F000
F000
7800
7FE0
3FE0
1FC0
ENDCHAR
STARTCHAR 010D
ENCODING 269
SWIDTH 468 0
DWIDTH 13 0
BBX 13 19 2 0
BITMAP
0118
03B8
01F0
00E0
0000
0000
07F8
1FF0
3FF0
7C00
7800
F000
F000
F000
F000
F000
7FC0
7FE0
3FE0
ENDCHAR
STARTCHAR 010E
ENCODING 270
SWIDTH 468 0
DWIDTH 13 0
BBX 14 23 1 0
BITMAP
0118
03B8
01F0
00E0
0040
0000
0FE0
0FF0
1FF8
1E38
1C3C
1C3C
3C3C
3C3C
3838
3838
7878
7878
70F0
71F0
FFE0
FFC0
FF00
ENDCHAR
STARTCHAR 010F
ENCODING 271
SWIDTH 468 0
DWIDTH 13 0
BBX 17 19 1 0
BITMAP
003B80
007B80
007B00
007700
007700
00F600
0FF000
1FE000
3FE000
78E000
71E000
F1C000
E1C000
E1C000
E3C000
E3C000
FFC000
FFC000
7DC000
ENDCHAR
STARTCHAR 0110
ENCODING 272
SWIDTH 468 0
DWIDTH 13 0
BBX 14 17 1 0
BITMAP
0FE0
0FF0
0FF8
0E38
1E3C
1C3C
1C3C
7F3C
7E38
7E38
3878
3878
78F0
79F0
7FE0
7FC0
FF00
ENDCHAR
STARTCHAR 0111
ENCODING 273
SWIDTH 468 0
DWIDTH 13 0
BBX 15 19 2 0
BITMAP
003C
0038
03FE
07FE
0078
0070
0FF0
1FF0
3FF0
78E0
F0E0
F1E0
E1E0
E1C0
E1C0
E3C0
FFC0
FFC0
7DE0
ENDCHAR
STARTCHAR 0112
ENCODING 274
SWIDTH 468 0
DWIDTH 13 0
BBX 14 22 2 0
BITMAP
03FC
03FC
07F8
0000
0000
1FFC
1FF8
1FF8
1C00
3C00
3C00
3FE0
3FE0
7FE0
7800
7000
7000
7000
F000
FFE0
FFE0
FFC0
ENDCHAR
STARTCHAR 0113
ENCODING 275
SWIDTH 468 0
DWIDTH 13 0
BBX 13 18 2 0
BITMAP
07F8
07F8
0000
0000
0000
0FE0
1FF0
3EF0
7878
7070
F1F0
FFE0
FF80
E000
F000
7DC0
7FC0
3FC0
ENDCHAR
STARTCHAR 0114
ENCODING 276
SWIDTH 468 0
DWIDTH 13 0
BBX 14 23 2 0
BITMAP
039C
039C
01F8
01F0
0000
0000
1FFC
1FF8
1FF8
1C00
3C00
3C00
3FE0
3FE0
7FE0
7800
7000
7000
7000
F000
FFE0
FFE0
FFC0
ENDCHAR
STARTCHAR 0115
ENCODING 277
SWIDTH 468 0
DWIDTH 13 0
BBX 13 19 2 0
BITMAP
0318
0338
03F8
01E0
0000
0000
0FE0
1FF0
3EF0
7878
7070
F1F0
FFE0
FF80
E000
F000
7DC0
7FC0
3FC0
ENDCHAR
STARTCHAR 0116
ENCODING 278
SWIDTH 468 0
DWIDTH 13 0
BBX 14 23 2 0
BITMAP
0060
00F0
00F0
00E0
0000
0000
1FFC
1FF8
1FF8
1C00
3C00
3C00
3FE0
3FE0
7FE0
7800
7000
7000
7000
F000
FFE0
FFE0
FFC0
ENDCHAR
STARTCHAR 0117
ENCODING 279
SWIDTH 468 0
DWIDTH 13 0
BBX 13 19 2 0
BITMAP
00C0
01E0
01E0
01C0
0000
0000
0FE0
1FF0
3EF0
7878
7070
F1F0
FFE0
FF80
E000
F000
7DC0
7FC0
3FC0
ENDCHAR
STARTCHAR 0118
ENCODING 280
SWIDTH 468 0
DWIDTH 13 0
BBX 14 22 2 -5
BITMAP
1FFC
1FF8
1FF8
1C00
3C00
3C00
3FE0
3FE0
7FE0
7800
7000
7000
7000
F000
FFE0
FFE0
FFC0
03C0
0700
0700
07C0
0380
ENDCHAR
STARTCHAR 0119
ENCODING 281
SWIDTH 468 0
DWIDTH 13 0
BBX 13 18 2 -5
BITMAP
0FE0
1FF0
3EF0
7878
7070
F1F0
FFE0
FF80
E000
F000
7DC0
7FC0
3FC0
0380
0700
0E00
0F80
0300
ENDCHAR
STARTCHAR 011A
ENCODING 282
SWIDTH 468 0
DWIDTH 13 0
BBX 14 23 2 0
BITMAP
0108
01FC
01F8
00E0
0040
0000
1FFC
1FF8
1FF8
1C00
3C00
3C00
3FE0
3FE0
7FE0
7800
7000
7000
7000
F000
FFE0
FFE0
FFC0
ENDCHAR
STARTCHAR 011B
ENCODING 283
SWIDTH 468 0
DWIDTH 13 0
BBX 13 19 2 0
BITMAP
0230
0770
03E0
01C0
0080
0000
0FE0
1FF0
3EF0
7878
7070
F1F0
FFE0
FF80
E000
F000
7DC0
7FC0
3FC0
ENDCHAR
STARTCHAR 011C
ENCODING 284
SWIDTH 468 0
DWIDTH 13 0
BBX 13 23 2 0
BITMAP
0020
00F0
01F0
03B8
0110
00C0
07F8
0FF8
1FB8
3C00
3C00
7800
7000
7000
F070
F070
F0F0
F0E0
F0E0
F0E0
7FE0
7FE0
3FC0
ENDCHAR
STARTCHAR 011D
ENCODING 285
SWIDTH 468 0
DWIDTH 13 0
BBX 15 24 0 -5
BITMAP
0010
0038
00FC
00EE
0084
0000
03FE
07FE
0FBC
1E1C
1C3C
3C3C
3C38
3838
3C78
3FF8
1FF0
0FF0
00F0
00F0
61E0
FFC0
FF80
1C00
ENDCHAR
STARTCHAR 011E
ENCODING 286
SWIDTH 468 0
DWIDTH 13 0
BBX 14 23 2 0
BITMAP
039C
039C
01F8
01F0
0000
00C0
07F8
0FF8
1FB8
3C00
3C00
7800
7000
7000
F070
F070
F0F0
F0E0
F0E0
F0E0
7FE0
7FE0
3FC0
ENDCHAR
STARTCHAR 011F
ENCODING 287
SWIDTH 468 0
DWIDTH 13 0
BBX 16 24 0 -5
BITMAP
00C7
00EE
00FE
007C
0000
0000
03FE
07FE
0FBC
1E1C
1C3C
3C3C
3C38
3838
3C78
3FF8
1FF0
0FF0
00F0
00F0
61E0
FFC0
FF80
1C00
ENDCHAR
STARTCHAR 0120
ENCODING 288
SWIDTH 468 0
DWIDTH 13 0
BBX 13 23 2 0
BITMAP
0040
00F0
00F0
00E0
0000
00C0
07F8
0FF8
1FB8
3C00
3C00
7800
7000
7000
F070
F070
F0F0
F0E0
F0E0
F0E0
7FE0
7FE0
3FC0
ENDCHAR
STARTCHAR 0121
ENCODING 289
SWIDTH 468 0
DWIDTH 13 0
BBX 15 24 0 -5
BITMAP
0030
0078
0078
0030
0000
0000
03FE
07FE
0FBC
1E1C
1C3C
3C3C
3C38
3838
3C78
3FF8
1FF0
0FF0
00F0
00F0
61E0
FFC0
FF80
1C00
ENDCHAR
STARTCHAR 0122
ENCODING 290
SWIDTH 468 0
DWIDTH 13 0
BBX 13 23 2 -5
BITMAP
00C0
07F8
0FF8
1FB8
3C00
3C00
7800
7000
7000
F070
F070
F0F0
F0E0
F0E0
F0E0
7FE0
7FE0
3FC0
0000
0C00
1C00
7C00
7000
ENDCHAR
STARTCHAR 0123
ENCODING 291
SWIDTH 468 0
DWIDTH 13 0
BBX 15 24 0 -4
BITMAP
001C
0038
0070
0070
0000
0000
03FE
07FE
0FBC
1E1C
1C3C
3C3C
3C38
3838
3C78
3FF8
1FF0
0FF0
00F0
00F0
61E0
FFC0
FF80
1C00
ENDCHAR
STARTCHAR 0124
ENCODING 292
SWIDTH 468 0
DWIDTH 13 0
BBX 15 23 1 0
BITMAP
0020
0070
00F8
03DC
0108
0000
0E0E
1E1E
1E1E
1C1C
1C1C
3C3C
3C3C
3FF8
3FF8
3838
7878
7070
7070
7070
F0F0
F0F0
E0E0
ENDCHAR
STARTCHAR 0125
ENCODING 293
SWIDTH 468 0
DWIDTH 13 0
BBX 13 23 1 0
BITMAP
00C0
01E0
07F0
0220
0000
0F00
0F00
0E00
0E00
1E00
1FF0
1FF0
1FF8
3C78
3C78
3878
3870
3870
78F0
78F0
70E0
70E0
F1E0
ENDCHAR
STARTCHAR 0126
ENCODING 294
SWIDTH 468 0
DWIDTH 13 0
BBX 14 17 2 0
BITMAP
1E38
1E38
7FFC
7FFC
7FFC
3C70
38F0
3FF0
3FE0
78E0
70E0
71E0
71C0
F1C0
F1C0
E3C0
E3C0
ENDCHAR
STARTCHAR 0127
ENCODING 295
SWIDTH 468 0
DWIDTH 13 0
BBX 12 19 2 0
BITMAP
0E00
0E00
3FE0
3FC0
1C00
1C00
1FE0
3FE0
3FF0
38F0
38F0
78F0
78E0
70E0
71E0
F1E0
F1C0
E1C0
E3C0
ENDCHAR
STARTCHAR 0128
ENCODING 296
SWIDTH 468 0
DWIDTH 13 0
BBX 15 22 1 1
BITMAP
01FE
03FC
0378
0000
0000
0FFE
0FFE
1FFC
01C0
01C0
03C0
03C0
0380
0380
0380
0780
0700
0700
0700
7FE0
FFE0
FFE0
ENDCHAR
STARTCHAR 0129
ENCODING 297
SWIDTH 468 0
DWIDTH 13 0
BBX 11 19 3 0
BITMAP
0440
1FE0
3FE0
1380
0000
0000
7F00
FE00
FE00
0E00
1E00
1E00
1C00
1C00
3C00
3C00
3FC0
1FC0
1FC0
ENDCHAR
STARTCHAR 012A
ENCODING 298
SWIDTH 468 0
DWIDTH 13 0
BBX 15 22 1 0
BITMAP
01FE
03FE
03FC
0000
0000
0FFE
0FFE
1FFC
01C0
01C0
03C0
03C0
0380
0380
0380
0780
0700
0700
0700
7FE0
FFE0
FFE0
ENDCHAR
STARTCHAR 012B
ENCODING 299
SWIDTH 468 0
DWIDTH 13 0
BBX 11 18 3 0
BITMAP
1FE0
1FE0
0000
0000
0000
7F00
FE00
FE00
0E00
1E00
1E00
1C00
1C00
3C00
3C00
3FC0
1FC0
1FC0
ENDCHAR
STARTCHAR 012C
ENCODING 300
SWIDTH 468 0
DWIDTH 13 0
BBX 15 23 1 0
BITMAP
018E
019C
01FC
00F8
0000
0000
0FFE
0FFE
1FFC
01C0
01C0
03C0
03C0
0380
0380
0380
0780
0700
0700
0700
7FE0
FFE0
FFE0
ENDCHAR
STARTCHAR 012D
ENCODING 301
SWIDTH 468 0
DWIDTH 13 0
BBX 11 19 3 0
BITMAP
1CE0
1CE0
0FC0
0F80
0000
0000
7F00
FE00
FE00
0E00
1E00
1E00
1C00
1C00
3C00
3C00
3FC0
1FC0
1FC0
ENDCHAR
STARTCHAR 012E
ENCODING 302
SWIDTH 468 0
DWIDTH 13 0
BBX 15 22 1 -5
BITMAP
0FFE
0FFE
1FFC
01C0
01C0
03C0
03C0
0380
0380
0380
0780
0700
0700
0700
7FE0
FFE0
FFE0
1C00
3800
3800
7E00
1C00
ENDCHAR
STARTCHAR 012F
ENCODING 303
SWIDTH 468 0
DWIDTH 13 0
BBX 10 24 3 -5
BITMAP
0700
0F80
0F80
0F00
0000
0000
7F00
FE00
FE00
0E00
1E00
1E00
1C00
1C00
3C00
3C00
3FC0
1FC0
1FC0
0780
0E00
0E00
1F80
0F00
ENDCHAR
STARTCHAR 0130
ENCODING 304
SWIDTH 468 0
DWIDTH 13 0
BBX 15 23 1 0
BITMAP
0020
00F0
00F0
00F0
0000
0000
0FFE
0FFE
1FFC
01C0
01C0
03C0
03C0
0380
0380
0380
0780
0700
0700
0700
7FE0
FFE0
FFE0
ENDCHAR
STARTCHAR 0131
ENCODING 305
SWIDTH 468 0
DWIDTH 13 0
BBX 10 13 3 0
BITMAP
7F00
FE00
FE00
0E00
1E00
1E00
1C00
1C00
3C00
3C00
3FC0
1FC0
1FC0
ENDCHAR
STARTCHAR 0132
ENCODING 306
SWIDTH 468 0
DWIDTH 13 0
BBX 17 17 0 0
BITMAP
0F0780
0E0700
0E0700
0E0700
1E0F00
1C0E00
1C0E00
1C0E00
3C1E00
381C00
381C00
381C00
783C00
703800
777800
77F000
F7E000
ENDCHAR
STARTCHAR 0133
ENCODING 307
SWIDTH 468 0
DWIDTH 13 0
BBX 14 24 2 -5
BITMAP
0E38
0F3C
1F3C
0E38
0000
0000
1C78
1C70
3C70
3CF0
38F0
38E0
78E0
79E0
71E0
71C0
F1C0
F3C0
E3C0
0380
1F80
3F00
3F00
1800
ENDCHAR
STARTCHAR 0134
ENCODING 308
SWIDTH 468 0
DWIDTH 13 0
BBX 14 23 1 0
BITMAP
0010
0038
00FC
01DC
0084
0000
07FC
07FC
07FC
003C
0038
0038
0078
0078
0070
0070
0070
00F0
00E0
41E0
7FE0
FFC0
7F80
ENDCHAR
STARTCHAR 0135
ENCODING 309
SWIDTH 468 0
DWIDTH 13 0
BBX 14 24 0 -5
BITMAP
0020
0070
01F8
01DC
0108
0000
0FF8
0FF8
0FF8
0070
0070
00F0
00F0
00E0
00E0
01E0
01E0
01C0
01C0
03C0
6780
FF80
FF00
1C00
ENDCHAR
STARTCHAR 0136
ENCODING 310
SWIDTH 468 0
DWIDTH 13 0
BBX 15 22 1 -5
BITMAP
0E1E
0E1C
1E3C
1E78
1CF0
1DE0
3FC0
3F80
3F80
3B80
7BC0
79C0
71E0
70E0
F0F0
F0F0
E070
0000
0E00
1C00
7C00
7000
ENDCHAR
STARTCHAR 0137
ENCODING 311
SWIDTH 468 0
DWIDTH 13 0
BBX 13 24 2 -5
BITMAP
0E00
0E00
1E00
1E00
1C00
1C00
3C78
3CF0
39E0
3BC0
3F80
7F00
7F00
7780
7380
F3C0
F1C0
E1E0
E1E0
0000
1C00
1C00
7800
7000
ENDCHAR
STARTCHAR 0138
ENCODING 312
SWIDTH 468 0
DWIDTH 13 0
BBX 13 13 2 0
BITMAP
3C78
3CF0
39E0
3BC0
3F80
7F00
7F00
7780
7380
F3C0
F1C0
E1E0
E1E0
ENDCHAR
STARTCHAR 0139
ENCODING 313
SWIDTH 468 0
DWIDTH 13 0
BBX 12 23 1 0
BITMAP
0080
01C0
03E0
0780
0200
0000
0F00
0E00
0E00
1E00
1E00
1C00
1C00
1C00
3C00
3800
3800
3800
7800
7800
7FF0
7FE0
FFE0
ENDCHAR
STARTCHAR 013A
ENCODING 314
SWIDTH 468 0
DWIDTH 13 0
BBX 10 23 4 0
BITMAP
0080
0380
0FC0
0C00
0000
FE00
FE00
FE00
1E00
1C00
1C00
3C00
3C00
3800
3800
3800
7800
7800
7000
7000
7F00
7F80
3F80
ENDCHAR
STARTCHAR 013B
ENCODING 315
SWIDTH 468 0
DWIDTH 13 0
BBX 12 22 1 -5
BITMAP
0F00
0E00
0E00
1E00
1E00
1C00
1C00
1C00
3C00
3800
3800
3800
7800
7800
7FF0
7FE0
FFE0
0000
0E00
0E00
3C00
3800
ENDCHAR
STARTCHAR 013C
ENCODING 316
SWIDTH 468 0
DWIDTH 13 0
BBX 9 24 4 -5
BITMAP
7F00
FE00
FE00
1E00
1E00
1C00
1C00
3C00
3C00
3800
3800
3800
7800
7800
7000
7000
7F00
7F80
3F80
0000
1C00
3800
F800
E000
ENDCHAR
STARTCHAR 013D
ENCODING 317
SWIDTH 468 0
DWIDTH 13 0
BBX 13 17 1 0
BITMAP
0F38
0E38
0E70
1E70
1E60
1C60
1C00
1C00
3C00
3800
3800
3800
7800
7800
7FF0
7FE0
FFE0
ENDCHAR
STARTCHAR 013E
ENCODING 318
SWIDTH 468 0
DWIDTH 13 0
BBX 13 19 4 0
BITMAP
7F38
FE30
FE70
1E70
1E60
1C60
1C00
3C00
3C00
3800
3800
3800
7800
7800
7000
7000
7F00
7F80
3F80
ENDCHAR
STARTCHAR 013F
ENCODING 319
SWIDTH 468 0
DWIDTH 13 0
BBX 13 17 1 0
BITMAP
0F00
0E00
0E00
1E00
1E00
1C00
1C70
1C78
3C78
3830
3800
3800
7800
7800
7FF0
7FE0
FFE0
ENDCHAR
STARTCHAR 0140
ENCODING 320
SWIDTH 468 0
DWIDTH 13 0
BBX 13 19 4 0
BITMAP
7F00
FE00
FE00
1E00
1E00
1C00
1C00
3C00
3C70
3878
3870
3860
7800
7800
7000
7000
7F00
7F80
3F80
ENDCHAR
STARTCHAR 0141
ENCODING 321
SWIDTH 468 0
DWIDTH 13 0
BBX 12 17 1 0
BITMAP
0780
0700
0700
0F00
0F40
0FC0
0FE0
1F80
7E00
FC00
5C00
1C00
3C00
3C00
3FF0
3FE0
7FE0
ENDCHAR
STARTCHAR 0142
ENCODING 322
SWIDTH 468 0
DWIDTH 13 0
BBX 9 19 4 0
BITMAP
7F00
FE00
FE00
1E00
1E00
1C00
1F80
1F80
7E00
F800
F800
3800
7800
7800
7000
7000
7F00
7F80
3F80
ENDCHAR
STARTCHAR 0143
ENCODING 323
SWIDTH 468 0
DWIDTH 13 0
BBX 15 23 1 0
BITMAP
0010
0038
007C
00F0
0040
0000
0E0E
1E0E
1F0E
1F1C
1F1C
3B1C
3B9C
3BB8
39B8
39B8
71B8
71F0
70F0
70F0
E0F0
E0F0
E0E0
ENDCHAR
STARTCHAR 0144
ENCODING 324
SWIDTH 468 0
DWIDTH 13 0
BBX 13 19 1 0
BITMAP
0030
0070
01F8
01E0
0080
0000
1FF0
1FF0
1FF8
3C78
3C78
3878
3870
3870
78F0
78F0
70E0
70E0
F1E0
ENDCHAR
STARTCHAR 0145
ENCODING 325
SWIDTH 468 0
DWIDTH 13 0
BBX 15 22 1 -5
BITMAP
0E0E
1E0E
1F0E
1F1C
1F1C
3B1C
3B9C
3BB8
39B8
39B8
71B8
71F0
70F0
70F0
E0F0
E0F0
E0E0
0000
0E00
1C00
7C00
7000
ENDCHAR
STARTCHAR 0146
ENCODING 326
SWIDTH 468 0
DWIDTH 13 0
BBX 13 18 1 -5
BITMAP
1FF0
1FF0
1FF8
3C78
3C78
3878
3870
3870
78F0
78F0
70E0
70E0
F1E0
0000
0E00
1C00
7C00
7000
ENDCHAR
STARTCHAR 0147
ENCODING 327
SWIDTH 468 0
DWIDTH 13 0
BBX 15 23 1 0
BITMAP
008C
01DC
00F8
0070
0020
0000
0E0E
1E0E
1F0E
1F1C
1F1C
3B1C
3B9C
3BB8
39B8
39B8
71B8
71F0
70F0
70F0
E0F0
E0F0
E0E0
ENDCHAR
STARTCHAR 0148
ENCODING 328
SWIDTH 468 0
DWIDTH 13 0
BBX 13 19 1 0
BITMAP
0118
03B8
01F0
00E0
0000
0000
1FF0
1FF0
1FF8
3C78
3C78
3878
3870
3870
78F0
78F0
70E0
70E0
F1E0
ENDCHAR
STARTCHAR 0149
ENCODING 329
SWIDTH 468 0
DWIDTH 13 0
BBX 12 19 2 0
BITMAP
1C00
3C00
3800
3800
7000
0000
1FE0
3FF0
3FF0
3870
3870
78F0
78F0
70E0
70E0
F0E0
F1E0
E1C0
E1C0
ENDCHAR
STARTCHAR 014A
ENCODING 330
SWIDTH 468 0
DWIDTH 13 0
BBX 15 22 1 -5
BITMAP
0E0E
1E0E
1F0E
1F1C
1F1C
3B1C
3B9C
3BB8
39B8
39B8
71B8
71F0
71F0
70F0
E0F0
E0E0
E0E0
00E0
01E0
0FC0
0F80
0700
ENDCHAR
STARTCHAR 014B
ENCODING 331
SWIDTH 468 0
DWIDTH 13 0
BBX 13 18 1 -5
BITMAP
1FE0
1FF0
1FF8
3C78
3C78
3878
3870
3870
78F0
70F0
70E0
70E0
F1E0
01E0
03C0
0FC0
0F80
0600
ENDCHAR
STARTCHAR 014C
ENCODING 332
SWIDTH 468 0
DWIDTH 13 0
BBX 14 22 2 0
BITMAP
03FC
07F8
07F8
0000
0180
07E0
1FF0
1EF8
3C78
7838
7038
7078
F078
F078
E070
E070
E0F0
E0E0
F1E0
FFC0
7F80
3F00
ENDCHAR
STARTCHAR 014D
ENCODING 333
SWIDTH 468 0
DWIDTH 13 0
BBX 12 18 2 0
BITMAP
0FF0
0FF0
0000
0000
0000
0FC0
1FE0
3FF0
78F0
7070
F070
E0F0
E0F0
E0E0
F1E0
FFC0
7F80
7F00
ENDCHAR
STARTCHAR 014E
ENCODING 334
SWIDTH 468 0
DWIDTH 13 0
BBX 14 23 2 0
BITMAP
039C
039C
03F8
01F0
0000
0180
07E0
1FF0
1EF8
3C78
7838
7038
7078
F078
F078
E070
E070
E0F0
E0E0
F1E0
FFC0
7F80
3F00
ENDCHAR
STARTCHAR 014F
ENCODING 335
SWIDTH 468 0
DWIDTH 13 0
BBX 13 19 2 0
BITMAP
0638
0770
07F0
03E0
0000
0000
0FC0
1FE0
3FF0
78F0
7070
F070
E0F0
E0F0
E0E0
F1E0
FFC0
7F80
7F00
ENDCHAR
STARTCHAR 0150
ENCODING 336
SWIDTH 468 0
DWIDTH 13 0
BBX 15 23 2 0
BITMAP
0084
01CE
07DE
073C
0610
0180
07E0
1FF0
1EF8
3C78
7838
7038
7078
F078
F078
E070
E070
E0F0
E0E0
F1E0
FFC0
7F80
3F00
ENDCHAR
STARTCHAR 0151
ENCODING 337
SWIDTH 468 0
DWIDTH 13 0
BBX 14 19 2 0
BITMAP
0308
079C
0F3C
0E70
0820
0000
0FC0
1FE0
3FF0
78F0
7070
F070
E0F0
E0F0
E0E0
F1E0
FFC0
7F80
7F00
ENDCHAR
STARTCHAR 0152
ENCODING 338
SWIDTH 468 0
DWIDTH 13 0
BBX 16 17 1 0
BITMAP
07FF
0FFF
1FFE
1C70
3C70
38E0
78FC
70F8
70F8
71C0
71C0
F1C0
71C0
73C0
7FF8
7FF8
3FF0
ENDCHAR
STARTCHAR 0153
ENCODING 339
SWIDTH 468 0
DWIDTH 13 0
BBX 14 13 1 0
BITMAP
0F3C
3FFC
3BCC
73CC
738C
E39C
E3F8
E3E0
E300
E780
FF80
FDF8
7DF8
ENDCHAR
STARTCHAR 0154
ENCODING 340
SWIDTH 468 0
DWIDTH 13 0
BBX 14 23 1 0
BITMAP
0010
0078
00F8
01E0
00C0
0000
0FF0
0FF8
1EFC
1E3C
1C3C
1C3C
3C38
3CF8
3FF0
3FE0
7FC0
79C0
71E0
70E0
70E0
F0F0
E070
ENDCHAR
STARTCHAR 0155
ENCODING 341
SWIDTH 468 0
DWIDTH 13 0
BBX 13 19 2 0
BITMAP
0020
00F0
01F0
01C0
0100
0000
0FF8
1FF0
3FF0
3C00
3800
3800
7800
7800
7000
7000
7000
F000
E000
ENDCHAR
STARTCHAR 0156
ENCODING 342
SWIDTH 468 0
DWIDTH 13 0
BBX 14 22 1 -5
BITMAP
0FF0
0FF8
1EFC
1E3C
1C3C
1C3C
3C38
3CF8
3FF0
3FE0
7FC0
79C0
71E0
70E0
70E0
F0F0
E070
0000
0E00
1C00
7C00
7000
ENDCHAR
STARTCHAR 0157
ENCODING 343
SWIDTH 468 0
DWIDTH 13 0
BBX 16 18 -1 -5
BITMAP
01FF
03FE
07FE
0780
0700
0700
0F00
0F00
0E00
0E00
0E00
1E00
1C00
0000
1C00
3800
F800
E000
ENDCHAR
STARTCHAR 0158
ENCODING 344
SWIDTH 468 0
DWIDTH 13 0
BBX 14 23 1 0
BITMAP
0118
03B8
01F0
00E0
0040
0000
0FF0
0FF8
1EFC
1E3C
1C3C
1C3C
3C38
3CF8
3FF0
3FE0
7FC0
79C0
71E0
70E0
70E0
F0F0
E070
ENDCHAR
STARTCHAR 0159
ENCODING 345
SWIDTH 468 0
DWIDTH 13 0
BBX 13 19 2 0
BITMAP
0318
03B8
01F0
00C0
0080
0000
0FF8
1FF0
3FF0
3C00
3800
3800
7800
7800
7000
7000
7000
F000
E000
ENDCHAR
STARTCHAR 015A
ENCODING 346
SWIDTH 468 0
DWIDTH 13 0
BBX 14 23 1 0
BITMAP
0010
0078
00F8
01E0
00C0
0060
07FC
0FFC
1F38
1C00
1C00
1E00
1F00
0FC0
07E0
03F0
00F0
0070
0070
40F0
7FE0
FFE0
7F80
ENDCHAR
STARTCHAR 015B
ENCODING 347
SWIDTH 468 0
DWIDTH 13 0
BBX 12 19 2 0
BITMAP
0060
00E0
03F0
03C0
0100
0000
0FF0
1FF0
3EE0
3800
3C00
3F00
1FC0
07C0
01E0
01E0
FFC0
FFC0
FF00
ENDCHAR
STARTCHAR 015C
ENCODING 348
SWIDTH 468 0
DWIDTH 13 0
BBX 14 23 1 0
BITMAP
0020
0070
00F8
03DC
0108
0060
07FC
0FFC
1F38
1C00
1C00
1E00
1F00
0FC0
07E0
03F0
00F0
0070
0070
40F0
7FE0
FFE0
7F80
ENDCHAR
STARTCHAR 015D
ENCODING 349
SWIDTH 468 0
DWIDTH 13 0
BBX 12 19 2 0
BITMAP
00C0
01E0
03E0
0770
0020
0000
0FF0
1FF0
3EE0
3800
3C00
3F00
1FC0
07C0
01E0
01E0
FFC0
FFC0
FF00
ENDCHAR
STARTCHAR 015E
ENCODING 350
SWIDTH 468 0
DWIDTH 13 0
BBX 14 23 1 -5
BITMAP
0060
07FC
0FFC
1F38
1C00
1C00
1E00
1F00
0FC0
07E0
03F0
00F0
0070
0070
40F0
7FE0
FFE0
7F80
0C00
0E00
0E00
3E00
3800
ENDCHAR
STARTCHAR 015F
ENCODING 351
SWIDTH 468 0
DWIDTH 13 0
BBX 12 18 2 -5
BITMAP
0FF0
1FF0
3EE0
3800
3C00
3F00
1FC0
07C0
01E0
01E0
FFC0
FFC0
FF00
1800
1C00
0C00
7C00
7000
ENDCHAR
STARTCHAR 0160
ENCODING 352
SWIDTH 468 0
DWIDTH 13 0
BBX 14 23 1 0
BITMAP
008C
01DC
00F8
0070
0040
0060
07FC
0FFC
1F38
1C00
1C00
1E00
1F00
0FC0
07E0
03F0
00F0
0070
0070
40F0
7FE0
FFE0
7F80
ENDCHAR
STARTCHAR 0161
ENCODING 353
SWIDTH 468 0
DWIDTH 13 0
BBX 12 19 2 0
BITMAP
0230
0770
03E0
01C0
0080
0000
0FF0
1FF0
3EE0
3800
3C00
3F00
1FC0
07C0
01E0
01E0
FFC0
FFC0
FF00
ENDCHAR
STARTCHAR 0162
ENCODING 354
SWIDTH 468 0
DWIDTH 13 0
BBX 14 22 3 -5
BITMAP
7FFC
7FF8
7FF8
0700
0700
0F00
0F00
0E00
0E00
1E00
1E00
1C00
1C00
3C00
3C00
3800
3800
3000
3800
1800
F800
F000
ENDCHAR
STARTCHAR 0163
ENCODING 355
SWIDTH 468 0
DWIDTH 13 0
BBX 11 22 3 -5
BITMAP
0600
0E00
1E00
1E00
FFE0
FFE0
FFE0
3C00
3800
3800
7800
7800
7000
7000
7F80
7F80
3F80
0C00
0E00
0E00
3E00
3800
ENDCHAR
STARTCHAR 0164
ENCODING 356
SWIDTH 468 0
DWIDTH 13 0
BBX 13 23 4 0
BITMAP
0460
0EE0
07C0
0380
0100
0000
FFF8
FFF0
FFF0
0E00
0E00
1E00
1E00
1C00
1C00
3C00
3C00
3800
3800
7800
7800
7000
7000
ENDCHAR
STARTCHAR 0165
ENCODING 357
SWIDTH 468 0
DWIDTH 13 0
BBX 13 19 3 0
BITMAP
0038
0070
0770
0E60
0E60
1E00
7FF0
FFE0
FFE0
3C00
3C00
3800
3800
3800
7800
7800
7FC0
3FC0
1FC0
ENDCHAR
STARTCHAR 0166
ENCODING 358
SWIDTH 468 0
DWIDTH 13 0
BBX 13 17 4 0
BITMAP
FFF8
FFF0
FFF0
0E00
0E00
1E00
1E00
1C00
FF80
FF80
3C00
3800
3800
7800
7800
7000
7000
ENDCHAR
STARTCHAR 0167
ENCODING 359
SWIDTH 468 0
DWIDTH 13 0
BBX 13 17 2 0
BITMAP
0380
0700
0700
0F00
3FF8
7FF0
7FF0
1E00
1E00
FFF0
FFE0
1C00
3C00
3C00
3FE0
1FE0
0FE0
ENDCHAR
STARTCHAR 0168
ENCODING 360
SWIDTH 468 0
DWIDTH 13 0
BBX 14 22 2 1
BITMAP
03FC
07F8
06F0
0000
0000
1C3C
3C3C
3C38
3838
3878
7878
7870
7070
7070
F0F0
F0E0
E0E0
E1E0
E1E0
FFC0
FF80
7F00
ENDCHAR
STARTCHAR 0169
ENCODING 361
SWIDTH 468 0
DWIDTH 13 0
BBX 13 19 2 0
BITMAP
0300
0FF8
0FF0
0CE0
0000
0000
3870
3870
7870
78F0
70E0
70E0
F0E0
F1E0
F1E0
F1C0
FFE0
7FE0
7EE0
ENDCHAR
STARTCHAR 016A
ENCODING 362
SWIDTH 468 0
DWIDTH 13 0
BBX 14 22 2 0
BITMAP
07F8
07F8
07F8
0000
0000
1C3C
3C3C
3C38
3838
3878
7878
7870
7070
7070
F0F0
F0E0
E0E0
E1E0
E1E0
FFC0
FF80
7F00
ENDCHAR
STARTCHAR 016B
ENCODING 363
SWIDTH 468 0
DWIDTH 13 0
BBX 12 18 2 0
BITMAP
0FF0
0FF0
0000
0000
0000
3870
3870
7870
78F0
70E0
70E0
F0E0
F1E0
F1E0
F1C0
FFE0
7FE0
7EE0
ENDCHAR
STARTCHAR 016C
ENCODING 364
SWIDTH 468 0
DWIDTH 13 0
BBX 14 23 2 0
BITMAP
031C
0338
03F8
01F0
0000
0000
1C3C
3C3C
3C38
3838
3878
7878
7870
7070
7070
F0F0
F0E0
E0E0
E1E0
E1E0
FFC0
FF80
7F00
ENDCHAR
STARTCHAR 016D
ENCODING 365
SWIDTH 468 0
DWIDTH 13 0
BBX 12 19 2 0
BITMAP
0E30
0670
07E0
03C0
0000
0000
3870
3870
7870
78F0
70E0
70E0
F0E0
F1E0
F1E0
F1C0
FFE0
7FE0
7EE0
ENDCHAR
STARTCHAR 016E
ENCODING 366
SWIDTH 468 0
DWIDTH 13 0
BBX 14 23 2 0
BITMAP
01C0
03E0
0320
0320
03E0
01C0
1C3C
3C3C
3C38
3838
3878
7878
7870
7070
7070
F0F0
F0F0
E0E0
E1E0
E1E0
FFC0
FF80
7F00
ENDCHAR
STARTCHAR 016F
ENCODING 367
SWIDTH 468 0
DWIDTH 13 0
BBX 12 20 2 0
BITMAP
03C0
03E0
0620
0360
03E0
0080
0000
3870
3870
7870
78F0
70E0
70E0
F0E0
F1E0
F1E0
F1C0
FFE0
7FE0
7EE0
ENDCHAR
STARTCHAR 0170
ENCODING 368
SWIDTH 468 0
DWIDTH 13 0
BBX 14 23 2 0
BITMAP
0104
039C
07BC
0E78
0420
0000
1C3C
3C3C
3C38
3838
3878
7878
7870
7070
7070
F0F0
F0E0
E0E0
E1E0
E1E0
FFC0
FF80
7F00
ENDCHAR
STARTCHAR 0171
ENCODING 369
SWIDTH 468 0
DWIDTH 13 0
BBX 14 19 2 0
BITMAP
0308
071C
0F78
1C70
0800
0000
3870
3870
7870
78F0
70E0
70E0
F0E0
F1E0
F1E0
F1C0
FFE0
7FE0
7EE0
ENDCHAR
STARTCHAR 0172
ENCODING 370
SWIDTH 468 0
DWIDTH 13 0
BBX 14 22 2 -5
BITMAP
1C3C
3C3C
3C38
3838
3878
7878
7870
7070
7070
F0F0
F0E0
E0E0
E1E0
E1E0
FFC0
FF80
7F00
0E00
1C00
3800
3E00
1C00
ENDCHAR
STARTCHAR 0173
ENCODING 371
SWIDTH 468 0
DWIDTH 13 0
BBX 12 18 2 -5
BITMAP
3870
3870
7870
78F0
70E0
70E0
F0E0
F1E0
F1E0
F1C0
FFE0
7FE0
7EE0
01C0
0380
0700
07C0
0180
ENDCHAR
STARTCHAR 0174
ENCODING 372
SWIDTH 468 0
DWIDTH 13 0
BBX 16 23 1 0
BITMAP
0020
0070
00F8
03DC
0108
0000
1C07
1C0E
1C0E
3C0E
380E
381C
399C
3B9C
779C
7798
7FB8
7CF8
7CF0
78F0
F8F0
F0E0
F0E0
ENDCHAR
STARTCHAR 0175
ENCODING 373
SWIDTH 468 0
DWIDTH 13 0
BBX 14 19 2 0
BITMAP
0080
01C0
07E0
0770
0420
0000
701C
701C
E038
E738
E738
EF30
EF70
DF60
DB60
FBE0
F3C0
E3C0
E380
ENDCHAR
STARTCHAR 0176
ENCODING 374
SWIDTH 468 0
DWIDTH 13 0
BBX 13 23 4 0
BITMAP
0180
0380
07C0
0EE0
0C40
0000
E078
E0F0
F0F0
71E0
71C0
73C0
7780
7F00
3E00
3C00
3C00
3C00
3800
3800
7800
7800
7000
ENDCHAR
STARTCHAR 0177
ENCODING 375
SWIDTH 468 0
DWIDTH 13 0
BBX 16 24 -1 -5
BITMAP
0010
0038
00FC
00EE
0084
0000
0F0F
0F0F
0F0E
0F1E
0F1C
071C
0738
0738
0770
07F0
03E0
03E0
03C0
0780
0F00
FE00
FC00
7000
ENDCHAR
STARTCHAR 0178
ENCODING 376
SWIDTH 468 0
DWIDTH 13 0
BBX 13 23 4 0
BITMAP
0820
1CF0
1CF0
1CE0
0000
0000
E078
E0F0
F0F0
71E0
71C0
73C0
7780
7F00
3E00
3C00
3C00
3C00
3800
3800
7800
7800
7000
ENDCHAR
STARTCHAR 0179
ENCODING 377
SWIDTH 468 0
DWIDTH 13 0
BBX 15 23 1 0
BITMAP
0010
0038
007C
00F0
0040
0000
0FFE
0FFC
1FFC
0038
0078
00F0
01E0
03C0
0780
0F00
0E00
1E00
3C00
7800
FFF0
FFE0
FFE0
ENDCHAR
STARTCHAR 017A
ENCODING 378
SWIDTH 468 0
DWIDTH 13 0
BBX 14 19 1 0
BITMAP
0030
0070
01F8
01E0
0080
0000
0FFC
1FF8
1FF8
00F0
01E0
03C0
0780
0F00
1E00
3C00
7FE0
7FE0
FFE0
ENDCHAR
STARTCHAR 017B
ENCODING 379
SWIDTH 468 0
DWIDTH 13 0
BBX 15 23 1 0
BITMAP
0020
00F0
00F0
00F0
0000
0000
0FFE
0FFC
1FFC
0038
0078
00F0
01E0
03C0
0780
0F00
0E00
1E00
3C00
7800
FFF0
FFE0
FFE0
ENDCHAR
STARTCHAR 017C
ENCODING 380
SWIDTH 468 0
DWIDTH 13 0
BBX 14 19 1 0
BITMAP
0060
00F0
00F0
00E0
0000
0000
0FFC
1FF8
1FF8
00F0
01E0
03C0
0780
0F00
1E00
3C00
7FE0
7FE0
FFE0
ENDCHAR
STARTCHAR 017D
ENCODING 381
SWIDTH 468 0
DWIDTH 13 0
BBX 15 23 1 0
BITMAP
0188
01FC
01F8
00E0
0040
0000
0FFE
0FFC
1FFC
0038
0078
00F0
01E0
03C0
0780
0F00
0E00
1E00
3C00
7800
FFF0
FFE0
FFE0
ENDCHAR
STARTCHAR 017E
ENCODING 382
SWIDTH 468 0
DWIDTH 13 0
BBX 14 19 1 0
BITMAP
0118
03B8
01F0
00E0
0000
0000
0FFC
1FF8
1FF8
00F0
01E0
03C0
0780
0F00
1E00
3C00
7FE0
7FE0
FFE0
ENDCHAR
STARTCHAR 017F
ENCODING 383
SWIDTH 468 0
DWIDTH 13 0
BBX 18 24 -1 -5
BITMAP
001FC0
003F80
007F80
00F000
00E000
00E000
00E000
01E000
01E000
01C000
01C000
01C000
03C000
03C000
038000
038000
038000
078000
078000
070000
5F0000
7E0000
FC0000
700000
ENDCHAR
STARTCHAR 0180
ENCODING 384
SWIDTH 468 0
DWIDTH 13 0
BBX 12 19 2 0
BITMAP
0E00
0E00
3FC0
3FC0
1C00
1C00
3FE0
3FE0
3FF0
3870
7870
7870
7070
70F0
F0F0
F1E0
FFC0
FF80
FF00
ENDCHAR
STARTCHAR 0181
ENCODING 385
SWIDTH 468 0
DWIDTH 13 0
BBX 13 17 2 0
BITMAP
1FF0
3FF8
7738
6738
E738
0E38
0E70
0FE0
0FE0
1CF0
1C70
1C70
1C70
3870
3DE0
3FE0
3F80
ENDCHAR
STARTCHAR 0182
ENCODING 386
SWIDTH 468 0
DWIDTH 13 0
BBX 14 17 1 0
BITMAP
0FFC
0FF8
1FF8
1C00
1C00
1C00
3FC0
3FF0
3FF0
3878
7878
7878
7070
70F0
FFE0
FFC0
FF80
ENDCHAR
STARTCHAR 0183
ENCODING 387
SWIDTH 468 0
DWIDTH 13 0
BBX 14 19 1 0
BITMAP
0FFC
0FFC
0FFC
0E00
1E00
1E00
1FE0
1FF0
3FF8
3C78
3C38
3838
3878
7878
7870
70F0
7FE0
FFC0
FF80
ENDCHAR
STARTCHAR 0184
ENCODING 388
SWIDTH 468 0
DWIDTH 13 0
BBX 13 19 1 0
BITMAP
0300
1F00
1F00
1E00
0E00
1E00
1FF0
1FF0
1FF8
3C38
3C38
3838
3838
3878
7870
70F0
7FE0
7FC0
FF80
ENDCHAR
STARTCHAR 0185
ENCODING 389
SWIDTH 468 0
DWIDTH 13 0
BBX 12 17 2 0
BITMAP
0E00
3E00
3E00
3C00
1C00
3C00
3FC0
3FE0
3FF0
78F0
7870
7070
70F0
71E0
FFE0
FFC0
FF00
ENDCHAR
STARTCHAR 0186
ENCODING 390
SWIDTH 468 0
DWIDTH 13 0
BBX 13 18 1 0
BITMAP
0380
1FE0
1FF0
1DF0
0078
0038
0038
0038
0038
0038
0078
0078
0070
00F0
01E0
FFE0
FFC0
7F00
ENDCHAR
STARTCHAR 0187
ENCODING 391
SWIDTH 468 0
DWIDTH 13 0
BBX 16 19 2 1
BITMAP
000F
00DF
07FC
0FF8
1F70
3C00
3800
7800
7000
7000
F000
F000
F000
F000
F000
F000
7FC0
7FC0
3F80
ENDCHAR
STARTCHAR 0188
ENCODING 392
SWIDTH 468 0
DWIDTH 13 0
BBX 15 16 2 0
BITMAP
000C
003E
007C
0FF0
1FE0
3FC0
7800
7000
F000
F000
E000
F000
F000
FF80
7F80
3F80
ENDCHAR
STARTCHAR 0189
ENCODING 393
SWIDTH 468 0
DWIDTH 13 0
BBX 14 17 1 0
BITMAP
0FE0
0FF0
0FF8
0E38
1E3C
1C3C
1C3C
7F3C
7E38
7E38
3878
3878
78F0
79F0
7FE0
7FC0
FF00
ENDCHAR
STARTCHAR 018A
ENCODING 394
SWIDTH 468 0
DWIDTH 13 0
BBX 13 17 2 0
BITMAP
1FE0
3FF0
7778
6738
E738
0E38
0E38
0E38
0E38
1C38
1C78
1C70
1C70
38E0
3BC0
3FC0
3F00
ENDCHAR
STARTCHAR 018B
ENCODING 395
SWIDTH 468 0
DWIDTH 13 0
BBX 14 17 2 0
BITMAP
0FFC
0FFC
1FF8
0038
0038
0078
0FF8
3FF0
7FF0
F8F0
F0F0
E0E0
E0E0
F1E0
FFE0
7FC0
3FC0
ENDCHAR
STARTCHAR 018C
ENCODING 396
SWIDTH 468 0
DWIDTH 13 0
BBX 14 19 2 0
BITMAP
0FFC
0FFC
0FFC
0038
0038
0078
0FF8
1FF0
3FF0
78F0
70F0
F0E0
E0E0
E1E0
E1E0
E1E0
FFE0
FFE0
7EE0
ENDCHAR
STARTCHAR 018D
ENCODING 397
SWIDTH 468 0
DWIDTH 13 0
BBX 13 18 1 -5
BITMAP
07F0
1FF8
3FF8
3C38
7838
7838
7878
7870
78F0
3FE0
1FC0
0F80
0780
03C0
03C0
FF80
FF00
1C00
ENDCHAR
STARTCHAR 018E
ENCODING 398
SWIDTH 468 0
DWIDTH 13 0
BBX 15 17 1 0
BITMAP
0FFE
0FFC
0FFC
003C
003C
0038
0FF8
1FF8
1FF8
0070
0070
00F0
00F0
00E0
FFE0
FFE0
FFE0
ENDCHAR
STARTCHAR 018F
ENCODING 399
SWIDTH 468 0
DWIDTH 13 0
BBX 13 18 2 0
BITMAP
0200
3FE0
1FF0
19F0
0078
0038
0038
0038
FFF8
FFF8
FFF8
E070
E0F0
E0F0
E1E0
FFC0
7F80
3F00
ENDCHAR
STARTCHAR 0190
ENCODING 400
SWIDTH 468 0
DWIDTH 13 0
BBX 14 18 2 0
BITMAP
0040
07FC
0FFC
1F18
1C00
3C00
1C00
1FE0
0FE0
1FC0
7E00
7000
F000
E000
F000
FFE0
7FE0
3FE0
ENDCHAR
STARTCHAR 0191
ENCODING 401
SWIDTH 468 0
DWIDTH 13 0
BBX 18 22 -2 -5
BITMAP
00FFC0
01FFC0
01FFC0
01C000
01C000
03C000
03C000
03FF00
03FE00
07FE00
078000
070000
070000
0F0000
0F0000
0E0000
0E0000
1E0000
3E0000
FC0000
F80000
700000
ENDCHAR
STARTCHAR 0192
ENCODING 402
SWIDTH 468 0
DWIDTH 13 0
BBX 17 24 -1 -5
BITMAP
001F80
003F80
007F80
00F000
00E000
00E000
07FF00
07FF00
0FFE00
01C000
01C000
01C000
03C000
03C000
038000
038000
038000
078000
078000
070000
5F0000
7E0000
FC0000
700000
ENDCHAR
STARTCHAR 0193
ENCODING 403
SWIDTH 468 0
DWIDTH 13 0
BBX 16 19 2 1
BITMAP
000F
00DE
07FC
0FF8
1F70
3C00
3800
7800
7000
7000
F070
F070
F0F0
F0E0
F0E0
F0E0
7FE0
7FE0
3FC0
ENDCHAR
STARTCHAR 0194
ENCODING 404
SWIDTH 468 0
DWIDTH 13 0
BBX 14 22 3 -5
BITMAP
701C
7038
7078
7870
38E0
39E0
39C0
3B80
3F80
1F00
1E00
1E00
1C00
3E00
7E00
7600
E600
C600
EE00
FE00
FC00
1000
ENDCHAR
STARTCHAR 0195
ENCODING 405
SWIDTH 468 0
DWIDTH 13 0
BBX 16 19 0 0
BITMAP
0600
0600
0E00
0E00
0E00
0C00
1FC7
1FC7
1DC6
19CE
39CE
39CE
398C
319C
739C
739C
73B8
63F8
E1F0
ENDCHAR
STARTCHAR 0196
ENCODING 406
SWIDTH 468 0
DWIDTH 13 0
BBX 11 17 4 0
BITMAP
7FE0
FFE0
FFE0
1E00
1C00
1C00
3C00
3C00
3800
3800
7800
7800
7000
7000
7F80
7F80
3F80
ENDCHAR
STARTCHAR 0197
ENCODING 407
SWIDTH 468 0
DWIDTH 13 0
BBX 15 17 1 0
BITMAP
0FFE
0FFE
1FFC
01C0
01C0
03C0
03C0
1FF0
1FF0
0380
0780
0700
0700
0700
7FE0
FFE0
FFE0
ENDCHAR
STARTCHAR 0198
ENCODING 408
SWIDTH 468 0
DWIDTH 13 0
BBX 16 17 1 1
BITMAP
0E1F
0E3F
1E7E
1E70
1CE0
1DE0
3FC0
3F80
3F80
3B80
7BC0
79C0
71E0
70E0
F0F0
F0F0
E070
ENDCHAR
STARTCHAR 0199
ENCODING 409
SWIDTH 468 0
DWIDTH 13 0
BBX 13 19 2 0
BITMAP
07C0
0FC0
0F80
1E00
1C00
1C00
1C78
3CF0
39E0
3BC0
3F80
7F00
7F00
7780
7380
F3C0
F1C0
E1E0
E1E0
ENDCHAR
STARTCHAR 019A
ENCODING 410
SWIDTH 468 0
DWIDTH 13 0
BBX 11 19 3 0
BITMAP
3F80
3F80
7F00
0700
0700
0F00
0E00
0E00
FFE0
FFC0
1E00
1C00
1C00
3C00
3C00
3C00
3FC0
3FC0
1FC0
ENDCHAR
STARTCHAR 019B
ENCODING 411
SWIDTH 468 0
DWIDTH 13 0
BBX 14 19 4 0
BITMAP
0F80
0FC4
0FFC
01F8
0FE0
0EE0
01E0
03E0
03E0
07F0
0FF0
0EF0
1EF0
1C70
3C70
7870
7870
7070
F070
ENDCHAR
STARTCHAR 019C
ENCODING 412
SWIDTH 468 0
DWIDTH 13 0
BBX 16 17 1 0
BITMAP
1C07
1C06
180E
380E
380E
380C
319C
739C
739C
7398
6338
E738
E738
E730
FFF0
FFF0
7BF0
ENDCHAR
STARTCHAR 019D
ENCODING 413
SWIDTH 468 0
DWIDTH 13 0
BBX 19 22 -3 -5
BITMAP
00E0E0
00E0E0
01F0E0
01F1C0
01F1C0
01F1C0
03B9C0
039B80
039B80
039B80
071F80
071F00
070F00
070F00
070F00
0E0F00
0E0E00
0E0000
1C0000
7C0000
F80000
600000
ENDCHAR
STARTCHAR 019E
ENCODING 414
SWIDTH 468 0
DWIDTH 13 0
BBX 13 18 1 -5
BITMAP
1FE0
1FF0
1FF8
3C78
3C78
3878
3870
3870
78F0
70F0
70E0
70E0
F1E0
01E0
01C0
01C0
03C0
03C0
ENDCHAR
STARTCHAR 019F
ENCODING 415
SWIDTH 468 0
DWIDTH 13 0
BBX 13 18 2 0
BITMAP
0180
07E0
1FF0
1EF8
3C78
7838
7838
7038
FFF8
FFF8
FFF0
E070
E0F0
E0E0
F1E0
FFC0
7F80
3F00
ENDCHAR
STARTCHAR 01A0
ENCODING 416
SWIDTH 468 0
DWIDTH 13 0
BBX 15 20 2 0
BITMAP
000E
001C
011C
0FFC
1FF8
3EF0
3C70
7870
7070
7070
F070
F070
E0F0
E0F0
E0E0
E1E0
F1C0
FFC0
7F80
3F00
ENDCHAR
STARTCHAR 01A1
ENCODING 417
SWIDTH 468 0
DWIDTH 13 0
BBX 14 16 2 0
BITMAP
001C
001C
001C
0FF8
3FF0
3FE0
78E0
70F0
F0E0
E0E0
E0E0
E1E0
E1C0
FFC0
FF80
7F00
ENDCHAR
STARTCHAR 01A2
ENCODING 418
SWIDTH 468 0
DWIDTH 13 0
BBX 15 18 1 0
BITMAP
0100
07FC
0FFC
1DCE
19CE
39CC
31CC
31DC
71DC
719C
6198
63B8
63B8
E338
E730
6E70
7E70
7C70
ENDCHAR
STARTCHAR 01A3
ENCODING 419
SWIDTH 468 0
DWIDTH 13 0
BBX 14 18 1 -5
BITMAP
0FF8
1FFC
3B9C
319C
719C
6198
6198
63B8
E338
E738
E730
7E70
7C70
0070
0060
00E0
00E0
00E0
ENDCHAR
STARTCHAR 01A4
ENCODING 420
SWIDTH 468 0
DWIDTH 13 0
BBX 13 17 3 0
BITMAP
3FE0
7FF0
EE70
CE38
CE38
0E78
1C70
1C70
1FE0
1FC0
3F80
3800
3800
3800
7000
7000
7000
ENDCHAR
STARTCHAR 01A5
ENCODING 421
SWIDTH 468 0
DWIDTH 13 0
BBX 14 24 0 -5
BITMAP
01F0
03E0
07E0
0700
0700
0F00
0FF0
0FF8
0FFC
1E3C
1E1C
1C1C
1C3C
3C3C
3C78
38F8
3FF0
7FE0
7FC0
7000
7000
F000
F000
E000
ENDCHAR
STARTCHAR 01A6
ENCODING 422
SWIDTH 468 0
DWIDTH 13 0
BBX 14 22 1 -3
BITMAP
0F00
0F00
0FF0
0FF8
1EFC
1E3C
1C3C
1C3C
3C38
3CF8
3FF0
3FE0
7FC0
79C0
71E0
70E0
70E0
F0F0
E070
0070
0070
0078
ENDCHAR
STARTCHAR 01A7
ENCODING 423
SWIDTH 468 0
DWIDTH 13 0
BBX 13 18 2 0
BITMAP
00C0
1FF0
1FF8
1C78
0038
0038
0078
01F0
0FE0
3FC0
7E00
F800
F000
E000
E000
FFE0
FFE0
3FE0
ENDCHAR
STARTCHAR 01A8
ENCODING 424
SWIDTH 468 0
DWIDTH 13 0
BBX 12 13 2 0
BITMAP
3FE0
3FE0
19F0
00F0
01E0
07E0
3FC0
7E00
F000
E000
FBC0
FFC0
7FC0
ENDCHAR
STARTCHAR 01A9
ENCODING 425
SWIDTH 468 0
DWIDTH 13 0
BBX 15 17 1 0
BITMAP
0FFE
1FFE
0FFE
0F00
0700
0780
0380
01C0
01E0
03C0
0780
1E00
3C00
7800
FFF0
FFF0
FFF0
ENDCHAR
STARTCHAR 01AA
ENCODING 426
SWIDTH 468 0
DWIDTH 13 0
BBX 9 24 4 -5
BITMAP
3F00
7F80
E380
E380
E780
FF80
FF00
7F00
0700
0F00
0F00
0E00
0E00
1E00
1E00
1C00
1C00
3C00
3C00
3800
3C00
3F00
1F00
0700
ENDCHAR
STARTCHAR 01AB
ENCODING 427
SWIDTH 468 0
DWIDTH 13 0
BBX 12 22 3 -5
BITMAP
0700
0E00
0E00
1E00
FFF0
FFF0
FFE0
3C00
3C00
3800
3800
3800
7800
7800
7FC0
3FC0
1FC0
01C0
0380
1F80
1F00
1C00
ENDCHAR
STARTCHAR 01AC
ENCODING 428
SWIDTH 468 0
DWIDTH 13 0
BBX 14 17 3 0
BITMAP
3FFC
7FFC
FFF8
E780
C780
0700
0700
0F00
0F00
0E00
0E00
1E00
1E00
1C00
1C00
3C00
3C00
ENDCHAR
STARTCHAR 01AD
ENCODING 429
SWIDTH 468 0
DWIDTH 13 0
BBX 13 19 3 0
BITMAP
01F8
07F8
07F8
0F00
0E00
1E00
FFF0
FFF0
FFE0
3C00
3C00
3800
3800
3800
7800
7800
7FC0
3FC0
1FC0
ENDCHAR
STARTCHAR 01AE
ENCODING 430
SWIDTH 468 0
DWIDTH 13 0
BBX 13 22 4 -5
BITMAP
FFF8
FFF0
FFF0
0E00
0E00
1E00
1E00
1C00
1C00
3C00
3C00
3800
3800
7800
7800
7000
7000
7000
7800
7C00
7C00
1800
ENDCHAR
STARTCHAR 01AF
ENCODING 431
SWIDTH 468 0
DWIDTH 13 0
BBX 16 20 2 0
BITMAP
0003
0007
0007
1C3E
3C78
3870
3870
3870
78F0
70E0
70E0
70E0
F1E0
E1C0
E1C0
E1C0
E3C0
F780
FF80
7E00
ENDCHAR
STARTCHAR 01B0
ENCODING 432
SWIDTH 468 0
DWIDTH 13 0
BBX 15 16 2 0
BITMAP
000E
000E
001C
78FC
70F0
70E0
71E0
71C0
E1C0
E1C0
E3C0
E380
E380
FF80
FFC0
7DC0
ENDCHAR
STARTCHAR 01B1
ENCODING 433
SWIDTH 468 0
DWIDTH 13 0
BBX 15 17 2 0
BITMAP
3F7E
3E7E
7E7C
1C70
3878
3838
7038
7038
F038
E078
E070
E070
E0F0
E1E0
FFE0
7FC0
3F00
ENDCHAR
STARTCHAR 01B2
ENCODING 434
SWIDTH 468 0
DWIDTH 13 0
BBX 13 17 2 0
BITMAP
1CF0
3CF8
3CF8
3838
3838
7838
7838
7078
7078
7070
F070
E0F0
E0E0
E1E0
FFC0
FF80
7F00
ENDCHAR
STARTCHAR 01B3
ENCODING 435
SWIDTH 468 0
DWIDTH 13 0
BBX 13 17 4 1
BITMAP
E078
E0F8
E1F0
E1C0
F380
7700
7700
7E00
7E00
3C00
3800
3800
7800
7800
7000
7000
F000
ENDCHAR
STARTCHAR 01B4
ENCODING 436
SWIDTH 468 0
DWIDTH 13 0
BBX 17 18 -1 -5
BITMAP
0F0F80
0F0F80
0F1F00
0F1C00
0F3800
073800
077000
077000
07F000
07E000
07E000
03C000
03C000
078000
0F0000
7E0000
FC0000
700000
ENDCHAR
STARTCHAR 01B5
ENCODING 437
SWIDTH 468 0
DWIDTH 13 0
BBX 15 17 1 0
BITMAP
0FFE
0FFC
1FFC
0038
0070
00F0
01E0
3FF8
3FF8
3FF8
0E00
1C00
3C00
7800
7FF0
FFE0
FFE0
ENDCHAR
STARTCHAR 01B6
ENCODING 438
SWIDTH 468 0
DWIDTH 13 0
BBX 14 13 1 0
BITMAP
0FFC
1FF8
1FF8
00F0
01E0
1FF0
1FF0
3FF0
1E00
3C00
7FE0
7FE0
FFE0
ENDCHAR
STARTCHAR 01B7
ENCODING 439
SWIDTH 468 0
DWIDTH 13 0
BBX 15 17 1 0
BITMAP
0FFE
0FFC
0FFC
0078
00F0
01E0
03C0
07E0
07F0
00F0
0078
0078
0070
40F0
7BF0
FFE0
7F80
ENDCHAR
STARTCHAR 01B8
ENCODING 440
SWIDTH 468 0
DWIDTH 13 0
BBX 14 17 2 0
BITMAP
0FFC
1FFC
0FFC
0F00
0700
0780
0380
0FC0
3FC0
7C00
7000
F000
F000
F000
7DE0
7FE0
3FE0
ENDCHAR
STARTCHAR 01B9
ENCODING 441
SWIDTH 468 0
DWIDTH 13 0
BBX 14 18 1 -5
BITMAP
0FFC
0FFC
0FFC
0700
0700
0380
03C0
07C0
1FC0
3E00
7800
7000
F000
7000
7C60
7FE0
3FE0
0200
ENDCHAR
STARTCHAR 01BA
ENCODING 442
SWIDTH 468 0
DWIDTH 13 0
BBX 14 18 0 -5
BITMAP
0FFC
0FFC
0FFC
0070
01E0
03C0
07C0
07F0
0070
0070
0070
03F0
1FE0
7FC0
FC00
E000
E000
8000
ENDCHAR
STARTCHAR 01BB
ENCODING 443
SWIDTH 468 0
DWIDTH 13 0
BBX 14 18 1 0
BITMAP
0040
07F8
0FF8
0F7C
003C
003C
0038
0078
1FFC
1FF8
1FF8
0F00
1E00
3C00
7800
7FF0
7FF0
FFE0
ENDCHAR
STARTCHAR 01BC
ENCODING 444
SWIDTH 468 0
DWIDTH 13 0
BBX 14 17 2 0
BITMAP
1FFC
3FF8
3FF8
0E00
0E00
1C00
1E00
1FC0
0FE0
01E0
00F0
00F0
00F0
01E0
F7E0
FFC0
FF80
ENDCHAR
STARTCHAR 01BD
ENCODING 445
SWIDTH 468 0
DWIDTH 13 0
BBX 12 13 2 0
BITMAP
3FF0
3FF0
3FF0
1C00
1C00
1F80
3FC0
01E0
01E0
01E0
77C0
FFC0
FF80
ENDCHAR
STARTCHAR 01BE
ENCODING 446
SWIDTH 468 0
DWIDTH 13 0
BBX 13 17 2 0
BITMAP
0380
0700
0700
0F00
3FF8
7FF0
7FF0
1E00
1E00
1F80
0FC0
03E0
00E0
00E0
7FE0
FFC0
7F80
ENDCHAR
STARTCHAR 01BF
ENCODING 447
SWIDTH 468 0
DWIDTH 13 0
BBX 14 18 0 -5
BITMAP
0FF0
0FF8
1FFC
1E3C
1E3C
1C3C
3C3C
3C38
3C78
38F0
3BF0
7FC0
7F80
7E00
7000
F000
F000
F000
ENDCHAR
STARTCHAR 01C0
ENCODING 448
SWIDTH 468 0
DWIDTH 13 0
BBX 9 24 3 -5
BITMAP
0380
0380
0380
0780
0780
0700
0700
0F00
0F00
0E00
0E00
1E00
1E00
1C00
1C00
3C00
3C00
3800
3800
7800
7800
7000
7000
F000
ENDCHAR
STARTCHAR 01C1
ENCODING 449
SWIDTH 468 0
DWIDTH 13 0
BBX 14 24 1 -5
BITMAP
079C
079C
073C
073C
0F38
0F38
0E78
0E78
1E70
1E70
1CF0
1CF0
1CE0
3CE0
3CE0
39E0
39C0
79C0
79C0
73C0
73C0
F380
F380
E780
ENDCHAR
STARTCHAR 01C2
ENCODING 450
SWIDTH 468 0
DWIDTH 13 0
BBX 14 24 1 -5
BITMAP
00F0
00E0
00E0
01E0
01E0
01C0
01C0
03C0
3FFC
7FFC
0380
0780
0780
FFF8
FFF8
0700
0F00
0F00
0E00
0E00
1E00
1E00
1C00
1C00
ENDCHAR
STARTCHAR 01C3
ENCODING 451
SWIDTH 468 0
DWIDTH 13 0
BBX 7 17 5 0
BITMAP
1E
1E
1E
1C
3C
3C
3C
38
38
78
70
00
00
F0
F0
F0
E0
ENDCHAR
STARTCHAR 01C4
ENCODING 452
SWIDTH 468 0
DWIDTH 13 0
BBX 19 22 0 1
BITMAP
000660
0007C0
000380
000000
000000
0F8F80
0FCF80
0CC380
1CC300
1CC700
18C600
18CE00
38CC00
39DC00
31D800
31B800
73B000
737000
676000
6EFC00
7CFC00
F8F800
ENDCHAR
STARTCHAR 01C5
ENCODING 453
SWIDTH 468 0
DWIDTH 13 0
BBX 17 18 0 0
BITMAP
000C80
0F8780
0FC700
0CC000
1CC000
1CDF80
18DF00
18DF00
38C600
39CE00
31CC00
319800
739800
733000
677000
6E7C00
7CFC00
F8FC00
ENDCHAR
STARTCHAR 01C6
ENCODING 454
SWIDTH 468 0
DWIDTH 13 0
BBX 17 19 1 0
BITMAP
00C000
00D980
01CF00
018600
018000
018000
1FBF00
3FBE00
373E00
730C00
671C00
E71800
E63000
C63000
CE6000
CEE000
ECF800
FDF800
7DF800
ENDCHAR
STARTCHAR 01C7
ENCODING 455
SWIDTH 468 0
DWIDTH 13 0
BBX 17 17 0 0
BITMAP
0C0380
0C0300
1C0300
1C0300
180700
180700
380600
380600
300E00
300E00
700C00
700C00
601C00
601C00
603800
FEF800
FEF000
ENDCHAR
STARTCHAR 01C8
ENCODING 456
SWIDTH 468 0
DWIDTH 13 0
BBX 17 23 0 -5
BITMAP
000700
0E0780
0E0700
0C0000
0C0000
1C0600
1C0E00
180E00
180C00
380C00
381C00
301C00
301800
701800
703800
603800
7F3000
FF3000
007000
006000
07E000
07C000
030000
ENDCHAR
STARTCHAR 01C9
ENCODING 457
SWIDTH 468 0
DWIDTH 13 0
BBX 15 24 2 -5
BITMAP
0C00
0C0E
1C1E
1C1C
1800
1800
3818
3818
3038
3038
7030
7030
6070
6070
6060
E060
F0E0
F8E0
78C0
00C0
01C0
0F80
1F80
0C00
ENDCHAR
STARTCHAR 01CA
ENCODING 458
SWIDTH 468 0
DWIDTH 13 0
BBX 17 17 0 0
BITMAP
0C6380
0CE300
1CE300
1CC300
1CC700
1DC700
3DC600
3D8600
358E00
378E00
778C00
770C00
671C00
671C00
673800
E6F800
C6F000
ENDCHAR
STARTCHAR 01CB
ENCODING 459
SWIDTH 468 0
DWIDTH 13 0
BBX 17 23 0 -5
BITMAP
000780
0C6780
0C6700
0CE000
1CE000
1CC600
1CCE00
1DCE00
3FCC00
3F8C00
379C00
379C00
779800
771800
673800
673800
673000
E63000
007000
007000
07E000
07C000
030000
ENDCHAR
STARTCHAR 01CC
ENCODING 460
SWIDTH 468 0
DWIDTH 13 0
BBX 17 23 0 -5
BITMAP
000380
000780
000780
000000
000000
1FC700
1FC600
18C600
38CE00
38CE00
30CC00
31CC00
719C00
719C00
619800
639800
E3B800
E33800
003000
007000
03F000
07E000
030000
ENDCHAR
STARTCHAR 01CD
ENCODING 461
SWIDTH 468 0
DWIDTH 13 0
BBX 15 23 0 0
BITMAP
00C4
00EE
00FC
0070
0020
0000
00F0
00F0
01F8
03F8
03B8
07B8
0738
0F38
0E38
1E38
1FF8
3FF8
3FF8
7838
7038
F038
F038
ENDCHAR
STARTCHAR 01CE
ENCODING 462
SWIDTH 468 0
DWIDTH 13 0
BBX 13 19 2 0
BITMAP
0310
03F8
01E0
01C0
0080
0000
0FF0
1FF0
3FF0
78F0
70F0
F0E0
E0E0
E1E0
E1E0
E1E0
FFE0
FFE0
7EE0
ENDCHAR
STARTCHAR 01CF
ENCODING 463
SWIDTH 468 0
DWIDTH 13 0
BBX 15 23 1 0
BITMAP
0188
01DC
00F8
00F0
0040
0000
0FFE
0FFE
1FFC
01C0
01C0
03C0
03C0
0380
0380
0380
0780
0700
0700
0700
7FE0
FFE0
FFE0
ENDCHAR
STARTCHAR 01D0
ENCODING 464
SWIDTH 468 0
DWIDTH 13 0
BBX 10 19 3 0
BITMAP
08C0
1DC0
0F80
0700
0000
0000
7F00
FE00
FE00
0E00
1E00
1E00
1C00
1C00
3C00
3C00
3FC0
1FC0
1FC0
ENDCHAR
STARTCHAR 01D1
ENCODING 465
SWIDTH 468 0
DWIDTH 13 0
BBX 13 23 2 0
BITMAP
0118
03B8
01F0
00E0
0040
0180
07E0
1FF0
1EF8
3C78
7838
7038
7078
F078
F078
E070
E070
E0F0
E0E0
F1E0
FFC0
7F80
3F00
ENDCHAR
STARTCHAR 01D2
ENCODING 466
SWIDTH 468 0
DWIDTH 13 0
BBX 12 19 2 0
BITMAP
0230
0770
03E0
01C0
0000
0000
0FC0
1FE0
3FF0
78F0
7070
F070
E0F0
E0F0
E0E0
F1E0
FFC0
7F80
7F00
ENDCHAR
STARTCHAR 01D3
ENCODING 467
SWIDTH 468 0
DWIDTH 13 0
BBX 14 23 2 0
BITMAP
0310
03B8
01F0
01E0
0080
0000
1C3C
3C3C
3C38
3838
3878
7878
7870
7070
7070
F0F0
F0E0
E0E0
E1E0
E1E0
FFC0
FF80
7F00
ENDCHAR
STARTCHAR 01D4
ENCODING 468
SWIDTH 468 0
DWIDTH 13 0
BBX 12 19 2 0
BITMAP
0630
0770
03E0
0180
0100
0000
3870
3870
7870
78F0
70E0
70E0
F0E0
F1E0
F1E0
F1C0
FFE0
7FE0
7EE0
ENDCHAR
STARTCHAR 01D5
ENCODING 469
SWIDTH 468 0
DWIDTH 13 0
BBX 14 23 2 0
BITMAP
03F8
03F8
0000
0738
0738
0230
0000
3C3C
3C38
3838
3838
7878
7870
7070
7070
F0F0
F0F0
E0E0
E1E0
E1E0
FFC0
FF80
7F00
ENDCHAR
STARTCHAR 01D6
ENCODING 470
SWIDTH 468 0
DWIDTH 13 0
BBX 12 20 2 0
BITMAP
07F0
07F0
0420
0E70
0E70
0000
0000
3870
3870
7870
78F0
70E0
70E0
F0E0
F1E0
F1E0
F1C0
FFE0
7FE0
7EE0
ENDCHAR
STARTCHAR 01D7
ENCODING 471
SWIDTH 468 0
DWIDTH 13 0
BBX 14 23 2 0
BITMAP
0040
00E0
0ED8
0E9C
0E18
0000
1C3C
3C3C
3C38
3838
3878
7878
7870
7070
7070
F0F0
F0F0
E0E0
E1E0
E1E0
FFC0
FF80
7F00
ENDCHAR
STARTCHAR 01D8
ENCODING 472
SWIDTH 468 0
DWIDTH 13 0
BBX 13 22 2 0
BITMAP
0040
0070
00E0
01C0
0490
0E38
0C38
0000
0000
3870
3870
7870
78F0
70E0
70E0
F0E0
F1E0
F1E0
F1C0
FFE0
7FE0
7EE0
ENDCHAR
STARTCHAR 01D9
ENCODING 473
SWIDTH 468 0
DWIDTH 13 0
BBX 14 23 2 0
BITMAP
00A0
01E0
06DC
0E1C
0E18
0000
1C3C
3C3C
3C38
3838
3878
7878
7870
7070
7070
F0F0
F0F0
E0E0
E1E0
E1E0
FFC0
FF80
7F00
ENDCHAR
STARTCHAR 01DA
ENCODING 474
SWIDTH 468 0
DWIDTH 13 0
BBX 13 21 2 0
BITMAP
0330
03F0
01C0
0590
0E38
0C38
0000
0000
3870
3870
7870
78F0
70E0
70E0
F0E0
F1E0
F1E0
F1C0
FFE0
7FE0
7EE0
ENDCHAR
STARTCHAR 01DB
ENCODING 475
SWIDTH 468 0
DWIDTH 13 0
BBX 14 23 2 0
BITMAP
0080
01C0
06D8
0E5C
0E18
0000
1C3C
3C3C
3C38
3838
3878
7878
7870
7070
7070
F0F0
F0F0
E0E0
E1E0
E1E0
FFC0
FF80
7F00
ENDCHAR
STARTCHAR 01DC
ENCODING 476
SWIDTH 468 0
DWIDTH 13 0
BBX 13 22 2 0
BITMAP
0300
0700
0300
0380
0990
1C38
1C30
0000
0000
3870
3870
7870
78F0
70E0
70E0
F0E0
F1E0
F1E0
F1C0
FFE0
7FE0
7EE0
ENDCHAR
STARTCHAR 01DD
ENCODING 477
SWIDTH 468 0
DWIDTH 13 0
BBX 13 13 1 0
BITMAP
3FE0
1FF0
19F0
0078
0078
0FF8
3FF8
7878
7070
F0F0
FBE0
7FC0
3F80
ENDCHAR
STARTCHAR 01DE
ENCODING 478
SWIDTH 468 0
DWIDTH 13 0
BBX 15 23 0 0
BITMAP
00FE
00FC
0000
01CC
01DC
008C
0000
00F0
01F0
01F0
03B8
03B8
0738
0738
0E38
0E38
1C38
3FF8
3FF8
7FF8
7038
7038
F038
ENDCHAR
STARTCHAR 01DF
ENCODING 479
SWIDTH 468 0
DWIDTH 13 0
BBX 13 20 2 0
BITMAP
03F8
03F0
0200
0770
0770
0000
0000
0FF0
1FF0
3FF0
78F0
70F0
F0E0
E0E0
E1E0
E1E0
E1E0
FFE0
FFE0
7EE0
ENDCHAR
STARTCHAR 01E0
ENCODING 480
SWIDTH 468 0
DWIDTH 13 0
BBX 15 23 0 0
BITMAP
00FE
00FE
0000
0070
0070
0020
0000
00F0
01F0
01F0
03B8
03B8
0738
0738
0E38
0E38
1C38
3FF8
3FF8
7FF8
7038
7038
F038
ENDCHAR
STARTCHAR 01E1
ENCODING 481
SWIDTH 468 0
DWIDTH 13 0
BBX 13 20 2 0
BITMAP
03F8
03F0
0080
01C0
01C0
0000
0000
0FF0
1FF0
3FF0
78F0
70F0
F0E0
E0E0
E1E0
E1E0
E1E0
FFE0
FFE0
7EE0
ENDCHAR
STARTCHAR 01E2
ENCODING 482
SWIDTH 468 0
DWIDTH 13 0
BBX 18 22 0 0
BITMAP
003FC0
003FC0
007F80
000000
000000
00FF80
00FF00
01FF00
01B800
03B800
077000
077E00
0E7C00
0E7C00
1CE000
1FE000
3FE000
3FE000
79C000
71FC00
F1F800
E1F800
ENDCHAR
STARTCHAR 01E3
ENCODING 483
SWIDTH 468 0
DWIDTH 13 0
BBX 14 18 1 0
BITMAP
03FC
07F8
0000
0000
0000
3E78
3FFC
27CC
038C
039C
1F38
7FF8
77E0
E700
C700
CF90
FFF0
F9F0
ENDCHAR
STARTCHAR 01E4
ENCODING 484
SWIDTH 468 0
DWIDTH 13 0
BBX 13 18 2 0
BITMAP
00C0
07F8
0FF8
1F38
3C00
3800
7800
7000
7070
F070
F3F8
F3F8
F3F0
F0E0
F1E0
7FC0
7FC0
3FC0
ENDCHAR
STARTCHAR 01E5
ENCODING 485
SWIDTH 468 0
DWIDTH 13 0
BBX 15 18 0 -5
BITMAP
03FC
07FC
0FBC
1E3C
1C38
3CFE
3CFE
3878
3C70
3FF0
1FF0
0FF0
00E0
01E0
63E0
FFC0
FF80
1C00
ENDCHAR
STARTCHAR 01E6
ENCODING 486
SWIDTH 468 0
DWIDTH 13 0
BBX 14 23 2 0
BITMAP
0188
01DC
00F8
00F0
0040
00C0
07F8
0FF8
1FB8
3C00
3C00
7800
7000
7000
F070
F070
F0F0
F0E0
F0E0
F0E0
7FE0
7FE0
3FC0
ENDCHAR
STARTCHAR 01E7
ENCODING 487
SWIDTH 468 0
DWIDTH 13 0
BBX 15 24 0 -5
BITMAP
0046
00EE
007C
0038
0010
0000
03FE
07FE
0FBC
1E1C
1C3C
3C3C
3C38
3838
3C78
3FF8
1FF0
0FF0
00F0
00F0
61E0
FFC0
FF80
1C00
ENDCHAR
STARTCHAR 01E8
ENCODING 488
SWIDTH 468 0
DWIDTH 13 0
BBX 15 23 1 0
BITMAP
0188
01FC
01F8
00E0
0040
0000
0E1E
0E1C
1E3C
1E78
1CF0
1DE0
3FC0
3F80
3F80
3B80
7BC0
79C0
71E0
70E0
F0F0
F0F0
E070
ENDCHAR
STARTCHAR 01E9
ENCODING 489
SWIDTH 468 0
DWIDTH 13 0
BBX 13 23 2 0
BITMAP
0460
07E0
03C0
0100
0000
0200
1E00
1E00
1C00
1C00
3C78
3CF0
39E0
3BC0
3F80
7F00
7F00
7780
7380
F3C0
F1C0
E1E0
E1E0
ENDCHAR
STARTCHAR 01EA
ENCODING 490
SWIDTH 468 0
DWIDTH 13 0
BBX 13 23 2 -5
BITMAP
0180
07E0
1FF0
1EF8
3C78
7838
7038
7078
F078
F078
E070
E070
E0F0
E0E0
F1E0
FFC0
7F80
3F00
1C00
3800
7800
7C00
1C00
ENDCHAR
STARTCHAR 01EB
ENCODING 491
SWIDTH 468 0
DWIDTH 13 0
BBX 12 18 2 -5
BITMAP
0FC0
1FE0
3FF0
78F0
7070
F070
E0F0
E0F0
E0E0
F1E0
FFC0
7F80
7F00
1C00
3800
3800
7E00
1C00
ENDCHAR
STARTCHAR 01EC
ENCODING 492
SWIDTH 468 0
DWIDTH 13 0
BBX 13 27 2 -5
BITMAP
07F8
07F8
07F8
0000
0180
07E0
1FF0
1EF8
3C78
7838
7038
7078
F078
F078
E070
E070
E0F0
E0E0
F1E0
FFC0
7F80
3F00
1C00
3800
7800
7C00
1C00
ENDCHAR
STARTCHAR 01ED
ENCODING 493
SWIDTH 468 0
DWIDTH 13 0
BBX 13 23 2 -5
BITMAP
07F8
07F8
0000
0000
0000
0FC0
1FE0
3FF0
78F0
7070
F070
E0F0
E0F0
E0E0
F1E0
FFC0
7F80
7F00
1C00
3800
3800
7E00
1C00
ENDCHAR
STARTCHAR 01EE
ENCODING 494
SWIDTH 468 0
DWIDTH 13 0
BBX 15 23 1 0
BITMAP
0188
01DC
00F8
00F0
0040
0000
0FFE
0FFC
0FFC
0078
00F0
01E0
03C0
07E0
07F0
00F0
0078
0078
0070
40F0
7BF0
FFE0
7F80
ENDCHAR
STARTCHAR 01EF
ENCODING 495
SWIDTH 468 0
DWIDTH 13 0
BBX 14 24 0 -5
BITMAP
008C
01DC
00F8
0070
0000
0000
0FFC
0FFC
1FF8
0070
00E0
01C0
0380
07C0
07E0
01F0
00F0
0070
00F0
00F0
63E0
7FC0
FF80
1800
ENDCHAR
STARTCHAR 01F0
ENCODING 496
SWIDTH 468 0
DWIDTH 13 0
BBX 14 24 0 -5
BITMAP
0188
01FC
00F8
00E0
0040
0000
0FF8
0FF8
0FF8
0070
0070
00F0
00F0
00E0
00E0
01E0
01E0
01C0
01C0
03C0
6780
FF80
FF00
1C00
ENDCHAR
STARTCHAR 01F1
ENCODING 497
SWIDTH 468 0
DWIDTH 13 0
BBX 17 17 0 0
BITMAP
0F8F80
0FCF80
0CC380
1CC300
1CC700
18C600
18CE00
38CC00
39DC00
31D800
31B800
73B000
737000
676000
6EFC00
7CFC00
F8F800
ENDCHAR
STARTCHAR 01F2
ENCODING 498
SWIDTH 468 0
DWIDTH 13 0
BBX 17 17 0 0
BITMAP
0F8000
0FC000
0CC000
1CC000
1CDF80
18DF00
18DF00
38C600
39CE00
31CC00
319800
739800
733000
677000
6E7C00
7CFC00
F8FC00
ENDCHAR
STARTCHAR 01F3
ENCODING 499
SWIDTH 468 0
DWIDTH 13 0
BBX 16 19 1 0
BITMAP
00C0
00C0
01C0
0180
0180
0180
1FBF
3FBE
373E
730C
671C
E718
E630
C630
CE60
CEE0
ECF8
FDF8
7DF8
ENDCHAR
STARTCHAR 01F4
ENCODING 500
SWIDTH 468 0
DWIDTH 13 0
BBX 13 23 2 0
BITMAP
0020
00F0
01F0
03C0
0180
00C0
07F8
0FF8
1FB8
3C00
3C00
7800
7000
7000
F070
F070
F0F0
F0E0
F0E0
F0E0
7FE0
7FE0
3FC0
ENDCHAR
STARTCHAR 01F5
ENCODING 501
SWIDTH 468 0
DWIDTH 13 0
BBX 15 24 0 -5
BITMAP
0008
003C
007C
00F0
0040
0000
03FE
07FE
0FBC
1E1C
1C3C
3C3C
3C38
3838
3C78
3FF8
1FF0
0FF0
00F0
00F0
61E0
FFC0
FF80
1C00
ENDCHAR
STARTCHAR 01F6
ENCODING 502
SWIDTH 468 0
DWIDTH 13 0
BBX 16 17 0 0
BITMAP
0E70
0E70
0C60
1CE0
1CE7
1CE7
18C6
3FCE
3FCE
39CE
318C
739C
739C
739C
63B8
E3F8
E1F0
ENDCHAR
STARTCHAR 01F7
ENCODING 503
SWIDTH 468 0
DWIDTH 13 0
BBX 15 22 0 -5
BITMAP
03FC
07FE
07FE
070E
0F0E
0F0E
0E0E
0E0E
1E1E
1E1C
1C3C
1C78
3CF0
3FE0
3FC0
3F00
3C00
7800
7800
7000
7000
F000
ENDCHAR
STARTCHAR 01F8
ENCODING 504
SWIDTH 468 0
DWIDTH 13 0
BBX 15 23 1 0
BITMAP
0180
01C0
03E0
00F0
0020
0000
0E0E
1E0E
1F0E
1F1C
1F1C
3B1C
3B9C
3BB8
39B8
39B8
71B8
71F0
70F0
70F0
E0F0
E0F0
E0E0
ENDCHAR
STARTCHAR 01F9
ENCODING 505
SWIDTH 468 0
DWIDTH 13 0
BBX 13 19 1 0
BITMAP
0100
03C0
03E0
00E0
0020
0000
1FF0
1FF0
1FF8
3C78
3C78
3878
3870
3870
78F0
78F0
70E0
70E0
F1E0
ENDCHAR
STARTCHAR 01FA
ENCODING 506
SWIDTH 468 0
DWIDTH 13 0
BBX 14 23 0 0
BITMAP
0008
003C
0070
0000
0078
00D8
00C8
00F8
01F0
01F8
03B8
03B8
0738
0738
0E38
0E38
1FF8
1FF8
3FF8
3838
7038
7038
F038
ENDCHAR
STARTCHAR 01FB
ENCODING 507
SWIDTH 468 0
DWIDTH 13 0
BBX 12 23 2 0
BITMAP
0030
00F0
00C0
0000
01E0
0130
0130
01E0
0040
0000
0FF0
1FF0
3FF0
78F0
70F0
F0E0
E0E0
E1E0
E1E0
E1E0
FFE0
FFE0
7EE0
ENDCHAR
STARTCHAR 01FC
ENCODING 508
SWIDTH 468 0
DWIDTH 13 0
BBX 17 23 0 0
BITMAP
000200
000700
001F00
003E00
001800
000000
00FF80
00FF00
01FF00
01B800
03B800
077000
077E00
0E7C00
0E7C00
1CE000
1FE000
3FE000
3FE000
79C000
71FC00
F1F800
E1F800
ENDCHAR
STARTCHAR 01FD
ENCODING 509
SWIDTH 468 0
DWIDTH 13 0
BBX 14 19 1 0
BITMAP
0030
0070
01F8
01E0
0080
0000
3E78
3FFC
27CC
038C
039C
1F38
7FF8
77E0
E700
C700
CF90
FFF0
F9F0
ENDCHAR
STARTCHAR 01FE
ENCODING 510
SWIDTH 468 0
DWIDTH 13 0
BBX 13 24 2 -1
BITMAP
0040
01C0
03E0
0780
0200
0198
07F8
1FF0
1E78
3CF8
78F8
71F8
73B8
F338
E778
EE70
EC70
FCF0
F8E0
F1E0
FFC0
FF80
FF00
C000
ENDCHAR
STARTCHAR 01FF
ENCODING 511
SWIDTH 468 0
DWIDTH 13 0
BBX 13 20 2 -1
BITMAP
00C0
01C0
03E0
0780
0200
0018
07F8
1FF0
3EF0
38F8
79F8
73F8
7778
FE70
FC70
78F0
7FE0
7FC0
FF80
4000
ENDCHAR
STARTCHAR 0200
ENCODING 512
SWIDTH 468 0
DWIDTH 13 0
BBX 15 23 0 0
BITMAP
0088
039C
01CE
00C6
0044
0000
00F0
00F0
01F8
03F8
03B8
07B8
0738
0F38
0E38
1E38
1FF8
3FF8
3FF8
7838
7038
F038
F038
ENDCHAR
STARTCHAR 0201
ENCODING 513
SWIDTH 468 0
DWIDTH 13 0
BBX 13 19 2 0
BITMAP
0420
0EF0
0E70
0738
0210
0000
0FF0
1FF0
3FF0
78F0
70F0
F0E0
E0E0
E1E0
E1E0
E1E0
FFE0
FFE0
7EE0
ENDCHAR
STARTCHAR 0202
ENCODING 514
SWIDTH 468 0
DWIDTH 13 0
BBX 15 23 0 0
BITMAP
0038
00FC
01FE
01CE
0000
0000
00F0
00F0
01F8
03F8
03B8
07B8
0738
0F38
0E38
1E38
1FF8
3FF8
3FF8
7838
7038
F038
F038
ENDCHAR
STARTCHAR 0203
ENCODING 515
SWIDTH 468 0
DWIDTH 13 0
BBX 12 19 2 0
BITMAP
01C0
03F0
07F0
0630
0000
0000
0FF0
1FF0
3FF0
78F0
70F0
F0E0
E0E0
E1E0
E1E0
E1E0
FFE0
FFE0
7EE0
ENDCHAR
STARTCHAR 0204
ENCODING 516
SWIDTH 468 0
DWIDTH 13 0
BBX 14 23 2 0
BITMAP
0210
0738
0738
039C
0108
0000
1FFC
1FF8
1FF8
1C00
3C00
3C00
3FE0
3FE0
7FE0
7800
7000
7000
7000
F000
FFE0
FFE0
FFC0
ENDCHAR
STARTCHAR 0205
ENCODING 517
SWIDTH 468 0
DWIDTH 13 0
BBX 13 19 2 0
BITMAP
0420
0EF0
0E70
0738
0210
0000
0FE0
1FF0
3EF0
7878
7070
F1F0
FFE0
FF80
E000
F000
7DC0
7FC0
3FC0
ENDCHAR
STARTCHAR 0206
ENCODING 518
SWIDTH 468 0
DWIDTH 13 0
BBX 14 23 2 0
BITMAP
00E0
01F8
03F8
0318
0000
0000
1FFC
1FF8
1FF8
1C00
3C00
3C00
3FE0
3FE0
7FE0
7800
7000
7000
7000
F000
FFE0
FFE0
FFC0
ENDCHAR
STARTCHAR 0207
ENCODING 519
SWIDTH 468 0
DWIDTH 13 0
BBX 13 19 2 0
BITMAP
01C0
07E0
07F0
0E30
0000
0000
0FE0
1FF0
3EF0
7878
7070
F1F0
FFE0
FF80
E000
F000
7DC0
7FC0
3FC0
ENDCHAR
STARTCHAR 0208
ENCODING 520
SWIDTH 468 0
DWIDTH 13 0
BBX 15 23 1 0
BITMAP
0110
0738
039C
018C
0088
0000
0FFE
0FFE
1FFC
01C0
01C0
03C0
03C0
0380
0380
0380
0780
0700
0700
0700
7FE0
FFE0
FFE0
ENDCHAR
STARTCHAR 0209
ENCODING 521
SWIDTH 468 0
DWIDTH 13 0
BBX 11 19 3 0
BITMAP
1080
39C0
39C0
1CE0
0840
0000
7F00
FE00
FE00
0E00
1E00
1E00
1C00
1C00
3C00
3C00
3FC0
1FC0
1FC0
ENDCHAR
STARTCHAR 020A
ENCODING 522
SWIDTH 468 0
DWIDTH 13 0
BBX 15 23 1 0
BITMAP
0070
01F8
03FC
039C
0000
0000
0FFE
0FFE
1FFC
01C0
01C0
03C0
03C0
0380
0380
0380
0780
0700
0700
0700
7FE0
FFE0
FFE0
ENDCHAR
STARTCHAR 020B
ENCODING 523
SWIDTH 468 0
DWIDTH 13 0
BBX 10 19 3 0
BITMAP
0700
1F80
1FC0
38C0
0000
0000
7F00
FE00
FE00
0E00
1E00
1E00
1C00
1C00
3C00
3C00
3FC0
1FC0
1FC0
ENDCHAR
STARTCHAR 020C
ENCODING 524
SWIDTH 468 0
DWIDTH 13 0
BBX 13 23 2 0
BITMAP
0420
0E70
0770
0738
0210
0180
07E0
1FF0
1EF8
3C78
7838
7038
7078
F078
F078
E070
E070
E0F0
E0E0
F1E0
FFC0
7F80
3F00
ENDCHAR
STARTCHAR 020D
ENCODING 525
SWIDTH 468 0
DWIDTH 13 0
BBX 12 19 2 0
BITMAP
0420
1EE0
0E70
0730
0210
0000
0FC0
1FE0
3FF0
78F0
7070
F070
E0F0
E0F0
E0E0
F1E0
FFC0
7F80
7F00
ENDCHAR
STARTCHAR 020E
ENCODING 526
SWIDTH 468 0
DWIDTH 13 0
BBX 13 23 2 0
BITMAP
00E0
03F0
03F8
0738
0000
0180
07E0
1FF0
1EF8
3C78
7838
7038
7078
F078
F078
E070
E070
E0F0
E0E0
F1E0
FFC0
7F80
3F00
ENDCHAR
STARTCHAR 020F
ENCODING 527
SWIDTH 468 0
DWIDTH 13 0
BBX 12 19 2 0
BITMAP
01C0
07E0
07F0
0E30
0000
0000
0FC0
1FE0
3FF0
78F0
7070
F070
E0F0
E0F0
E0E0
F1E0
FFC0
7F80
7F00
ENDCHAR
STARTCHAR 0210
ENCODING 528
SWIDTH 468 0
DWIDTH 13 0
BBX 14 23 1 0
BITMAP
0210
0738
0738
039C
0108
0000
0FF0
0FF8
1EFC
1E3C
1C3C
1C3C
3C38
3CF8
3FF0
3FE0
7FC0
79C0
71E0
70E0
70E0
F0F0
E070
ENDCHAR
STARTCHAR 0211
ENCODING 529
SWIDTH 468 0
DWIDTH 13 0
BBX 13 19 2 0
BITMAP
0420
1EE0
0E70
0730
0210
0000
0FF8
1FF0
3FF0
3C00
3800
3800
7800
7800
7000
7000
7000
F000
E000
ENDCHAR
STARTCHAR 0212
ENCODING 530
SWIDTH 468 0
DWIDTH 13 0
BBX 14 23 1 0
BITMAP
0070
01F8
03FC
039C
0000
0000
0FF0
0FF8
1EFC
1E3C
1C3C
1C3C
3C38
3CF8
3FF0
3FE0
7FC0
79C0
71E0
70E0
70E0
F0F0
E070
ENDCHAR
STARTCHAR 0213
ENCODING 531
SWIDTH 468 0
DWIDTH 13 0
BBX 13 19 2 0
BITMAP
01C0
03F0
07F0
0630
0000
0000
0FF8
1FF0
3FF0
3C00
3800
3800
7800
7800
7000
7000
7000
F000
E000
ENDCHAR
STARTCHAR 0214
ENCODING 532
SWIDTH 468 0
DWIDTH 13 0
BBX 14 23 2 0
BITMAP
0220
0E70
0738
0318
0110
0000
1C3C
3C3C
3C38
3838
3878
7878
7870
7070
7070
F0F0
F0E0
E0E0
E1E0
E1E0
FFC0
FF80
7F00
ENDCHAR
STARTCHAR 0215
ENCODING 533
SWIDTH 468 0
DWIDTH 13 0
BBX 12 19 2 0
BITMAP
0420
1EE0
0E70
0730
0210
0000
3870
3870
7870
78F0
70E0
70E0
F0E0
F1E0
F1E0
F1C0
FFE0
7FE0
7EE0
ENDCHAR
STARTCHAR 0216
ENCODING 534
SWIDTH 468 0
DWIDTH 13 0
BBX 14 23 2 0
BITMAP
00E0
03F0
07F8
0738
0000
0000
1C3C
3C3C
3C38
3838
3878
7878
7870
7070
7070
F0F0
F0E0
E0E0
E1E0
E1E0
FFC0
FF80
7F00
ENDCHAR
STARTCHAR 0217
ENCODING 535
SWIDTH 468 0
DWIDTH 13 0
BBX 12 19 2 0
BITMAP
01C0
07E0
07F0
0E70
0000
0000
3870
3870
7870
78F0
70E0
70E0
F0E0
F1E0
F1E0
F1C0
FFE0
7FE0
7EE0
ENDCHAR
STARTCHAR 0218
ENCODING 536
SWIDTH 468 0
DWIDTH 13 0
BBX 14 23 1 -5
BITMAP
0060
07FC
0FFC
1F38
1C00
1C00
1E00
1F00
0FC0
07E0
03F0
00F0
0070
0070
40F0
7FE0
FFE0
7F80
0000
0C00
1C00
7800
7000
ENDCHAR
STARTCHAR 0219
ENCODING 537
SWIDTH 468 0
DWIDTH 13 0
BBX 12 18 2 -5
BITMAP
0FF0
1FF0
3EE0
3800
3C00
3F00
1FC0
07C0
01E0
01E0
FFC0
FFC0
FF00
0000
1C00
3800
F800
E000
ENDCHAR
STARTCHAR 021A
ENCODING 538
SWIDTH 468 0
DWIDTH 13 0
BBX 15 22 2 -5
BITMAP
3FFE
3FFC
3FFC
0380
0380
0780
0780
0700
0700
0F00
0F00
0E00
0E00
1E00
1E00
1C00
1C00
0000
1800
3800
F800
E000
ENDCHAR
STARTCHAR 021B
ENCODING 539
SWIDTH 468 0
DWIDTH 13 0
BBX 12 22 3 -5
BITMAP
0700
0E00
0E00
1E00
7FF0
FFE0
FFE0
3C00
3C00
3800
3800
3800
7800
7800
7FC0
3FC0
1FC0
0000
1C00
1C00
7800
7000
ENDCHAR
STARTCHAR 021C
ENCODING 540
SWIDTH 468 0
DWIDTH 13 0
BBX 16 23 -1 -5
BITMAP
0020
07FC
07FE
073E
000F
000F
000E
001E
003C
07F8
07E0
07F8
0078
003C
003C
003C
003C
0078
00F8
0FF0
7FE0
FF80
F000
ENDCHAR
STARTCHAR 021D
ENCODING 541
SWIDTH 468 0
DWIDTH 13 0
BBX 14 18 0 -5
BITMAP
0FF0
0FF8
0FF8
003C
0038
0078
07F0
07E0
07E0
03F0
0070
0070
00F0
01F0
1FE0
FFC0
FF00
E000
ENDCHAR
STARTCHAR 021E
ENCODING 542
SWIDTH 468 0
DWIDTH 13 0
BBX 15 23 1 0
BITMAP
0188
01DC
00F8
00F0
0040
0000
0E0E
1E1E
1E1E
1C1C
1C1C
3C3C
3C3C
3FF8
3FF8
3838
7878
7070
7070
7070
F0F0
F0F0
E0E0
ENDCHAR
STARTCHAR 021F
ENCODING 543
SWIDTH 468 0
DWIDTH 13 0
BBX 13 23 1 0
BITMAP
0220
07F0
03C0
0180
0000
0100
0F00
0E00
0E00
1E00
1FF0
1FF0
1FF8
3C78
3C78
3878
3870
3870
78F0
78F0
70E0
70E0
F1E0
ENDCHAR
STARTCHAR 0220
ENCODING 544
SWIDTH 468 0
DWIDTH 13 0
BBX 14 23 1 -5
BITMAP
00C0
0FF8
1FF8
1F7C
1C3C
1C3C
1C3C
3C3C
3838
3838
3878
7878
7870
7070
70F0
F0F0
F0E0
E0E0
00E0
01E0
01E0
01C0
01C0
ENDCHAR
STARTCHAR 0221
ENCODING 545
SWIDTH 468 0
DWIDTH 13 0
BBX 13 24 1 -5
BITMAP
0038
0038
0078
0070
0070
0070
0FF0
1FE0
3FE0
78E0
70E0
71C0
E1C0
E1C0
E1C0
E380
F7F0
7FF8
3FB8
0F38
1F38
3BF0
13E0
00C0
ENDCHAR
STARTCHAR 0222
ENCODING 546
SWIDTH 468 0
DWIDTH 13 0
BBX 14 17 1 0
BITMAP
0F1C
0E1C
0E1C
1E1C
1E3C
1E38
0FF8
0FE0
3FF0
7C78
7038
F038
F078
F078
FFF0
7FE0
3FC0
ENDCHAR
STARTCHAR 0223
ENCODING 547
SWIDTH 468 0
DWIDTH 13 0
BBX 14 19 2 0
BITMAP
0E1C
1E3C
1C3C
1C3C
3C38
3C78
1CF0
1FE0
1FE0
3FF0
78F0
F070
E070
E0F0
E0F0
E1E0
FFE0
FFC0
7F00
ENDCHAR
STARTCHAR 0224
ENCODING 548
SWIDTH 468 0
DWIDTH 13 0
BBX 15 22 1 -5
BITMAP
0FFE
0FFC
1FFC
0038
0078
00F0
01E0
03C0
0780
0F00
0E00
1E00
3C00
7800
FFF0
FFE0
FFE0
00E0
00E0
07C0
0FC0
0600
ENDCHAR
STARTCHAR 0225
ENCODING 549
SWIDTH 468 0
DWIDTH 13 0
BBX 13 18 0 -5
BITMAP
1FF8
1FF8
1FF8
00F0
01E0
03C0
0780
0F00
1E00
3C00
7FE0
7FE0
FFE0
00C0
01C0
0FC0
0F80
0600
ENDCHAR
STARTCHAR 0226
ENCODING 550
SWIDTH 468 0
DWIDTH 13 0
BBX 13 22 0 1
BITMAP
0078
0078
0070
0000
0000
00F0
00F0
01F8
03F8
03B8
07B8
0738
0F38
0E38
1E38
1FF8
3FF8
3FF8
7838
7038
F038
F038
ENDCHAR
STARTCHAR 0227
ENCODING 551
SWIDTH 468 0
DWIDTH 13 0
BBX 12 19 2 0
BITMAP
00C0
01E0
01E0
01C0
0000
0000
0FF0
1FF0
3FF0
78F0
70F0
F0E0
E0E0
E1E0
E1E0
E1E0
FFE0
FFE0
7EE0
ENDCHAR
STARTCHAR 0228
ENCODING 552
SWIDTH 468 0
DWIDTH 13 0
BBX 14 22 2 -5
BITMAP
1FFC
1FF8
1FF8
1C00
3C00
3C00
3FE0
3FE0
7FE0
7800
7000
7000
7000
F000
FFE0
FFE0
FFC0
0C00
0E00
0E00
3E00
3800
ENDCHAR
STARTCHAR 0229
ENCODING 553
SWIDTH 468 0
DWIDTH 13 0
BBX 13 18 2 -5
BITMAP
0FE0
1FF0
3EF0
7878
7070
F1F0
FFE0
FF80
E000
F000
7DC0
7FC0
3FC0
0C00
0E00
0600
3E00
3C00
ENDCHAR
STARTCHAR 022A
ENCODING 554
SWIDTH 468 0
DWIDTH 13 0
BBX 13 23 2 0
BITMAP
03F8
03F8
0000
0738
0738
0230
0000
07E0
1FF0
1FF8
3C78
7838
7038
7078
F078
F070
E070
E0F0
E0E0
F1E0
FFC0
7F80
3F00
ENDCHAR
STARTCHAR 022B
ENCODING 555
SWIDTH 468 0
DWIDTH 13 0
BBX 13 20 2 0
BITMAP
03F8
03F0
0210
0738
0770
0000
0000
0FC0
1FE0
3FF0
78F0
7070
F070
E0F0
E0F0
E0E0
F1E0
FFC0
7F80
7F00
ENDCHAR
STARTCHAR 022C
ENCODING 556
SWIDTH 468 0
DWIDTH 13 0
BBX 13 23 2 0
BITMAP
03F8
03F8
0000
03F0
07F0
0040
0000
07E0
1FF0
1FF8
3C78
7838
7038
7078
F078
F070
E070
E0F0
E0E0
F1E0
FFC0
7F80
3F00
ENDCHAR
STARTCHAR 022D
ENCODING 557
SWIDTH 468 0
DWIDTH 13 0
BBX 13 20 2 0
BITMAP
03F8
03F0
0100
07F0
07E0
0000
0000
0FC0
1FE0
3FF0
78F0
7070
F070
E0F0
E0F0
E0E0
F1E0
FFC0
7F80
7F00
ENDCHAR
STARTCHAR 022E
ENCODING 558
SWIDTH 468 0
DWIDTH 13 0
BBX 13 23 2 0
BITMAP
0060
00F0
00F0
00E0
0000
0180
07E0
1FF0
1EF8
3C78
7838
7038
7078
F078
F078
E070
E070
E0F0
E0E0
F1E0
FFC0
7F80
3F00
ENDCHAR
STARTCHAR 022F
ENCODING 559
SWIDTH 468 0
DWIDTH 13 0
BBX 12 19 2 0
BITMAP
00C0
01E0
01E0
01C0
0000
0000
0FC0
1FE0
3FF0
78F0
7070
F070
E0F0
E0F0
E0E0
F1E0
FFC0
7F80
7F00
ENDCHAR
STARTCHAR 0230
ENCODING 560
SWIDTH 468 0
DWIDTH 13 0
BBX 13 23 2 0
BITMAP
01F8
03F8
0000
00E0
00E0
00C0
0000
07E0
1FF0
1FF8
3C78
7838
7038
7078
F078
F070
E070
E0F0
E0E0
F1E0
FFC0
7F80
3F00
ENDCHAR
STARTCHAR 0231
ENCODING 561
SWIDTH 468 0
DWIDTH 13 0
BBX 12 20 2 0
BITMAP
03F0
03F0
0080
01C0
01C0
0000
0000
0FC0
1FE0
3FF0
78F0
7070
F070
E0F0
E0F0
E0E0
F1E0
FFC0
7F80
7F00
ENDCHAR
STARTCHAR 0232
ENCODING 562
SWIDTH 468 0
DWIDTH 13 0
BBX 13 22 4 0
BITMAP
0FF0
1FE0
1FE0
0000
0000
E078
E0F0
F0F0
71E0
71C0
73C0
7780
7F00
3E00
3C00
3C00
3C00
3800
3800
7800
7800
7000
ENDCHAR
STARTCHAR 0233
ENCODING 563
SWIDTH 468 0
DWIDTH 13 0
BBX 16 23 -1 -5
BITMAP
01FE
01FE
0000
0000
0000
0F0F
0F0F
0F0E
0F1E
0F1C
071C
0738
0738
0770
07F0
03E0
03E0
03C0
0780
0F00
FE00
FC00
7000
ENDCHAR
STARTCHAR 0234
ENCODING 564
SWIDTH 468 0
DWIDTH 13 0
BBX 13 24 0 -5
BITMAP
07F0
0FE0
0FE0
01E0
01E0
01C0
01C0
01C0
03C0
03C0
0380
0380
0780
0780
0700
0760
0FF0
0FF8
0E38
1E38
7E30
FFF0
67E0
0100
ENDCHAR
STARTCHAR 0235
ENCODING 565
SWIDTH 468 0
DWIDTH 13 0
BBX 13 18 1 -5
BITMAP
1FC0
3FC0
39E0
38E0
38E0
71C0
71C0
71C0
71C0
E380
E3F0
E3F8
E798
0F18
1F38
3BF0
13F0
0080
ENDCHAR
STARTCHAR 0236
ENCODING 566
SWIDTH 468 0
DWIDTH 13 0
BBX 15 22 0 -5
BITMAP
00E0
01C0
01C0
03C0
1FFE
1FFE
1FFC
0780
0780
0700
0700
0700
0F00
0EC0
0FF0
0FF0
1E70
3E70
7E70
EFE0
CFC0
0100
ENDCHAR
STARTCHAR 0237
ENCODING 567
SWIDTH 468 0
DWIDTH 13 0
BBX 13 18 0 -5
BITMAP
0FF8
0FF8
0FF8
0070
0070
00F0
00F0
00E0
00E0
01E0
01E0
01C0
01C0
03C0
6780
FF80
FF00
1C00
ENDCHAR
STARTCHAR 0238
ENCODING 568
SWIDTH 468 0
DWIDTH 13 0
BBX 14 19 1 0
BITMAP
00E0
00E0
00E0
00C0
01C0
01C0
1FF8
1FF8
3BFC
739C
739C
631C
E318
E738
E738
E730
E670
FFE0
7FC0
ENDCHAR
STARTCHAR 0239
ENCODING 569
SWIDTH 468 0
DWIDTH 13 0
BBX 14 18 1 -5
BITMAP
0FF8
1FF8
39BC
739C
739C
639C
E318
E738
E738
E738
EE70
FFE0
7FC0
0E00
0C00
1C00
1C00
1C00
ENDCHAR
STARTCHAR 023A
ENCODING 570
SWIDTH 468 0
DWIDTH 13 0
BBX 15 21 0 -3
BITMAP
0006
0006
00FC
01FC
01F8
03B8
03B8
0738
0778
0E78
1EF8
1CF8
3FF8
3FF8
7FF8
7338
7638
E638
EC38
0C00
1800
ENDCHAR
STARTCHAR 023B
ENCODING 571
SWIDTH 468 0
DWIDTH 13 0
BBX 14 21 2 -2
BITMAP
001C
00FC
07FC
0FFC
1F7C
3C60
38E0
78C0
71C0
7180
F380
F300
F700
F600
FE00
FC20
7FE0
7FE0
3FC0
7000
7000
ENDCHAR
STARTCHAR 023C
ENCODING 572
SWIDTH 468 0
DWIDTH 13 0
BBX 13 17 2 -2
BITMAP
0030
0030
07F8
1FF0
3FF0
7CC0
7980
F180
F300
F300
F600
F600
7FC0
7FE0
3FE0
1000
3000
ENDCHAR
STARTCHAR 023D
ENCODING 573
SWIDTH 468 0
DWIDTH 13 0
BBX 11 17 2 0
BITMAP
0E00
0E00
0E00
1E00
1E00
1C00
7F80
FF80
FF80
3800
3800
7800
7800
7000
7FE0
FFC0
FFC0
ENDCHAR
STARTCHAR 023E
ENCODING 574
SWIDTH 468 0
DWIDTH 13 0
BBX 18 20 0 -1
BITMAP
000080
0001C0
0FFF80
1FFF00
1FFE00
01EE00
01FC00
01F800
01F000
03E000
03C000
038000
078000
078000
0F8000
1F0000
3F0000
7F0000
EF0000
400000
ENDCHAR
STARTCHAR 023F
ENCODING 575
SWIDTH 468 0
DWIDTH 13 0
BBX 12 18 2 -5
BITMAP
0FF0
1FF0
3EE0
3800
3C00
3F00
1FC0
07C0
01E0
01E0
FFC0
FFC0
FF00
7000
3800
3F00
1F00
0600
ENDCHAR
STARTCHAR 0240
ENCODING 576
SWIDTH 468 0
DWIDTH 13 0
BBX 14 18 1 -5
BITMAP
0FFC
1FF8
1FF8
00F0
01E0
03C0
0780
0F00
1E00
3C00
7800
7C00
FE00
1E00
0700
07E0
03E0
00C0
ENDCHAR
STARTCHAR 0241
ENCODING 577
SWIDTH 468 0
DWIDTH 13 0
BBX 12 18 3 0
BITMAP
0300
3FE0
3FF0
3DF0
00F0
00F0
00F0
01E0
07C0
0F80
1E00
3C00
3800
7800
7800
7000
7000
F000
ENDCHAR
STARTCHAR 0242
ENCODING 578
SWIDTH 468 0
DWIDTH 13 0
BBX 10 13 4 0
BITMAP
7F80
7FC0
7FC0
01C0
03C0
0780
0F00
3E00
7800
7000
7000
F000
F000
ENDCHAR
STARTCHAR 0243
ENCODING 579
SWIDTH 468 0
DWIDTH 13 0
BBX 14 17 1 0
BITMAP
0FF0
0FF8
0FFC
0E1C
1E1C
1E3C
1C78
1FF0
1FF0
3CF8
3838
FE38
FE78
7878
7FF0
7FE0
7F80
ENDCHAR
STARTCHAR 0244
ENCODING 580
SWIDTH 468 0
DWIDTH 13 0
BBX 15 17 1 0
BITMAP
0E1E
0E1C
1E1C
1C3C
1C3C
1C38
7FFE
7FFC
FFFC
3870
7870
7870
70F0
78E0
7FE0
3FC0
3F80
ENDCHAR
STARTCHAR 0245
ENCODING 581
SWIDTH 468 0
DWIDTH 13 0
BBX 13 17 0 0
BITMAP
00F0
00F0
01F8
03F8
03B8
0738
0738
0F38
0E38
1E38
1C38
3C38
3838
7838
7038
F038
F038
ENDCHAR
STARTCHAR 0246
ENCODING 582
SWIDTH 468 0
DWIDTH 13 0
BBX 16 22 1 -3
BITMAP
0003
0003
0FFE
0FFE
0FFC
1E1C
1E38
1C30
1FF8
3FF8
3FF8
39C0
3980
7B80
7F00
7600
7FF0
FFF0
FFE0
3800
3000
3000
ENDCHAR
STARTCHAR 0247
ENCODING 583
SWIDTH 468 0
DWIDTH 13 0
BBX 13 17 2 -2
BITMAP
0060
00C0
0FE0
1FF0
3FF0
79B8
7370
F3F0
FFE0
FF80
E600
EC00
FDC0
7FC0
3FC0
3800
3000
ENDCHAR
STARTCHAR 0248
ENCODING 584
SWIDTH 468 0
DWIDTH 13 0
BBX 14 17 1 0
BITMAP
07FC
07FC
07F8
0038
0078
0078
0070
07FC
07FC
00F0
00E0
00E0
01E0
41E0
7FC0
FF80
7F00
ENDCHAR
STARTCHAR 0249
ENCODING 585
SWIDTH 468 0
DWIDTH 13 0
BBX 14 24 0 -5
BITMAP
0038
0078
0078
0078
0000
0000
0FF8
0FF8
0FF8
0070
0070
1FFC
1FF8
00E0
00E0
01E0
01E0
01C0
01C0
03C0
6780
FF80
FF00
1C00
ENDCHAR
STARTCHAR 024A
ENCODING 586
SWIDTH 468 0
DWIDTH 13 0
BBX 13 23 2 -5
BITMAP
0100
07E0
1FF0
1EF0
3C70
3878
7878
7070
7070
F070
F0F0
E0F0
E0E0
E1E0
F1E0
FFE0
7FC0
7FC0
01C0
01C0
01F0
01E0
0060
ENDCHAR
STARTCHAR 024B
ENCODING 587
SWIDTH 468 0
DWIDTH 13 0
BBX 12 18 2 -5
BITMAP
0FF0
1FF0
3FF0
78F0
70F0
F0E0
E0E0
E1E0
E1E0
F1C0
FFC0
7FC0
7FC0
0380
0380
03E0
03E0
00E0
ENDCHAR
STARTCHAR 024C
ENCODING 588
SWIDTH 468 0
DWIDTH 13 0
BBX 14 17 1 0
BITMAP
07F0
07F8
0F7C
0E3C
0E1C
0E3C
1E38
1C78
7FF0
7FE0
FFC0
39C0
38E0
38E0
78F0
7070
7070
ENDCHAR
STARTCHAR 024D
ENCODING 589
SWIDTH 468 0
DWIDTH 13 0
BBX 13 13 2 0
BITMAP
0FF8
1FF0
1FF0
3C00
3C00
3800
FF80
FF80
7800
7000
7000
7000
F000
ENDCHAR
STARTCHAR 024E
ENCODING 590
SWIDTH 468 0
DWIDTH 13 0
BBX 14 17 3 0
BITMAP
703C
7038
7870
FFF8
FFF8
39C0
39C0
3B80
1F00
1F00
1E00
1E00
1C00
1C00
3C00
3C00
3800
ENDCHAR
STARTCHAR 024F
ENCODING 591
SWIDTH 468 0
DWIDTH 13 0
BBX 16 18 -1 -5
BITMAP
0F0F
0F0E
0F0E
071E
1FFF
1FFF
0738
0738
0770
07F0
03E0
03E0
03C0
0780
0F00
FE00
FC00
7000
ENDCHAR
STARTCHAR 0292
ENCODING 658
SWIDTH 468 0
DWIDTH 13 0
BBX 14 18 0 -5
BITMAP
0FFC
0FFC
1FF8
0070
00E0
01C0
0380
07C0
07E0
01F0
00F0
0070
00F0
00F0
63E0
7FC0
FF80
1800
ENDCHAR
STARTCHAR 02BC
ENCODING 700
SWIDTH 468 0
DWIDTH 13 0
BBX 5 5 7 14
BITMAP
38
38
70
70
E0
ENDCHAR
STARTCHAR 02C6
ENCODING 710
SWIDTH 468 0
DWIDTH 13 0
BBX 7 5 7 14
BITMAP
10
38
FC
EE
84
ENDCHAR
STARTCHAR 02C7
ENCODING 711
SWIDTH 468 0
DWIDTH 13 0
BBX 7 4 7 14
BITMAP
46
EE
7C
38
ENDCHAR
STARTCHAR 02C9
ENCODING 713
SWIDTH 468 0
DWIDTH 13 0
BBX 8 2 6 16
BITMAP
FF
FF
ENDCHAR
STARTCHAR 02D8
ENCODING 728
SWIDTH 468 0
DWIDTH 13 0
BBX 8 4 7 15
BITMAP
C7
EE
FE
7C
ENDCHAR
STARTCHAR 02D9
ENCODING 729
SWIDTH 468 0
DWIDTH 13 0
BBX 4 4 8 15
BITMAP
60
F0
F0
60
ENDCHAR
STARTCHAR 02DA
ENCODING 730
SWIDTH 468 0
DWIDTH 13 0
BBX 6 6 7 14
BITMAP
78
7C
C4
6C
7C
10
ENDCHAR
STARTCHAR 02DB
ENCODING 731
SWIDTH 468 0
DWIDTH 13 0
BBX 5 5 3 -5
BITMAP
38
F0
E0
F8
70
ENDCHAR
STARTCHAR 02DC
ENCODING 732
SWIDTH 468 0
DWIDTH 13 0
BBX 9 4 6 15
BITMAP
3000
FF80
FF00
CE00
ENDCHAR
STARTCHAR 02DD
ENCODING 733
SWIDTH 468 0
DWIDTH 13 0
BBX 11 5 5 14
BITMAP
10C0
39E0
7BC0
E380
4200
ENDCHAR
STARTCHAR 0311
ENCODING 785
SWIDTH 468 0
DWIDTH 13 0
BBX 8 4 6 15
BITMAP
1C
7E
FF
E7
ENDCHAR
STARTCHAR 0384
ENCODING 900
SWIDTH 468 0
DWIDTH 13 0
BBX 6 6 7 14
BITMAP
08
1C
38
70
F0
20
ENDCHAR
STARTCHAR 0385
ENCODING 901
SWIDTH 468 0
DWIDTH 13 0
BBX 12 6 4 14
BITMAP
0200
23A0
7770
F6F0
6C60
0400
ENDCHAR
STARTCHAR 0386
ENCODING 902
SWIDTH 468 0
DWIDTH 13 0
BBX 13 18 0 0
BITMAP
0C00
0EF0
1CF0
1DF8
3BF8
0BB8
07B8
0738
0F38
0E38
1E38
1FF8
3FF8
3FF8
7838
7038
F038
F038
ENDCHAR
STARTCHAR 0388
ENCODING 904
SWIDTH 468 0
DWIDTH 13 0
BBX 17 18 -1 0
BITMAP
380000
3BFF80
73FF00
73FF00
E38000
278000
078000
07FC00
07FC00
0FFC00
0F0000
0E0000
0E0000
0E0000
1E0000
1FFC00
1FFC00
1FF800
ENDCHAR
STARTCHAR 0389
ENCODING 905
SWIDTH 468 0
DWIDTH 13 0
BBX 17 18 -1 0
BITMAP
700000
738380
778780
E78780
E70700
470700
0F0F00
0F0F00
0FFE00
0FFE00
0E0E00
1E1E00
1C1C00
1C1C00
1C1C00
3C3C00
3C3C00
383800
ENDCHAR
STARTCHAR 038A
ENCODING 906
SWIDTH 468 0
DWIDTH 13 0
BBX 17 18 -1 0
BITMAP
300000
7BFF80
73FF80
E7FF00
E07000
407000
00F000
00F000
00E000
00E000
00E000
01E000
01C000
01C000
01C000
1FF800
3FF800
3FF800
ENDCHAR
STARTCHAR 038C
ENCODING 908
SWIDTH 468 0
DWIDTH 13 0
BBX 15 18 0 0
BITMAP
3060
79F8
77FC
E7BE
EF1E
5E0E
1C0E
1C1E
3C1E
3C1E
381C
381C
383C
3838
3C78
3FF0
1FE0
0FC0
ENDCHAR
STARTCHAR 038E
ENCODING 910
SWIDTH 468 0
DWIDTH 13 0
BBX 19 18 -2 0
BITMAP
300000
7B81E0
7383C0
73C3C0
E1C780
41C700
01CF00
01DE00
01FC00
00F800
00F000
00F000
00F000
00E000
00E000
01E000
01E000
01C000
ENDCHAR
STARTCHAR 038F
ENCODING 911
SWIDTH 468 0
DWIDTH 13 0
BBX 15 18 0 0
BITMAP
7020
73FC
F7FC
EFBE
CE0E
5E0E
1C0E
3C0E
3C0E
381E
381C
381C
3838
1C38
1C70
7CFC
FCF8
FDF8
ENDCHAR
STARTCHAR 0390
ENCODING 912
SWIDTH 468 0
DWIDTH 13 0
BBX 13 20 3 0
BITMAP
0100
11D0
3BB8
7B78
3630
0200
0000
7F00
FE00
FE00
0E00
1E00
1E00
1C00
1C00
3C00
3C00
3FC0
1FC0
1FC0
ENDCHAR
STARTCHAR 0391
ENCODING 913
SWIDTH 468 0
DWIDTH 13 0
BBX 13 17 0 0
BITMAP
00F0
00F0
01F8
03F8
03B8
07B8
0738
0F38
0E38
1E38
1FF8
3FF8
3FF8
7838
7038
F038
F038
ENDCHAR
STARTCHAR 0392
ENCODING 914
SWIDTH 468 0
DWIDTH 13 0
BBX 14 17 1 0
BITMAP
0FF0
0FF8
1FFC
1E1C
1C1C
1C3C
1CF8
3FF0
3FF0
39F8
3878
7838
7078
7078
7FF0
FFE0
FF80
ENDCHAR
STARTCHAR 0393
ENCODING 915
SWIDTH 468 0
DWIDTH 13 0
BBX 16 17 1 0
BITMAP
03FF
03FE
07FE
0780
0700
0700
0F00
0F00
0E00
0E00
1E00
1E00
1C00
1C00
FFC0
FF80
FF80
ENDCHAR
STARTCHAR 0394
ENCODING 916
SWIDTH 468 0
DWIDTH 13 0
BBX 13 17 0 0
BITMAP
00F0
00F0
01F8
03B8
03B8
0738
0738
0E38
0E38
1E38
1C38
3C38
3838
7838
7FF8
FFF8
FFF8
ENDCHAR
STARTCHAR 0395
ENCODING 917
SWIDTH 468 0
DWIDTH 13 0
BBX 14 17 2 0
BITMAP
1FFC
1FF8
1FF8
1C00
3C00
3C00
3FE0
3FE0
7FE0
7800
7000
7000
7000
F000
FFE0
FFE0
FFC0
ENDCHAR
STARTCHAR 0396
ENCODING 918
SWIDTH 468 0
DWIDTH 13 0
BBX 15 17 1 0
BITMAP
0FFE
0FFC
1FFC
0038
0078
00F0
01E0
03C0
0780
0F00
0E00
1E00
3C00
7800
FFF0
FFE0
FFE0
ENDCHAR
STARTCHAR 0397
ENCODING 919
SWIDTH 468 0
DWIDTH 13 0
BBX 15 17 1 0
BITMAP
0E0E
1E1E
1E1E
1C1C
1C1C
3C3C
3C3C
3FF8
3FF8
3838
7878
7070
7070
7070
F0F0
F0F0
E0E0
ENDCHAR
STARTCHAR 0398
ENCODING 920
SWIDTH 468 0
DWIDTH 13 0
BBX 13 18 2 0
BITMAP
0180
07E0
1FF0
1EF8
3C38
7838
7038
7038
F7B8
EFF8
EF70
E070
E0F0
E0E0
F1E0
FFC0
7F80
3F00
ENDCHAR
STARTCHAR 0399
ENCODING 921
SWIDTH 468 0
DWIDTH 13 0
BBX 15 17 1 0
BITMAP
0FFE
0FFE
1FFC
01C0
01C0
03C0
03C0
0380
0380
0380
0780
0700
0700
0700
7FE0
FFE0
FFE0
ENDCHAR
STARTCHAR 039A
ENCODING 922
SWIDTH 468 0
DWIDTH 13 0
BBX 15 17 1 0
BITMAP
0E1E
0E1C
1E3C
1E78
1CF0
1DE0
3FC0
3F80
3F80
3B80
7BC0
79C0
71E0
70E0
F0F0
F0F0
E070
ENDCHAR
STARTCHAR 039B
ENCODING 923
SWIDTH 468 0
DWIDTH 13 0
BBX 13 17 0 0
BITMAP
00F0
00F0
01F8
03F8
03B8
0738
0738
0F38
0E38
1E38
1C38
3C38
3838
7838
7038
F038
F038
ENDCHAR
STARTCHAR 039C
ENCODING 924
SWIDTH 468 0
DWIDTH 13 0
BBX 16 17 0 0
BITMAP
070F
070F
0F1F
0F1E
0F3E
1DB6
1DFE
1DEE
39EE
39CC
399C
381C
701C
701C
7038
7038
E038
ENDCHAR
STARTCHAR 039D
ENCODING 925
SWIDTH 468 0
DWIDTH 13 0
BBX 15 17 1 0
BITMAP
0E0E
1E0E
1F0E
1F1C
1F1C
3B1C
3B9C
3BB8
39B8
39B8
71B8
71F0
70F0
70F0
E0F0
E0F0
E0E0
ENDCHAR
STARTCHAR 039E
ENCODING 926
SWIDTH 468 0
DWIDTH 13 0
BBX 15 17 1 0
BITMAP
1FFE
1FFE
1FFE
0000
0000
0000
1FF8
1FF8
1FF0
0000
0000
0000
0000
0000
FFF0
FFF0
FFE0
ENDCHAR
STARTCHAR 039F
ENCODING 927
SWIDTH 468 0
DWIDTH 13 0
BBX 13 18 2 0
BITMAP
0180
07E0
1FF0
1EF8
3C78
7838
7038
7078
F078
F078
E070
E070
E0F0
E0E0
F1E0
FFC0
7F80
3F00
ENDCHAR
STARTCHAR 03A0
ENCODING 928
SWIDTH 468 0
DWIDTH 13 0
BBX 15 17 1 0
BITMAP
0FFE
1FFE
1FFE
1C1C
1C1C
1C3C
3C3C
3838
3838
3878
7878
7870
7070
7070
F0F0
F0E0
E0E0
ENDCHAR
STARTCHAR 03A1
ENCODING 929
SWIDTH 468 0
DWIDTH 13 0
BBX 14 17 1 0
BITMAP
0FF0
0FFC
0FFC
1E1C
1C1C
1C1C
1C1C
3C3C
3FF8
3FF0
3FC0
7800
7800
7000
7000
F000
F000
ENDCHAR
STARTCHAR 03A3
ENCODING 931
SWIDTH 468 0
DWIDTH 13 0
BBX 15 17 1 0
BITMAP
0FFE
1FFE
0FFE
0F00
0700
0780
0380
01C0
01E0
03C0
0780
1E00
3C00
7800
FFF0
FFF0
FFF0
ENDCHAR
STARTCHAR 03A4
ENCODING 932
SWIDTH 468 0
DWIDTH 13 0
BBX 13 17 4 0
BITMAP
FFF8
FFF0
FFF0
0E00
0E00
1E00
1E00
1C00
1C00
3C00
3C00
3800
3800
7800
7800
7000
7000
ENDCHAR
STARTCHAR 03A5
ENCODING 933
SWIDTH 468 0
DWIDTH 13 0
BBX 13 17 4 0
BITMAP
E078
E0F0
F0F0
71E0
71C0
73C0
7780
7F00
3E00
3C00
3C00
3C00
3800
3800
7800
7800
7000
ENDCHAR
STARTCHAR 03A6
ENCODING 934
SWIDTH 468 0
DWIDTH 13 0
BBX 13 18 2 0
BITMAP
01C0
01C0
0FF0
1FF8
3BB8
73B8
73B8
E338
E738
E738
E738
E670
EEF0
FFE0
7FC0
3F80
1C00
1C00
ENDCHAR
STARTCHAR 03A7
ENCODING 935
SWIDTH 468 0
DWIDTH 13 0
BBX 16 17 0 0
BITMAP
0F07
070F
079E
039C
03B8
03F8
01F0
01E0
01E0
03E0
07F0
0F70
1E70
1C78
3C78
7838
F038
ENDCHAR
STARTCHAR 03A8
ENCODING 936
SWIDTH 468 0
DWIDTH 13 0
BBX 15 17 2 0
BITMAP
380E
381C
301C
701C
739C
7398
6338
6738
E738
E770
7FF0
7FE0
3F80
0E00
0C00
1C00
1C00
ENDCHAR
STARTCHAR 03A9
ENCODING 937
SWIDTH 468 0
DWIDTH 13 0
BBX 15 18 0 0
BITMAP
0020
03FC
07FC
0FBE
0E0E
1E0E
1C0E
3C0E
3C0E
381E
381C
381C
3838
1C38
1C70
7CFC
FCF8
FDF8
ENDCHAR
STARTCHAR 03AA
ENCODING 938
SWIDTH 468 0
DWIDTH 13 0
BBX 15 23 1 0
BITMAP
0104
039E
039E
039C
0000
0000
0FFE
0FFE
1FFC
01C0
01C0
03C0
03C0
0380
0380
0380
0780
0700
0700
0700
7FE0
FFE0
FFE0
ENDCHAR
STARTCHAR 03AB
ENCODING 939
SWIDTH 468 0
DWIDTH 13 0
BBX 13 23 4 0
BITMAP
0820
1CF0
1CF0
1CE0
0000
0000
E078
E0F0
F0F0
71E0
71C0
73C0
7780
7F00
3E00
3C00
3C00
3C00
3800
3800
7800
7800
7000
ENDCHAR
STARTCHAR 03AC
ENCODING 940
SWIDTH 468 0
DWIDTH 13 0
BBX 13 20 2 0
BITMAP
0030
0078
00F0
00E0
01C0
0080
0000
0FF0
1FF0
3FF0
78F0
70F0
F0E0
E0E0
E1E0
E1E0
E1E0
FFF0
FFE0
7EE0
ENDCHAR
STARTCHAR 03AD
ENCODING 941
SWIDTH 468 0
DWIDTH 13 0
BBX 13 20 2 0
BITMAP
0030
0078
00F0
00E0
01C0
0080
0000
0FF8
3FF0
3E70
3800
3800
3F80
3F80
7F80
F000
E000
FDE0
FFE0
3FE0
ENDCHAR
STARTCHAR 03AE
ENCODING 942
SWIDTH 468 0
DWIDTH 13 0
BBX 14 25 1 -5
BITMAP
0018
003C
0078
0070
00E0
0040
0000
1FE0
1FF0
1FF8
3C78
3C78
3878
3870
3870
78F0
70F0
70E0
70E0
F1E0
01E0
01C0
01C0
03C0
03C0
ENDCHAR
STARTCHAR 03AF
ENCODING 943
SWIDTH 468 0
DWIDTH 13 0
BBX 11 20 3 0
BITMAP
00C0
01E0
03C0
0380
0700
0200
0000
7F00
FE00
FE00
0E00
1E00
1E00
1C00
1C00
3C00
3C00
3FC0
1FC0
1FC0
ENDCHAR
STARTCHAR 03B0
ENCODING 944
SWIDTH 468 0
DWIDTH 13 0
BBX 14 20 2 0
BITMAP
0080
08E8
1DDC
3DBC
1B18
0100
0000
3878
3870
3870
7870
78F0
70E0
70E0
F0E0
F1E0
F1C0
FFC0
7F80
3F00
ENDCHAR
STARTCHAR 03B1
ENCODING 945
SWIDTH 468 0
DWIDTH 13 0
BBX 12 13 2 0
BITMAP
0FF0
1FF0
3FF0
78F0
70F0
F0E0
E0E0
E1E0
E1E0
E1E0
FFF0
FFE0
7EE0
ENDCHAR
STARTCHAR 03B2
ENCODING 946
SWIDTH 468 0
DWIDTH 13 0
BBX 15 24 0 -5
BITMAP
01F8
03FC
07FE
071E
0F1E
0E1C
0E1C
0E78
1EF0
1EF8
1C78
1C3C
3C1C
3C3C
383C
3878
7FF8
7FF0
7FC0
7000
F000
F000
E000
E000
ENDCHAR
STARTCHAR 03B3
ENCODING 947
SWIDTH 468 0
DWIDTH 13 0
BBX 12 18 3 -5
BITMAP
F070
F0F0
F0F0
70E0
71E0
71C0
73C0
7380
7780
7F00
7E00
7C00
7800
7000
7000
7000
7000
7000
ENDCHAR
STARTCHAR 03B4
ENCODING 948
SWIDTH 468 0
DWIDTH 13 0
BBX 13 19 2 0
BITMAP
03F8
0FF8
0FF0
0E00
0E00
0F00
0780
1FC0
3FE0
79E0
70F0
F0F0
E0F0
E0F0
E0E0
F1E0
FFC0
7FC0
3F00
ENDCHAR
STARTCHAR 03B5
ENCODING 949
SWIDTH 468 0
DWIDTH 13 0
BBX 13 13 2 0
BITMAP
0FF8
3FF0
3E70
3800
3800
3F80
3F80
7F80
F000
E000
FDE0
FFE0
3FE0
ENDCHAR
STARTCHAR 03B6
ENCODING 950
SWIDTH 468 0
DWIDTH 13 0
BBX 13 24 3 -5
BITMAP
1FF8
1FF8
1FF8
00F0
03C0
0780
0F00
1E00
3C00
7800
7000
F000
E000
E000
F000
F000
FE00
7F80
1FC0
03C0
03C0
0380
0780
0100
ENDCHAR
STARTCHAR 03B7
ENCODING 951
SWIDTH 468 0
DWIDTH 13 0
BBX 13 18 1 -5
BITMAP
1FE0
1FF0
1FF8
3C78
3C78
3878
3870
3870
78F0
70F0
70E0
70E0
F1E0
01E0
01C0
01C0
03C0
03C0
ENDCHAR
STARTCHAR 03B8
ENCODING 952
SWIDTH 468 0
DWIDTH 13 0
BBX 13 19 2 0
BITMAP
03E0
0FF0
1FF8
1C78
3C38
3838
7838
7038
7FF8
7FF8
FFF8
E070
E070
E0F0
E0E0
F1E0
7FC0
7F80
3F00
ENDCHAR
STARTCHAR 03B9
ENCODING 953
SWIDTH 468 0
DWIDTH 13 0
BBX 10 13 3 0
BITMAP
7F00
FE00
FE00
0E00
1E00
1E00
1C00
1C00
3C00
3C00
3FC0
1FC0
1FC0
ENDCHAR
STARTCHAR 03BA
ENCODING 954
SWIDTH 468 0
DWIDTH 13 0
BBX 13 13 2 0
BITMAP
3C78
3CF0
39E0
3BC0
3F80
7F00
7F00
7780
7380
F3C0
F1C0
E1E0
E1E0
ENDCHAR
STARTCHAR 03BB
ENCODING 955
SWIDTH 468 0
DWIDTH 13 0
BBX 12 19 1 0
BITMAP
0F00
0F80
0FC0
01C0
01C0
01C0
01E0
03E0
07E0
07E0
0EE0
1EE0
1CE0
3CE0
78F0
78F0
F0F0
F0F0
E0F0
ENDCHAR
STARTCHAR 03BC
ENCODING 956
SWIDTH 468 0
DWIDTH 13 0
BBX 15 18 0 -5
BITMAP
0F1E
0E1C
0E1C
1E3C
1E3C
1C38
1C38
3C78
3C78
3C78
3FFC
7FF8
7FB8
7000
7000
7000
F000
E000
ENDCHAR
STARTCHAR 03BD
ENCODING 957
SWIDTH 468 0
DWIDTH 13 0
BBX 12 13 3 0
BITMAP
F070
F0F0
F0E0
F1E0
F1C0
F3C0
7380
7780
7700
7F00
7E00
7C00
3800
ENDCHAR
STARTCHAR 03BE
ENCODING 958
SWIDTH 468 0
DWIDTH 13 0
BBX 14 23 2 -5
BITMAP
01FC
07FC
0FF8
0F00
1E00
1E00
0E00
0FF0
07E0
1FE0
3E00
7800
7000
F000
F000
F800
7E00
3FC0
1FC0
03E0
01C0
03C0
0380
ENDCHAR
STARTCHAR 03BF
ENCODING 959
SWIDTH 468 0
DWIDTH 13 0
BBX 12 13 2 0
BITMAP
0FC0
1FE0
3FF0
78F0
7070
F070
E0F0
E0F0
E0E0
F1E0
FFC0
7F80
7F00
ENDCHAR
STARTCHAR 03C0
ENCODING 960
SWIDTH 468 0
DWIDTH 13 0
BBX 14 13 1 0
BITMAP
1FFC
1FF8
1FF8
3C38
3C78
3870
3870
3870
78F0
70F0
70E0
70E0
F1E0
ENDCHAR
STARTCHAR 03C1
ENCODING 961
SWIDTH 468 0
DWIDTH 13 0
BBX 14 18 0 -5
BITMAP
03F0
07F8
0FFC
1E3C
1C1C
1C1C
3C3C
3C3C
3838
3878
3FF0
7FE0
7FC0
7000
7000
F000
F000
E000
ENDCHAR
STARTCHAR 03C2
ENCODING 962
SWIDTH 468 0
DWIDTH 13 0
BBX 13 18 2 -5
BITMAP
07F8
1FF0
3FF0
3C00
7800
7000
F000
F000
F000
F800
7E00
3FC0
1FC0
03C0
01C0
03C0
0380
0100
ENDCHAR
STARTCHAR 03C3
ENCODING 963
SWIDTH 468 0
DWIDTH 13 0
BBX 14 13 2 0
BITMAP
07FC
1FFC
3FFC
78E0
F0E0
F0F0
E0E0
E0E0
E1E0
F1E0
FFC0
7F80
3F00
ENDCHAR
STARTCHAR 03C4
ENCODING 964
SWIDTH 468 0
DWIDTH 13 0
BBX 12 13 3 0
BITMAP
FFF0
FFF0
FFE0
1C00
3C00
3C00
3800
3800
7800
7800
7FC0
3FC0
1FC0
ENDCHAR
STARTCHAR 03C5
ENCODING 965
SWIDTH 468 0
DWIDTH 13 0
BBX 13 13 2 0
BITMAP
3878
3870
3870
7870
78F0
70E0
70E0
F0E0
F1E0
F1C0
FFC0
7F80
3F00
ENDCHAR
STARTCHAR 03C6
ENCODING 966
SWIDTH 468 0
DWIDTH 13 0
BBX 14 18 1 -5
BITMAP
07F0
1FF8
3DB8
7B98
739C
739C
E31C
E738
E738
7778
7EF0
3FE0
1F80
0E00
0C00
0C00
1C00
1C00
ENDCHAR
STARTCHAR 03C7
ENCODING 967
SWIDTH 468 0
DWIDTH 13 0
BBX 14 13 1 0
BITMAP
3C3C
1C38
1E70
0EF0
0FE0
07C0
0780
0FC0
1FC0
3DE0
79E0
70E0
E0F0
ENDCHAR
STARTCHAR 03C8
ENCODING 968
SWIDTH 468 0
DWIDTH 13 0
BBX 13 18 2 -5
BITMAP
7018
7038
7038
6738
E730
E730
E670
CE70
CE60
CEE0
EDE0
FFC0
7F80
1C00
1800
3800
3800
3800
ENDCHAR
STARTCHAR 03C9
ENCODING 969
SWIDTH 468 0
DWIDTH 13 0
BBX 13 13 1 0
BITMAP
0C38
1C38
3838
3818
7018
7398
E338
E738
E738
E738
FFF8
FFF0
79E0
ENDCHAR
STARTCHAR 03CA
ENCODING 970
SWIDTH 468 0
DWIDTH 13 0
BBX 12 19 3 0
BITMAP
0860
1CF0
1CF0
1C60
0000
0000
7F00
FE00
FE00
0E00
1E00
1E00
1C00
1C00
3C00
3C00
3FC0
1FC0
1FC0
ENDCHAR
STARTCHAR 03CB
ENCODING 971
SWIDTH 468 0
DWIDTH 13 0
BBX 13 19 2 0
BITMAP
0C20
0E70
1E70
0C70
0000
0000
3878
3870
3870
7870
78F0
70E0
70E0
F0E0
F1E0
F1C0
FFC0
7F80
3F00
ENDCHAR
STARTCHAR 03CC
ENCODING 972
SWIDTH 468 0
DWIDTH 13 0
BBX 13 20 2 0
BITMAP
0030
0078
00F0
00E0
01C0
0080
0000
0FC0
1FE0
3FF0
78F0
7070
F070
E0F0
E0F0
E0E0
F1E0
FFC0
7F80
7F00
ENDCHAR
STARTCHAR 03CD
ENCODING 973
SWIDTH 468 0
DWIDTH 13 0
BBX 13 20 2 0
BITMAP
0060
00F0
01E0
01C0
0380
0100
0000
3878
3870
3870
7870
78F0
70E0
70E0
F0E0
F1E0
F1C0
FFC0
7F80
3F00
ENDCHAR
STARTCHAR 03CE
ENCODING 974
SWIDTH 468 0
DWIDTH 13 0
BBX 13 20 1 0
BITMAP
0020
0070
00F0
01E0
01C0
0080
0000
0C38
1C38
3838
3818
7018
7398
E338
E738
E738
E738
FFF8
FFF0
79E0
ENDCHAR
STARTCHAR 0400
ENCODING 1024
SWIDTH 468 0
DWIDTH 13 0
BBX 14 23 2 0
BITMAP
0100
0380
03E0
01E0
0060
0000
1FFC
1FF8
1FF8
1C00
3C00
3C00
3FE0
3FE0
7FE0
7800
7000
7000
7000
F000
FFE0
FFE0
FFC0
ENDCHAR
STARTCHAR 0401
ENCODING 1025
SWIDTH 468 0
DWIDTH 13 0
BBX 14 23 2 0
BITMAP
0200
071C
073C
0738
0000
0000
1FFC
1FF8
1FF8
1C00
3C00
3C00
3FE0
3FE0
7FE0
7800
7000
7000
7000
F000
FFE0
FFE0
FFC0
ENDCHAR
STARTCHAR 0402
ENCODING 1026
SWIDTH 468 0
DWIDTH 13 0
BBX 12 17 2 0
BITMAP
3FF0
7FF0
7FF0
1E00
1C00
1C00
3FC0
3FE0
3FF0
38F0
3870
7870
7070
70F0
77E0
F7C0
E780
ENDCHAR
STARTCHAR 0403
ENCODING 1027
SWIDTH 468 0
DWIDTH 13 0
BBX 16 23 1 0
BITMAP
0004
001C
003E
0078
0020
0000
03FF
03FE
07FE
0780
0700
0700
0F00
0F00
0E00
0E00
1E00
1E00
1C00
1C00
FFC0
FF80
FF80
ENDCHAR
STARTCHAR 0404
ENCODING 1028
SWIDTH 468 0
DWIDTH 13 0
BBX 13 18 2 0
BITMAP
0040
03F8
0FF8
1FB8
1E00
3C00
3800
7800
7FC0
7FC0
7FC0
F000
F000
F000
7800
7FC0
3FE0
1FC0
ENDCHAR
STARTCHAR 0405
ENCODING 1029
SWIDTH 468 0
DWIDTH 13 0
BBX 14 18 1 0
BITMAP
0060
07FC
0FFC
1F38
1C00
1C00
1E00
1F00
0FC0
07E0
03F0
00F0
0070
0070
40F0
7FE0
FFE0
7F80
ENDCHAR
STARTCHAR 0406
ENCODING 1030
SWIDTH 468 0
DWIDTH 13 0
BBX 15 17 1 0
BITMAP
0FFE
0FFE
1FFC
01C0
01C0
03C0
03C0
0380
0380
0380
0780
0700
0700
0700
7FE0
FFE0
FFE0
ENDCHAR
STARTCHAR 0407
ENCODING 1031
SWIDTH 468 0
DWIDTH 13 0
BBX 15 23 1 0
BITMAP
0100
038E
039E
038C
0000
0000
0FFE
0FFE
1FFC
01C0
01C0
03C0
03C0
0380
0380
0380
0780
0700
0700
0700
7FE0
FFE0
FFE0
ENDCHAR
STARTCHAR 0408
ENCODING 1032
SWIDTH 468 0
DWIDTH 13 0
BBX 14 17 1 0
BITMAP
07FC
07FC
07FC
003C
0038
0038
0078
0078
0070
0070
0070
00F0
00E0
41E0
7FE0
FFC0
7F80
ENDCHAR
STARTCHAR 0409
ENCODING 1033
SWIDTH 468 0
DWIDTH 13 0
BBX 15 17 0 0
BITMAP
07F0
07F0
0670
0660
0E60
0EE0
0CF8
0CFC
1CDC
1DCE
19CE
398C
398C
739C
73B8
E3F8
C3E0
ENDCHAR
STARTCHAR 040A
ENCODING 1034
SWIDTH 468 0
DWIDTH 13 0
BBX 14 17 0 0
BITMAP
0E70
0E70
0C60
0C60
1CE0
1CE0
1FF8
1FFC
3FDC
39CC
39CC
318C
738C
739C
73B8
63F8
E7E0
ENDCHAR
STARTCHAR 040B
ENCODING 1035
SWIDTH 468 0
DWIDTH 13 0
BBX 12 17 2 0
BITMAP
3FF0
3FF0
7FF0
1E00
1E00
1C00
1FC0
3FE0
3FF0
38F0
38F0
38F0
78E0
70E0
70E0
71E0
F1E0
ENDCHAR
STARTCHAR 040C
ENCODING 1036
SWIDTH 468 0
DWIDTH 13 0
BBX 15 23 1 0
BITMAP
0010
0038
00F8
01F0
00C0
0000
0E1E
0E1C
1E3C
1E78
1CF0
1DE0
3FC0
3F80
3F80
3B80
7BC0
79C0
71E0
70E0
F0F0
F0F0
E070
ENDCHAR
STARTCHAR 040D
ENCODING 1037
SWIDTH 468 0
DWIDTH 13 0
BBX 15 23 1 0
BITMAP
0080
01C0
03E0
00F0
0020
0000
0E0E
1C1E
1C3E
1C7C
1C7C
3CFC
39DC
39B8
3BB8
3F38
7638
7E70
7C70
7870
F870
F0F0
E0E0
ENDCHAR
STARTCHAR 040E
ENCODING 1038
SWIDTH 468 0
DWIDTH 13 0
BBX 17 23 0 0
BITMAP
008400
01CE00
01FC00
00F800
000000
000000
0E0780
0F0700
0F0F00
0F0E00
071E00
073C00
07BC00
03F800
03F000
03F000
01E000
01E000
03C000
078000
7F0000
7E0000
FC0000
ENDCHAR
STARTCHAR 040F
ENCODING 1039
SWIDTH 468 0
DWIDTH 13 0
BBX 15 22 1 -5
BITMAP
0E0E
0E1E
1E1E
1C1C
1C1C
1C3C
3C3C
3C38
3838
3878
7878
7870
7070
70F0
FFF0
FFE0
FFE0
0E00
1E00
1C00
1C00
1C00
ENDCHAR
STARTCHAR 0410
ENCODING 1040
SWIDTH 468 0
DWIDTH 13 0
BBX 13 17 0 0
BITMAP
00F0
00F0
01F8
03F8
03B8
07B8
0738
0F38
0E38
1E38
1FF8
3FF8
3FF8
7838
7038
F038
F038
ENDCHAR
STARTCHAR 0411
ENCODING 1041
SWIDTH 468 0
DWIDTH 13 0
BBX 14 17 1 0
BITMAP
0FFC
0FF8
1FF8
1C00
1C00
1C00
3FC0
3FF0
3FF0
3878
7878
7878
7070
70F0
FFE0
FFC0
FF80
ENDCHAR
STARTCHAR 0412
ENCODING 1042
SWIDTH 468 0
DWIDTH 13 0
BBX 14 17 1 0
BITMAP
0FF0
0FF8
1FFC
1E1C
1C1C
1C3C
1CF8
3FF0
3FF0
39F8
3878
7838
7078
7078
7FF0
FFE0
FF80
ENDCHAR
STARTCHAR 0413
ENCODING 1043
SWIDTH 468 0
DWIDTH 13 0
BBX 16 17 1 0
BITMAP
03FF
03FE
07FE
0780
0700
0700
0F00
0F00
0E00
0E00
1E00
1E00
1C00
1C00
FFC0
FF80
FF80
ENDCHAR
STARTCHAR 0414
ENCODING 1044
SWIDTH 468 0
DWIDTH 13 0
BBX 17 22 -1 -5
BITMAP
00FF80
00FF00
01FF00
01CF00
01CF00
01CE00
038E00
039E00
039E00
071C00
071C00
0E1C00
0E3C00
1C3800
3FFC00
7FFC00
7FFC00
703C00
703800
F03800
E03800
E07800
ENDCHAR
STARTCHAR 0415
ENCODING 1045
SWIDTH 468 0
DWIDTH 13 0
BBX 14 17 2 0
BITMAP
1FFC
1FF8
1FF8
1C00
3C00
3C00
3FE0
3FE0
7FE0
7800
7000
7000
7000
F000
FFE0
FFE0
FFC0
ENDCHAR
STARTCHAR 0416
ENCODING 1046
SWIDTH 468 0
DWIDTH 13 0
BBX 17 17 0 0
BITMAP
0E7380
0E7300
0E6700
06E600
06EE00
06FC00
07F800
07F000
07F000
0FF000
1DB800
1BB800
3BB800
73B800
731800
E71800
E71800
ENDCHAR
STARTCHAR 0417
ENCODING 1047
SWIDTH 468 0
DWIDTH 13 0
BBX 15 18 0 0
BITMAP
0040
07F8
07FC
077E
001E
001C
001C
0078
07F0
07F0
0FF8
0038
003C
0038
0078
7FF8
FFF0
7FC0
ENDCHAR
STARTCHAR 0418
ENCODING 1048
SWIDTH 468 0
DWIDTH 13 0
BBX 15 17 1 0
BITMAP
0E0E
1C1E
1C3E
1C7C
1C7C
3CFC
39DC
39B8
3BB8
3F38
7638
7E70
7C70
7870
F870
F0F0
E0E0
ENDCHAR
STARTCHAR 0419
ENCODING 1049
SWIDTH 468 0
DWIDTH 13 0
BBX 15 23 1 0
BITMAP
018C
039E
01FC
00F8
0000
0000
0E0E
1C1E
1C3E
1C7C
1C7C
3CFC
39DC
39B8
3BB8
3F38
7638
7E70
7C70
7870
F870
F0F0
E0E0
ENDCHAR
STARTCHAR 041A
ENCODING 1050
SWIDTH 468 0
DWIDTH 13 0
BBX 15 17 1 0
BITMAP
0E1E
0E1C
1E3C
1E78
1CF0
1DE0
3FC0
3F80
3F80
3B80
7BC0
79C0
71E0
70E0
F0F0
F0F0
E070
ENDCHAR
STARTCHAR 041B
ENCODING 1051
SWIDTH 468 0
DWIDTH 13 0
BBX 16 17 0 0
BITMAP
01FF
01FF
01FF
038E
038E
038E
039E
071C
071C
071C
0E3C
0E3C
1E38
3C38
F878
F878
E070
ENDCHAR
STARTCHAR 041C
ENCODING 1052
SWIDTH 468 0
DWIDTH 13 0
BBX 16 17 0 0
BITMAP
070F
070F
0F1F
0F1E
0F3E
1DB6
1DFE
1DEE
39EE
39CC
399C
381C
701C
701C
7038
7038
E038
ENDCHAR
STARTCHAR 041D
ENCODING 1053
SWIDTH 468 0
DWIDTH 13 0
BBX 15 17 1 0
BITMAP
0E0E
1E1E
1E1E
1C1C
1C1C
3C3C
3C3C
3FF8
3FF8
3838
7878
7070
7070
7070
F0F0
F0F0
E0E0
ENDCHAR
STARTCHAR 041E
ENCODING 1054
SWIDTH 468 0
DWIDTH 13 0
BBX 13 18 2 0
BITMAP
0180
07E0
1FF0
1EF8
3C78
7838
7038
7078
F078
F078
E070
E070
E0F0
E0E0
F1E0
FFC0
7F80
3F00
ENDCHAR
STARTCHAR 041F
ENCODING 1055
SWIDTH 468 0
DWIDTH 13 0
BBX 15 17 1 0
BITMAP
0FFE
1FFE
1FFE
1C1C
1C1C
1C3C
3C3C
3838
3838
3878
7878
7870
7070
7070
F0F0
F0E0
E0E0
ENDCHAR
STARTCHAR 0420
ENCODING 1056
SWIDTH 468 0
DWIDTH 13 0
BBX 14 17 1 0
BITMAP
0FF0
0FFC
0FFC
1E1C
1C1C
1C1C
1C1C
3C3C
3FF8
3FF0
3FC0
7800
7800
7000
7000
F000
F000
ENDCHAR
STARTCHAR 0421
ENCODING 1057
SWIDTH 468 0
DWIDTH 13 0
BBX 13 18 2 0
BITMAP
0040
03F8
0FF8
1FB8
1E00
3C00
3800
7800
7000
7000
7000
F000
F000
F000
7800
7FE0
3FE0
1FC0
ENDCHAR
STARTCHAR 0422
ENCODING 1058
SWIDTH 468 0
DWIDTH 13 0
BBX 13 17 4 0
BITMAP
FFF8
FFF0
FFF0
0E00
0E00
1E00
1E00
1C00
1C00
3C00
3C00
3800
3800
7800
7800
7000
7000
ENDCHAR
STARTCHAR 0423
ENCODING 1059
SWIDTH 468 0
DWIDTH 13 0
BBX 17 17 0 0
BITMAP
0E0780
0F0700
0F0F00
0F0E00
071E00
073C00
07BC00
03F800
03F000
03F000
01E000
01E000
03C000
078000
7F0000
7E0000
FC0000
ENDCHAR
STARTCHAR 0424
ENCODING 1060
SWIDTH 468 0
DWIDTH 13 0
BBX 13 18 2 0
BITMAP
01C0
01C0
0FF0
1FF8
3BB8
73B8
73B8
E338
E738
E738
E738
E670
EEF0
FFE0
7FC0
3F80
1C00
1C00
ENDCHAR
STARTCHAR 0425
ENCODING 1061
SWIDTH 468 0
DWIDTH 13 0
BBX 16 17 0 0
BITMAP
0F07
070F
079E
039C
03B8
03F8
01F0
01E0
01E0
03E0
07F0
0F70
1E70
1C78
3C78
7838
F038
ENDCHAR
STARTCHAR 0426
ENCODING 1062
SWIDTH 468 0
DWIDTH 13 0
BBX 14 22 1 -5
BITMAP
0E1C
1E1C
1E1C
1C3C
1C3C
1C38
3C38
3878
3878
3870
7870
70F0
70F0
70E0
FFF0
FFF0
FFF0
00F0
00E0
00E0
00E0
01E0
ENDCHAR
STARTCHAR 0427
ENCODING 1063
SWIDTH 468 0
DWIDTH 13 0
BBX 13 17 3 0
BITMAP
7878
7878
7070
7070
70F0
F0F0
F0E0
F0E0
FFE0
7FE0
3FC0
01C0
01C0
03C0
0380
0380
0380
ENDCHAR
STARTCHAR 0428
ENCODING 1064
SWIDTH 468 0
DWIDTH 13 0
BBX 17 17 0 0
BITMAP
0E0380
0E0300
0C0700
1C0700
1C0700
1C0600
18CE00
39CE00
39CE00
39CE00
319C00
739C00
739C00
739C00
7FF800
FFF800
FFF800
ENDCHAR
STARTCHAR 0429
ENCODING 1065
SWIDTH 468 0
DWIDTH 13 0
BBX 15 22 1 -5
BITMAP
0C0E
1C0E
1C0E
180C
181C
381C
399C
3B98
33B8
7338
7338
7730
6730
E770
FFF8
FFF8
FFF0
0070
0070
0070
0060
00E0
ENDCHAR
STARTCHAR 042A
ENCODING 1066
SWIDTH 468 0
DWIDTH 13 0
BBX 12 17 2 0
BITMAP
3E00
3E00
7E00
1E00
1C00
1C00
1FC0
3FE0
3FF0
38F0
3870
78F0
78F0
71E0
7FE0
FFC0
FF00
ENDCHAR
STARTCHAR 042B
ENCODING 1067
SWIDTH 468 0
DWIDTH 13 0
BBX 16 17 0 0
BITMAP
0E03
0E03
0C07
0C07
1C07
1C06
1F8E
1FCE
39CE
39CC
39DC
31DC
71DC
7398
77B8
7F38
FE38
ENDCHAR
STARTCHAR 042C
ENCODING 1068
SWIDTH 468 0
DWIDTH 13 0
BBX 13 17 1 0
BITMAP
0E00
0E00
1E00
1E00
1C00
1C00
3FE0
3FF0
3FF8
3878
3878
7878
7078
70F0
7FF0
FFE0
FF80
ENDCHAR
STARTCHAR 042D
ENCODING 1069
SWIDTH 468 0
DWIDTH 13 0
BBX 14 18 1 0
BITMAP
0380
1FE0
0FF0
0DF8
0078
0038
003C
003C
07F8
07F8
0FF8
0078
0078
00F0
01F0
7FE0
FFC0
7F00
ENDCHAR
STARTCHAR 042E
ENCODING 1070
SWIDTH 468 0
DWIDTH 13 0
BBX 15 18 1 0
BITMAP
0010
1C7C
1CFC
19CC
19CE
398C
3B8C
3B8C
3F0C
7F1C
771C
771C
6718
E738
E730
E770
C7E0
C3C0
ENDCHAR
STARTCHAR 042F
ENCODING 1071
SWIDTH 468 0
DWIDTH 13 0
BBX 16 17 0 0
BITMAP
01FF
03FF
07DE
0F0E
0E1E
0E1E
0E1C
0F1C
0FFC
07FC
07F8
0E38
1E78
3C78
3870
7870
F070
ENDCHAR
STARTCHAR 0430
ENCODING 1072
SWIDTH 468 0
DWIDTH 13 0
BBX 12 13 2 0
BITMAP
0FF0
1FF0
3FF0
78F0
70F0
F0E0
E0E0
E1E0
E1E0
E1E0
FFE0
FFE0
7EE0
ENDCHAR
STARTCHAR 0431
ENCODING 1073
SWIDTH 468 0
DWIDTH 13 0
BBX 14 19 2 0
BITMAP
00FC
03FC
0FF8
1F00
1C00
3C00
3B80
7FE0
7FE0
78F0
F0F0
E070
E0F0
E0F0
E0E0
E1E0
FFC0
7FC0
3F00
ENDCHAR
STARTCHAR 0432
ENCODING 1074
SWIDTH 468 0
DWIDTH 13 0
BBX 13 13 1 0
BITMAP
07F0
0FF8
1E78
3C38
3870
3FF0
3FE0
79F0
7070
7070
71F0
FFE0
FFC0
ENDCHAR
STARTCHAR 0433
ENCODING 1075
SWIDTH 468 0
DWIDTH 13 0
BBX 12 13 2 0
BITMAP
3FE0
3FE0
19F0
00F0
01E0
07E0
3FC0
7E00
F000
E000
FBC0
FFC0
7FC0
ENDCHAR
STARTCHAR 0434
ENCODING 1076
SWIDTH 468 0
DWIDTH 13 0
BBX 12 19 2 0
BITMAP
1F80
1FC0
1FE0
00F0
0070
0070
07F0
1FF0
3FF0
7870
7070
F070
E0F0
E0F0
E0E0
F1E0
FFC0
7F80
3F00
ENDCHAR
STARTCHAR 0435
ENCODING 1077
SWIDTH 468 0
DWIDTH 13 0
BBX 13 13 2 0
BITMAP
0FE0
1FF0
3EF0
7878
7070
F1F0
FFE0
FF80
E000
F000
7DC0
7FC0
3FC0
ENDCHAR
STARTCHAR 0436
ENCODING 1078
SWIDTH 468 0
DWIDTH 13 0
BBX 16 13 0 0
BITMAP
38C7
3CCF
1CDC
0CD8
0DD8
1FF8
1FF8
19B0
1BB0
3B30
3338
F33C
E71C
ENDCHAR
STARTCHAR 0437
ENCODING 1079
SWIDTH 468 0
DWIDTH 13 0
BBX 13 13 1 0
BITMAP
1FF0
1FF0
1CF8
0078
0070
0FE0
0FC0
0FF0
00F0
00F0
77F0
FFE0
FF80
ENDCHAR
STARTCHAR 0438
ENCODING 1080
SWIDTH 468 0
DWIDTH 13 0
BBX 12 13 2 0
BITMAP
3870
3870
7870
78F0
70E0
70E0
F0E0
F1E0
F1E0
F1C0
FFE0
7FE0
7EE0
ENDCHAR
STARTCHAR 0439
ENCODING 1081
SWIDTH 468 0
DWIDTH 13 0
BBX 12 19 2 0
BITMAP
0E30
0E70
0FF0
07C0
0000
0000
3870
3870
7870
78F0
70E0
70E0
F0E0
F1E0
F1E0
F1C0
FFE0
7FE0
7EE0
ENDCHAR
STARTCHAR 043A
ENCODING 1082
SWIDTH 468 0
DWIDTH 13 0
BBX 13 13 2 0
BITMAP
3C78
3CF0
39E0
3BC0
3F80
7F00
7F00
7780
7380
F3C0
F1C0
E1E0
E1E0
ENDCHAR
STARTCHAR 043B
ENCODING 1083
SWIDTH 468 0
DWIDTH 13 0
BBX 15 13 0 0
BITMAP
03FE
03FC
07FC
071C
073C
0F3C
0E38
0E38
1E78
3C78
F870
F870
E0F0
ENDCHAR
STARTCHAR 043C
ENCODING 1084
SWIDTH 468 0
DWIDTH 13 0
BBX 15 13 0 0
BITMAP
0E0E
0E1E
1E3E
1E3C
1F7C
3B6C
3BDC
3BDC
739C
739C
7038
7038
E038
ENDCHAR
STARTCHAR 043D
ENCODING 1085
SWIDTH 468 0
DWIDTH 13 0
BBX 14 13 1 0
BITMAP
1E3C
1C38
1C38
3C38
3C78
3FF8
3FF0
7FF0
78F0
70F0
70E0
F0E0
F1E0
ENDCHAR
STARTCHAR 043E
ENCODING 1086
SWIDTH 468 0
DWIDTH 13 0
BBX 12 13 2 0
BITMAP
0FC0
1FE0
3FF0
78F0
7070
F070
E0F0
E0F0
E0E0
F1E0
FFC0
7F80
7F00
ENDCHAR
STARTCHAR 043F
ENCODING 1087
SWIDTH 468 0
DWIDTH 13 0
BBX 13 13 1 0
BITMAP
1FF0
1FF0
1FF8
3C78
3C78
3878
3870
3870
78F0
78F0
70E0
70E0
F1E0
ENDCHAR
STARTCHAR 0440
ENCODING 1088
SWIDTH 468 0
DWIDTH 13 0
BBX 14 18 0 -5
BITMAP
0FF0
0FF8
0F7C
1E3C
1E1C
1C1C
1C3C
3C3C
3C78
38F8
3FF0
7FE0
7FC0
7000
7000
F000
F000
E000
ENDCHAR
STARTCHAR 0441
ENCODING 1089
SWIDTH 468 0
DWIDTH 13 0
BBX 13 13 2 0
BITMAP
07F8
1FF0
3FF0
7C00
7800
F000
F000
F000
F000
F000
7FC0
7FE0
3FE0
ENDCHAR
STARTCHAR 0442
ENCODING 1090
SWIDTH 468 0
DWIDTH 13 0
BBX 14 13 1 0
BITMAP
1F78
3FFC
3BDC
3B9C
3398
73B8
7338
7738
6030
E070
E070
E070
C070
ENDCHAR
STARTCHAR 0443
ENCODING 1091
SWIDTH 468 0
DWIDTH 13 0
BBX 16 18 -1 -5
BITMAP
0F0F
0F0F
0F0E
0F1E
0F1C
071C
0738
0738
0770
07F0
03E0
03E0
03C0
0780
0F00
FE00
FC00
7000
ENDCHAR
STARTCHAR 0444
ENCODING 1092
SWIDTH 468 0
DWIDTH 13 0
BBX 14 24 1 -5
BITMAP
0060
00E0
00E0
00E0
00C0
01C0
07E0
1FF8
3DB8
7B98
739C
739C
E31C
E738
E738
7778
7EF0
3FE0
1F80
0E00
0C00
0C00
1C00
1C00
ENDCHAR
STARTCHAR 0445
ENCODING 1093
SWIDTH 468 0
DWIDTH 13 0
BBX 14 13 1 0
BITMAP
3C3C
1C38
1E70
0EF0
0FE0
07C0
0780
0FC0
1FC0
3DE0
79E0
70E0
E0F0
ENDCHAR
STARTCHAR 0446
ENCODING 1094
SWIDTH 468 0
DWIDTH 13 0
BBX 12 17 2 -4
BITMAP
3870
38F0
78F0
70E0
70E0
71E0
F1E0
F1C0
E1C0
E3C0
FFE0
FFE0
7EE0
00E0
00E0
01E0
01C0
ENDCHAR
STARTCHAR 0447
ENCODING 1095
SWIDTH 468 0
DWIDTH 13 0
BBX 12 13 2 0
BITMAP
7870
7870
70F0
70F0
F0E0
F0E0
7FE0
7FE0
3FE0
01C0
01C0
03C0
03C0
ENDCHAR
STARTCHAR 0448
ENCODING 1096
SWIDTH 468 0
DWIDTH 13 0
BBX 14 13 1 0
BITMAP
381C
381C
381C
3398
73B8
7338
7738
6730
E730
E670
E770
FFF0
7FB0
ENDCHAR
STARTCHAR 0449
ENCODING 1097
SWIDTH 468 0
DWIDTH 13 0
BBX 14 17 1 -4
BITMAP
381C
381C
3018
73B8
7338
7338
6730
E770
E670
E670
EE70
FFF8
7FB0
0030
0030
0070
0070
ENDCHAR
STARTCHAR 044A
ENCODING 1098
SWIDTH 468 0
DWIDTH 13 0
BBX 12 13 2 0
BITMAP
7E00
7C00
FC00
3C00
3F00
3FE0
3FE0
78F0
78F0
70F0
71E0
FFE0
FF80
ENDCHAR
STARTCHAR 044B
ENCODING 1099
SWIDTH 468 0
DWIDTH 13 0
BBX 14 13 1 0
BITMAP
380C
381C
381C
301C
7C18
7F18
7F38
63B8
63B0
E330
E770
FE70
FC60
ENDCHAR
STARTCHAR 044C
ENCODING 1100
SWIDTH 468 0
DWIDTH 13 0
BBX 13 13 1 0
BITMAP
1E00
1C00
1C00
3C00
3F80
3FE0
3FF0
7878
7878
7070
71F0
7FE0
FFC0
ENDCHAR
STARTCHAR 044D
ENCODING 1101
SWIDTH 468 0
DWIDTH 13 0
BBX 13 13 1 0
BITMAP
1FC0
1FF0
1FF0
0078
0078
0FF8
0FF8
0FF0
0070
00F0
7FE0
7FC0
FF80
ENDCHAR
STARTCHAR 044E
ENCODING 1102
SWIDTH 468 0
DWIDTH 13 0
BBX 15 13 0 0
BITMAP
1C7C
1CFC
19CE
19CE
398E
3F8E
3F8C
3F0C
731C
731C
73B8
63F0
E1E0
ENDCHAR
STARTCHAR 044F
ENCODING 1103
SWIDTH 468 0
DWIDTH 13 0
BBX 15 13 0 0
BITMAP
03FE
0FFE
1F1C
1C1C
1C1C
1E3C
1FFC
0FF8
0E38
1C78
3C78
7870
F070
ENDCHAR
STARTCHAR 0450
ENCODING 1104
SWIDTH 468 0
DWIDTH 13 0
BBX 13 19 2 0
BITMAP
0300
0380
07C0
01E0
0040
0000
0FE0
1FF0
3EF0
7878
7070
F1F0
FFE0
FF80
E000
F000
7DC0
7FC0
3FC0
ENDCHAR
STARTCHAR 0451
ENCODING 1105
SWIDTH 468 0
DWIDTH 13 0
BBX 13 19 2 0
BITMAP
0410
0E78
0E78
0E30
0000
0000
0FE0
1FF0
3EF0
7878
7070
F1F0
FFE0
FF80
E000
F000
7DC0
7FC0
3FC0
ENDCHAR
STARTCHAR 0452
ENCODING 1106
SWIDTH 468 0
DWIDTH 13 0
BBX 12 24 2 -5
BITMAP
0E00
0E00
3FE0
3FC0
1C00
1C00
1FE0
3FE0
3FF0
38F0
38F0
78F0
78E0
70E0
71E0
F1E0
F1C0
E1C0
E3C0
03C0
0780
1F80
1F00
0C00
ENDCHAR
STARTCHAR 0453
ENCODING 1107
SWIDTH 468 0
DWIDTH 13 0
BBX 12 19 2 0
BITMAP
0040
01E0
03E0
0780
0200
0000
3FE0
3FE0
19F0
00F0
01E0
07E0
3FC0
7E00
F000
E000
FBC0
FFC0
7FC0
ENDCHAR
STARTCHAR 0454
ENCODING 1108
SWIDTH 468 0
DWIDTH 13 0
BBX 13 13 2 0
BITMAP
07F8
1FF0
3FF0
7C00
7800
7F80
FF80
FF80
F000
7800
7FC0
7FE0
1FC0
ENDCHAR
STARTCHAR 0455
ENCODING 1109
SWIDTH 468 0
DWIDTH 13 0
BBX 12 13 2 0
BITMAP
0FF0
1FF0
3EE0
3800
3C00
3F00
1FC0
07C0
01E0
01E0
FFC0
FFC0
FF00
ENDCHAR
STARTCHAR 0456
ENCODING 1110
SWIDTH 468 0
DWIDTH 13 0
BBX 10 19 3 0
BITMAP
0700
0F80
0F80
0F00
0000
0000
7F00
FE00
FE00
0E00
1E00
1E00
1C00
1C00
3C00
3C00
3FC0
1FC0
1FC0
ENDCHAR
STARTCHAR 0457
ENCODING 1111
SWIDTH 468 0
DWIDTH 13 0
BBX 11 19 3 0
BITMAP
1040
39E0
39E0
38C0
0000
0000
7F00
FE00
FE00
0E00
1E00
1E00
1C00
1C00
3C00
3C00
3FC0
1FC0
1FC0
ENDCHAR
STARTCHAR 0458
ENCODING 1112
SWIDTH 468 0
DWIDTH 13 0
BBX 13 24 0 -5
BITMAP
0038
0078
0078
0078
0000
0000
0FF8
0FF8
0FF8
0070
0070
00F0
00F0
00E0
00E0
01E0
01E0
01C0
01C0
03C0
6780
FF80
FF00
1C00
ENDCHAR
STARTCHAR 0459
ENCODING 1113
SWIDTH 468 0
DWIDTH 13 0
BBX 14 13 0 0
BITMAP
0FE0
0FE0
0CC0
0CC0
1DC0
19F8
19FC
199C
398C
339C
F39C
E3F8
C3F0
ENDCHAR
STARTCHAR 045A
ENCODING 1114
SWIDTH 468 0
DWIDTH 13 0
BBX 13 13 1 0
BITMAP
39C0
3980
3980
3380
7380
7FF0
7FF8
6338
6738
E738
E630
C7F0
CFE0
ENDCHAR
STARTCHAR 045B
ENCODING 1115
SWIDTH 468 0
DWIDTH 13 0
BBX 12 19 2 0
BITMAP
0E00
0E00
3FE0
3FC0
1C00
1C00
1FE0
3FE0
3FF0
38F0
38F0
78F0
78E0
70E0
71E0
F1E0
F1C0
E1C0
E3C0
ENDCHAR
STARTCHAR 045C
ENCODING 1116
SWIDTH 468 0
DWIDTH 13 0
BBX 13 19 2 0
BITMAP
0060
00E0
03F0
03C0
0100
0000
3C78
3CF0
39E0
3BC0
3F80
7F00
7F00
7780
7380
F3C0
F1C0
E1E0
E1E0
ENDCHAR
STARTCHAR 045D
ENCODING 1117
SWIDTH 468 0
DWIDTH 13 0
BBX 12 19 2 0
BITMAP
0600
0700
0FC0
03C0
0080
0000
3870
3870
7870
78F0
70E0
70E0
F0E0
F1E0
F1E0
F1C0
FFE0
7FE0
7EE0
ENDCHAR
STARTCHAR 045E
ENCODING 1118
SWIDTH 468 0
DWIDTH 13 0
BBX 16 24 -1 -5
BITMAP
018C
01DE
01FC
00F8
0000
0000
0F0F
0F0F
0F0E
0F1E
0F1C
071C
0738
0738
0770
07F0
03E0
03E0
03C0
0780
0F00
FE00
FC00
7000
ENDCHAR
STARTCHAR 045F
ENCODING 1119
SWIDTH 468 0
DWIDTH 13 0
BBX 12 18 2 -5
BITMAP
3870
3870
7870
78F0
70E0
70E0
F0E0
F1E0
F1E0
F1C0
FFE0
7FE0
7EE0
0000
1C00
1C00
3C00
3800
ENDCHAR
STARTCHAR 0462
ENCODING 1122
SWIDTH 468 0
DWIDTH 13 0
BBX 12 18 2 0
BITMAP
0F00
3FF0
3FE0
3FE0
1E00
1C00
1C00
1F80
3FE0
3FE0
38F0
3870
78F0
70F0
71E0
7FE0
FFC0
FF00
ENDCHAR
STARTCHAR 0463
ENCODING 1123
SWIDTH 468 0
DWIDTH 13 0
BBX 14 13 0 0
BITMAP
1F80
1FC0
19C0
39C0
39C0
39F8
31FC
739C
739C
739C
6318
E7F8
E7F0
ENDCHAR
STARTCHAR 0472
ENCODING 1138
SWIDTH 468 0
DWIDTH 13 0
BBX 13 18 2 0
BITMAP
0180
07E0
1FF0
1EF8
3C78
7838
7038
7078
FE78
FFF8
E3F0
E070
E0F0
E0E0
F1E0
FFC0
7F80
3F00
ENDCHAR
STARTCHAR 0473
ENCODING 1139
SWIDTH 468 0
DWIDTH 13 0
BBX 12 13 2 0
BITMAP
0FC0
1FE0
3FF0
78F0
7070
FE70
FFF0
E7F0
E0E0
F1E0
FFC0
7F80
7F00
ENDCHAR
STARTCHAR 0474
ENCODING 1140
SWIDTH 468 0
DWIDTH 13 0
BBX 15 17 3 0
BITMAP
703E
F07C
F0F0
F0E0
F1E0
F1C0
F3C0
F380
7380
7700
7700
7E00
7E00
7C00
7C00
7800
7800
ENDCHAR
STARTCHAR 0475
ENCODING 1141
SWIDTH 468 0
DWIDTH 13 0
BBX 13 13 3 0
BITMAP
E0F8
E1F8
E1E0
E380
E380
E700
EF00
EE00
FE00
FC00
7800
7800
7000
ENDCHAR
STARTCHAR 048A
ENCODING 1162
SWIDTH 468 0
DWIDTH 13 0
BBX 15 27 1 -5
BITMAP
0188
039C
03FC
01F8
0000
0000
0E1E
1C3C
1C3C
1C7C
1CFC
3CF8
39F8
3BB8
3B38
3F70
7670
7C70
7C70
78E0
F0F8
F0F0
E0F0
00F0
00E0
01C0
0180
ENDCHAR
STARTCHAR 048B
ENCODING 1163
SWIDTH 468 0
DWIDTH 13 0
BBX 12 22 2 -4
BITMAP
0E30
0E70
0FF0
07C0
0000
0000
3870
3870
7870
78F0
70E0
70E0
F0E0
F1E0
F1E0
F1C0
FFE0
7FF0
7EE0
00E0
01C0
0380
ENDCHAR
STARTCHAR 048C
ENCODING 1164
SWIDTH 468 0
DWIDTH 13 0
BBX 12 17 2 0
BITMAP
1E00
3F80
7F80
7F80
1C00
3C00
3F80
3FE0
3FE0
78F0
70F0
70F0
70E0
F1E0
FFC0
FF80
FF00
ENDCHAR
STARTCHAR 048D
ENCODING 1165
SWIDTH 468 0
DWIDTH 13 0
BBX 12 14 2 0
BITMAP
1E00
1C00
7FC0
7F80
3C00
3800
3FC0
3FE0
78F0
70F0
70F0
73E0
FFC0
FF80
ENDCHAR
STARTCHAR 048E
ENCODING 1166
SWIDTH 468 0
DWIDTH 13 0
BBX 14 17 1 0
BITMAP
0FF0
0FFC
0FFC
1E1C
1C1C
1C1C
1DDC
3DFC
3FF8
3FF0
3FE0
7870
7870
7040
7000
F000
F000
ENDCHAR
STARTCHAR 048F
ENCODING 1167
SWIDTH 468 0
DWIDTH 13 0
BBX 14 18 0 -5
BITMAP
0FF0
0FF8
0F7C
1E1C
1E1C
1C1C
1C1C
3CBC
3DF8
39F8
3FF0
7FE0
7FE0
7060
7070
F040
F000
E000
ENDCHAR
STARTCHAR 0490
ENCODING 1168
SWIDTH 468 0
DWIDTH 13 0
BBX 16 20 1 0
BITMAP
0007
0007
0007
03FF
03FE
07FE
0780
0700
0700
0F00
0F00
0E00
0E00
1E00
1E00
1C00
1C00
FFC0
FF80
FF80
ENDCHAR
STARTCHAR 0491
ENCODING 1169
SWIDTH 468 0
DWIDTH 13 0
BBX 14 16 2 0
BITMAP
003C
0038
0038
1FF8
1FF8
3FF0
3C00
3800
3800
7800
7800
7000
7000
7000
F000
E000
ENDCHAR
STARTCHAR 0492
ENCODING 1170
SWIDTH 468 0
DWIDTH 13 0
BBX 16 17 1 0
BITMAP
03FF
03FE
07FE
0780
0700
0700
0F00
3FE0
7FE0
7FE0
1E00
1E00
1C00
1C00
FFC0
FF80
FF80
ENDCHAR
STARTCHAR 0493
ENCODING 1171
SWIDTH 468 0
DWIDTH 13 0
BBX 12 13 2 0
BITMAP
3FE0
3FE0
11F0
00F0
30E0
7FE0
1F80
7FE0
F060
E000
F0C0
FFC0
7FC0
ENDCHAR
STARTCHAR 0494
ENCODING 1172
SWIDTH 468 0
DWIDTH 13 0
BBX 14 22 1 -5
BITMAP
0FFC
0FFC
1FF8
1E00
1C00
1C00
3FC0
3FE0
3FF0
3870
7870
7878
7078
7070
F070
F0F0
E0F0
01E0
07E0
1FC0
1F00
1800
ENDCHAR
STARTCHAR 0495
ENCODING 1173
SWIDTH 468 0
DWIDTH 13 0
BBX 11 18 2 -5
BITMAP
1FE0
3FE0
3FE0
3800
3800
7F80
7FC0
7FE0
70E0
F0E0
F0E0
E0E0
E0E0
01E0
03C0
1FC0
1F00
1C00
ENDCHAR
STARTCHAR 0496
ENCODING 1174
SWIDTH 468 0
DWIDTH 13 0
BBX 17 22 0 -5
BITMAP
0E7380
0E7300
0E6700
06E600
06EE00
06FC00
07F800
07F000
07F000
0FF000
1DB800
1BB800
3BB800
73B800
731C00
E71C00
E71C00
001800
001800
003800
003800
003000
ENDCHAR
STARTCHAR 0497
ENCODING 1175
SWIDTH 468 0
DWIDTH 13 0
BBX 16 17 0 -4
BITMAP
38C7
3CCF
1CDC
0CD8
0DD8
1FF8
1FF8
19B0
1BB0
3B30
3338
F33C
E718
0018
0018
0038
0038
ENDCHAR
STARTCHAR 0498
ENCODING 1176
SWIDTH 468 0
DWIDTH 13 0
BBX 15 23 0 -5
BITMAP
0040
07F8
07FC
077E
001E
001C
001C
0078
07F0
07F0
0FF8
0038
003C
0038
0078
7FF8
FFF0
7FC0
0600
0700
0700
1F00
1C00
ENDCHAR
STARTCHAR 0499
ENCODING 1177
SWIDTH 468 0
DWIDTH 13 0
BBX 13 18 1 -5
BITMAP
1FF0
1FF0
1CF8
0078
0070
0FE0
0FC0
0FF0
00F0
00F0
77F0
FFE0
FF80
0C00
0E00
0600
3E00
3800
ENDCHAR
STARTCHAR 049A
ENCODING 1178
SWIDTH 468 0
DWIDTH 13 0
BBX 15 22 1 -5
BITMAP
0E1E
0E3C
1E38
1E78
1CF0
1DE0
3FC0
3F80
3F80
3B80
7BC0
79C0
71E0
70E0
70F8
F0F0
E0F0
0070
0070
0060
00E0
00E0
ENDCHAR
STARTCHAR 049B
ENCODING 1179
SWIDTH 468 0
DWIDTH 13 0
BBX 13 17 2 -4
BITMAP
3C78
3CF0
39E0
3BC0
3F80
7F00
7F00
7780
7380
F3C0
F3F0
E1E0
E1E0
00E0
00E0
01C0
01C0
ENDCHAR
STARTCHAR 049C
ENCODING 1180
SWIDTH 468 0
DWIDTH 13 0
BBX 16 17 1 0
BITMAP
1C0F
1C0E
1C1C
1DBC
39B8
3B70
3BE0
3FE0
7FC0
76E0
76E0
76E0
F670
E070
E070
E070
E070
ENDCHAR
STARTCHAR 049D
ENCODING 1181
SWIDTH 468 0
DWIDTH 13 0
BBX 15 13 1 0
BITMAP
1C0E
381C
3B38
3B70
3BE0
7FC0
7FC0
76E0
76E0
F6E0
E070
E070
E070
ENDCHAR
STARTCHAR 049E
ENCODING 1182
SWIDTH 468 0
DWIDTH 13 0
BBX 15 18 2 0
BITMAP
0E00
1E1E
3F3C
7F78
1C70
1CE0
3DC0
3B80
3F00
3F00
7F80
7380
73C0
71C0
F1E0
E0E0
E0E0
E0E0
ENDCHAR
STARTCHAR 049F
ENCODING 1183
SWIDTH 468 0
DWIDTH 13 0
BBX 13 14 2 0
BITMAP
1C00
7E38
7E70
38E0
39C0
3F80
7F00
7F00
7780
7380
F3C0
E1C0
E1E0
E1E0
ENDCHAR
STARTCHAR 04A0
ENCODING 1184
SWIDTH 468 0
DWIDTH 13 0
BBX 15 17 2 0
BITMAP
3E1E
3E3C
7E78
1E70
1CF0
1DE0
1FC0
1F80
3F80
3B80
3BC0
39C0
79C0
71E0
70E0
70E0
F0E0
ENDCHAR
STARTCHAR 04A1
ENCODING 1185
SWIDTH 468 0
DWIDTH 13 0
BBX 13 13 2 0
BITMAP
7C38
7C70
7CF0
1DE0
3BC0
3F80
3F00
3B80
7BC0
73C0
71C0
71E0
F1E0
ENDCHAR
STARTCHAR 04A2
ENCODING 1186
SWIDTH 468 0
DWIDTH 13 0
BBX 14 22 1 -5
BITMAP
0E1C
1E1C
1E1C
1C3C
1C3C
1C38
3C38
3FF8
3FF8
3870
7870
70F0
70F0
70E0
F0F0
E1F0
E1F0
00F0
00E0
00E0
00E0
01E0
ENDCHAR
STARTCHAR 04A3
ENCODING 1187
SWIDTH 468 0
DWIDTH 13 0
BBX 13 17 1 -4
BITMAP
1C38
1C38
1C38
3C78
3C70
3FF0
3FF0
7FF0
78E0
70E0
70F0
F1F0
F1F0
00E0
00E0
00E0
00E0
ENDCHAR
STARTCHAR 04A4
ENCODING 1188
SWIDTH 468 0
DWIDTH 13 0
BBX 16 17 1 0
BITMAP
0E1F
1E3F
1E3F
1C38
1C38
3C78
3C78
3FF0
3FF0
3870
78F0
70E0
70E0
70E0
F1E0
F1E0
E1C0
ENDCHAR
STARTCHAR 04A5
ENCODING 1189
SWIDTH 468 0
DWIDTH 13 0
BBX 15 13 1 0
BITMAP
1E7E
1C7E
1C7C
3CF0
3CF0
3FE0
3FE0
7FE0
79E0
71C0
71C0
F3C0
F3C0
ENDCHAR
STARTCHAR 04A6
ENCODING 1190
SWIDTH 468 0
DWIDTH 13 0
BBX 13 22 1 -5
BITMAP
1FE0
1FC0
1DC0
19C0
39C0
3980
3BF0
33F8
73F8
7338
7738
6738
E738
E638
E638
CE70
CE70
0060
00E0
03C0
0780
0600
ENDCHAR
STARTCHAR 04A7
ENCODING 1191
SWIDTH 468 0
DWIDTH 13 0
BBX 14 18 0 -5
BITMAP
1F80
1FC0
39C0
39C0
39C0
31F8
71F8
73BC
739C
639C
E31C
E318
E738
0038
0070
01F0
01E0
0300
ENDCHAR
STARTCHAR 04A8
ENCODING 1192
SWIDTH 468 0
DWIDTH 13 0
BBX 14 22 1 -5
BITMAP
0060
03FC
07F8
0F88
1E00
3C00
38F8
79FC
73FC
739C
731C
771C
F738
7738
7770
7FF0
3FE0
1F80
0700
0780
03E0
01E0
ENDCHAR
STARTCHAR 04A9
ENCODING 1193
SWIDTH 468 0
DWIDTH 13 0
BBX 12 17 2 -4
BITMAP
0FE0
1FC0
3E40
7800
F1E0
E3F0
E770
EE70
EE70
EE70
FEE0
7FC0
3F80
0E00
07C0
03C0
0180
ENDCHAR
STARTCHAR 04AA
ENCODING 1194
SWIDTH 468 0
DWIDTH 13 0
BBX 13 23 2 -5
BITMAP
0040
03F8
0FF8
1FB8
1E00
3C00
3800
7800
7000
7000
7000
F000
F000
F000
7800
7FE0
3FE0
1FC0
0C00
0E00
0600
3E00
1C00
ENDCHAR
STARTCHAR 04AB
ENCODING 1195
SWIDTH 468 0
DWIDTH 13 0
BBX 13 18 2 -5
BITMAP
07F8
1FF0
3FF0
7C00
7800
F000
F000
F000
F000
F000
7FC0
7FE0
3FE0
0E00
0700
0700
3E00
1C00
ENDCHAR
STARTCHAR 04AC
ENCODING 1196
SWIDTH 468 0
DWIDTH 13 0
BBX 13 22 4 -5
BITMAP
FFF8
FFF0
FFF0
0E00
0E00
1E00
1E00
1C00
1C00
3C00
3C00
3800
3800
7800
7C00
7C00
7C00
3C00
3800
3800
3800
7800
ENDCHAR
STARTCHAR 04AD
ENCODING 1197
SWIDTH 468 0
DWIDTH 13 0
BBX 13 17 1 -4
BITMAP
1F78
3FF8
3B98
3B98
33B8
73B8
7338
7730
6070
E070
E078
E078
C070
0070
0070
0070
0060
ENDCHAR
STARTCHAR 04AE
ENCODING 1198
SWIDTH 468 0
DWIDTH 13 0
BBX 13 17 4 0
BITMAP
E078
E0F0
F0F0
71E0
71C0
73C0
7780
7F00
3E00
3C00
3C00
3C00
3800
3800
7800
7800
7000
ENDCHAR
STARTCHAR 04AF
ENCODING 1199
SWIDTH 468 0
DWIDTH 13 0
BBX 12 18 3 -5
BITMAP
F070
F0F0
F0E0
F1E0
F1C0
F3C0
7380
7780
7700
7E00
7E00
3C00
3800
7800
7800
7000
7000
7000
ENDCHAR
STARTCHAR 04B0
ENCODING 1200
SWIDTH 468 0
DWIDTH 13 0
BBX 14 17 3 0
BITMAP
703C
7078
7878
38F0
38E0
39C0
3BC0
3F80
1F00
1E00
FFC0
FFC0
1C00
1C00
3C00
3C00
3800
ENDCHAR
STARTCHAR 04B1
ENCODING 1201
SWIDTH 468 0
DWIDTH 13 0
BBX 13 18 2 -5
BITMAP
7838
7878
7870
78F0
78E0
79E0
39C0
3BC0
3B80
3F00
3F00
FFC0
FF80
3C00
3C00
3800
3800
3800
ENDCHAR
STARTCHAR 04B2
ENCODING 1202
SWIDTH 468 0
DWIDTH 13 0
BBX 14 19 1 -4
BITMAP
0E1C
0E38
0E70
07F0
07E0
07C0
0380
0780
0F80
0FC0
1DC0
39C0
38F0
70F0
F0F0
0060
00E0
00E0
00E0
ENDCHAR
STARTCHAR 04B3
ENCODING 1203
SWIDTH 468 0
DWIDTH 13 0
BBX 13 17 1 -4
BITMAP
3C38
1C78
1CF0
1EE0
0FC0
0F80
0780
0F80
1FC0
3DC0
79F0
F1F0
E0F0
00F0
00E0
00E0
00E0
ENDCHAR
STARTCHAR 04B4
ENCODING 1204
SWIDTH 468 0
DWIDTH 13 0
BBX 14 22 2 -5
BITMAP
3F9C
7F9C
7FB8
1C38
1C38
1C38
3C78
3870
3870
3870
3870
70E0
70E0
70E0
7FF0
FFF0
FFE0
00E0
00E0
00E0
01C0
01C0
ENDCHAR
STARTCHAR 04B5
ENCODING 1205
SWIDTH 468 0
DWIDTH 13 0
BBX 12 17 2 -4
BITMAP
7F30
FF70
FE70
3870
3860
30E0
70E0
70E0
70E0
71C0
7BE0
7FE0
3EE0
00E0
00E0
00C0
00C0
ENDCHAR
STARTCHAR 04B6
ENCODING 1206
SWIDTH 468 0
DWIDTH 13 0
BBX 12 22 3 -5
BITMAP
7870
7870
7070
70F0
F0F0
F0E0
F0E0
F1E0
FFE0
7FC0
7FC0
03C0
03C0
0380
03C0
07C0
07C0
03C0
0380
0380
0380
0780
ENDCHAR
STARTCHAR 04B7
ENCODING 1207
SWIDTH 468 0
DWIDTH 13 0
BBX 11 17 3 -4
BITMAP
70E0
70E0
F1E0
F1E0
E1C0
F1C0
FFC0
FFC0
3F80
0380
07C0
07C0
07C0
0380
0380
0380
0380
ENDCHAR
STARTCHAR 04B8
ENCODING 1208
SWIDTH 468 0
DWIDTH 13 0
BBX 13 17 3 0
BITMAP
7838
7838
7078
7078
F070
F670
E6F0
F6F0
FFE0
7FE0
7FE0
0DE0
0DC0
19C0
03C0
03C0
0380
ENDCHAR
STARTCHAR 04B9
ENCODING 1209
SWIDTH 468 0
DWIDTH 13 0
BBX 12 13 3 0
BITMAP
7070
F0F0
F0F0
E0E0
ECE0
EDE0
FFE0
FFC0
7FC0
19C0
1BC0
0380
0380
ENDCHAR
STARTCHAR 04BA
ENCODING 1210
SWIDTH 468 0
DWIDTH 13 0
BBX 13 17 1 0
BITMAP
0E00
0E00
1E00
1E00
1C00
1C80
3FF0
3FF0
3CF8
3878
7878
7878
7070
7070
70F0
F0F0
E0E0
ENDCHAR
STARTCHAR 04BB
ENCODING 1211
SWIDTH 468 0
DWIDTH 13 0
BBX 13 19 1 0
BITMAP
0700
0F00
0F00
0E00
0E00
1E00
1FF0
1FF0
1FF8
3C78
3C78
3878
3870
3870
78F0
78F0
70E0
70E0
F1E0
ENDCHAR
STARTCHAR 04BC
ENCODING 1212
SWIDTH 468 0
DWIDTH 13 0
BBX 14 17 2 1
BITMAP
01F8
03F8
07B8
071C
6E1C
EE18
EE38
FFF8
7FF8
1C00
1C00
1C00
1C00
1C00
1E60
1FE0
0FC0
ENDCHAR
STARTCHAR 04BD
ENCODING 1213
SWIDTH 468 0
DWIDTH 13 0
BBX 14 13 1 0
BITMAP
01F8
03FC
079C
671C
EE1C
6E38
7FF0
3FE0
0E00
0E00
0F30
0FF0
07F0
ENDCHAR
STARTCHAR 04BE
ENCODING 1214
SWIDTH 468 0
DWIDTH 13 0
BBX 14 21 2 -3
BITMAP
01F8
03F8
07B8
071C
6E1C
EE18
EE38
FFF8
7FF8
1C00
1C00
1C00
1C00
1C00
1E60
1FE0
0FC0
0700
0700
0600
0600
ENDCHAR
STARTCHAR 04BF
ENCODING 1215
SWIDTH 468 0
DWIDTH 13 0
BBX 14 17 1 -4
BITMAP
01F8
03FC
079C
671C
EE1C
6E38
7FF0
3FE0
0E00
0E00
0F30
0FF0
07F0
0380
0380
0700
0700
ENDCHAR
STARTCHAR 04C0
ENCODING 1216
SWIDTH 468 0
DWIDTH 13 0
BBX 15 17 1 0
BITMAP
0FFE
0FFE
1FFC
01C0
01C0
03C0
03C0
0380
0380
0380
0780
0700
0700
0700
7FE0
FFE0
FFE0
ENDCHAR
STARTCHAR 04C1
ENCODING 1217
SWIDTH 468 0
DWIDTH 13 0
BBX 17 23 0 0
BITMAP
00C600
01CF00
00FE00
007C00
000000
000000
0E7380
0E7300
0E6700
06E600
06EE00
06FC00
07F800
07F000
07F000
0FF000
1DB800
1BB800
3BB800
73B800
731800
E71800
E71800
ENDCHAR
STARTCHAR 04C2
ENCODING 1218
SWIDTH 468 0
DWIDTH 13 0
BBX 16 19 0 0
BITMAP
018C
03DE
01FC
00F8
0000
0000
38C7
3CCF
1CDC
0CD8
0DD8
1FF8
1FF8
19B0
1BB0
3B30
3338
F33C
E71C
ENDCHAR
STARTCHAR 04C3
ENCODING 1219
SWIDTH 468 0
DWIDTH 13 0
BBX 16 22 1 -5
BITMAP
0E0F
0E1E
1E3C
1E78
1CF0
1DE0
3FC0
3F80
3FE0
3FF0
7878
7878
7078
7038
F078
F070
E070
00F0
07E0
1FC0
1F80
1C00
ENDCHAR
STARTCHAR 04C4
ENCODING 1220
SWIDTH 468 0
DWIDTH 13 0
BBX 14 18 1 -5
BITMAP
1E3C
1C78
1CF0
3DE0
3FC0
3F80
3FE0
3FF0
78F0
7870
7070
7070
F0F0
00E0
03E0
0FC0
1F80
1C00
ENDCHAR
STARTCHAR 04C5
ENCODING 1221
SWIDTH 468 0
DWIDTH 13 0
BBX 15 21 0 -5
BITMAP
01FE
01FE
01FE
039E
039C
039C
039C
073C
073C
0738
0E38
0E78
1E78
3C70
F87C
F8F8
E0F8
0070
0070
00E0
00C0
ENDCHAR
STARTCHAR 04C6
ENCODING 1222
SWIDTH 468 0
DWIDTH 13 0
BBX 15 17 0 -4
BITMAP
03FE
03FC
07FC
071C
073C
0F3C
0E38
0E38
1E78
3C78
F87C
F87C
E0F8
0038
0070
00E0
0040
ENDCHAR
STARTCHAR 04C7
ENCODING 1223
SWIDTH 468 0
DWIDTH 13 0
BBX 15 22 1 -5
BITMAP
0E0E
1E1E
1E1E
1C1C
1C1C
3C3C
3C3C
3FF8
3FF8
3838
7878
7070
7070
7070
F0F0
F0E0
E0E0
01E0
09E0
0FC0
0F80
0700
ENDCHAR
STARTCHAR 04C8
ENCODING 1224
SWIDTH 468 0
DWIDTH 13 0
BBX 14 18 1 -5
BITMAP
1E3C
1C38
1C38
3C38
3C78
3FF8
3FF0
7FF0
78F0
70F0
70E0
F0E0
F1E0
01E0
03C0
0FC0
0F80
0600
ENDCHAR
STARTCHAR 04C9
ENCODING 1225
SWIDTH 468 0
DWIDTH 13 0
BBX 14 21 1 -5
BITMAP
0E1C
1E1C
1E3C
1C3C
1C38
3C38
3C38
3FF8
3FF0
3870
7870
70F0
70F0
70E0
F0F0
F1F0
E1F0
00E0
00E0
01C0
0180
ENDCHAR
STARTCHAR 04CA
ENCODING 1226
SWIDTH 468 0
DWIDTH 13 0
BBX 14 17 1 -4
BITMAP
1E3C
1C38
1C38
3C38
3C78
3FF0
3FF0
7FF0
78F0
70F0
70F8
F0F8
F1F0
0070
00E0
01C0
0080
ENDCHAR
STARTCHAR 04CB
ENCODING 1227
SWIDTH 468 0
DWIDTH 13 0
BBX 13 22 3 -5
BITMAP
7878
7878
7070
7070
70F0
F0F0
F0E0
F0E0
FFE0
7FE0
3FC0
01C0
01C0
03C0
0780
0F80
0F80
0E00
0E00
0E00
1C00
1C00
ENDCHAR
STARTCHAR 04CC
ENCODING 1228
SWIDTH 468 0
DWIDTH 13 0
BBX 12 17 2 -4
BITMAP
7870
7870
70F0
70F0
F0E0
F0E0
7FE0
7FE0
3FE0
01C0
07C0
07C0
07C0
0700
0E00
0E00
0E00
ENDCHAR
STARTCHAR 04CD
ENCODING 1229
SWIDTH 468 0
DWIDTH 13 0
BBX 15 21 0 -5
BITMAP
070E
071E
0F1E
0F3E
0F3E
1F7E
1F6C
1FEC
3BDC
3B9C
3B9C
3818
7038
7038
7038
7038
E078
0070
0070
00E0
00C0
ENDCHAR
STARTCHAR 04CE
ENCODING 1230
SWIDTH 468 0
DWIDTH 13 0
BBX 14 16 0 -4
BITMAP
0E1C
0E3C
1E3C
1E7C
1E7C
3ED8
3ED8
37B8
73B8
7338
703C
707C
E078
0038
0070
00E0
ENDCHAR
STARTCHAR 04CF
ENCODING 1231
SWIDTH 468 0
DWIDTH 13 0
BBX 15 17 1 0
BITMAP
0FFE
0FFE
1FFC
01C0
01C0
03C0
03C0
0380
0380
0380
0780
0700
0700
0700
7FE0
FFE0
FFE0
ENDCHAR
STARTCHAR 04D0
ENCODING 1232
SWIDTH 468 0
DWIDTH 13 0
BBX 15 23 0 0
BITMAP
00C4
01CE
00FE
00FC
0000
0000
00F0
00F0
01F8
03F8
03B8
07B8
0738
0F38
0E38
1E38
1FF8
3FF8
3FF8
7838
7038
F038
F038
ENDCHAR
STARTCHAR 04D1
ENCODING 1233
SWIDTH 468 0
DWIDTH 13 0
BBX 13 19 2 0
BITMAP
0718
07B8
07F8
03E0
0000
0000
0FF0
1FF0
3FF0
78F0
70F0
F0E0
E0E0
E1E0
E1E0
E1E0
FFE0
FFE0
7EE0
ENDCHAR
STARTCHAR 04D2
ENCODING 1234
SWIDTH 468 0
DWIDTH 13 0
BBX 16 23 0 0
BITMAP
0084
01CE
03CF
018E
0000
0000
00F0
00F0
01F8
03F8
03B8
07B8
0738
0F38
0E38
1E38
1FF8
3FF8
3FF8
7838
7038
F038
F038
ENDCHAR
STARTCHAR 04D3
ENCODING 1235
SWIDTH 468 0
DWIDTH 13 0
BBX 14 19 2 0
BITMAP
0218
073C
073C
0738
0000
0000
0FF0
1FF0
3FF0
78F0
70F0
F0E0
E0E0
E1E0
E1E0
E1E0
FFE0
FFE0
7EE0
ENDCHAR
STARTCHAR 04D4
ENCODING 1236
SWIDTH 468 0
DWIDTH 13 0
BBX 17 17 0 0
BITMAP
00FF80
00FF00
01FF00
01B800
03B800
077000
077E00
0E7C00
0E7C00
1CE000
1FE000
3FE000
3FE000
79C000
71FC00
F1F800
E1F800
ENDCHAR
STARTCHAR 04D5
ENCODING 1237
SWIDTH 468 0
DWIDTH 13 0
BBX 14 13 1 0
BITMAP
3E78
3FFC
27CC
038C
039C
1F38
7FF8
77E0
E700
C700
CF90
FFF0
F9F0
ENDCHAR
STARTCHAR 04D6
ENCODING 1238
SWIDTH 468 0
DWIDTH 13 0
BBX 14 23 2 0
BITMAP
0108
039C
03F8
01F0
0000
0000
1FFC
1FF8
1FF8
1C00
3C00
3C00
3FE0
3FE0
7FE0
7800
7000
7000
7000
F000
FFE0
FFE0
FFC0
ENDCHAR
STARTCHAR 04D7
ENCODING 1239
SWIDTH 468 0
DWIDTH 13 0
BBX 13 19 2 0
BITMAP
0630
0778
07F0
03E0
0000
0000
0FE0
1FF0
3EF0
7878
7070
F1F0
FFE0
FF80
E000
F000
7DC0
7FC0
3FC0
ENDCHAR
STARTCHAR 04D8
ENCODING 1240
SWIDTH 468 0
DWIDTH 13 0
BBX 13 18 2 0
BITMAP
0200
3FE0
1FF0
19F0
0078
0038
0038
0038
FFF8
FFF8
FFF8
E070
E0F0
E0F0
E1E0
FFC0
7F80
3F00
ENDCHAR
STARTCHAR 04D9
ENCODING 1241
SWIDTH 468 0
DWIDTH 13 0
BBX 13 13 1 0
BITMAP
3FE0
1FF0
19F0
0078
0078
0FF8
3FF8
7878
7070
F0F0
FBE0
7FC0
3F80
ENDCHAR
STARTCHAR 04DA
ENCODING 1242
SWIDTH 468 0
DWIDTH 13 0
BBX 13 23 2 0
BITMAP
0400
0E38
0E78
0E30
0000
0200
3FE0
1FF0
19F0
0078
0038
0038
0038
FFF8
FFF8
FFF8
E070
E0F0
E0F0
E1E0
FFC0
7F80
3F00
ENDCHAR
STARTCHAR 04DB
ENCODING 1243
SWIDTH 468 0
DWIDTH 13 0
BBX 13 19 1 0
BITMAP
0618
0F38
0F38
0638
0000
0000
3FE0
1FF0
19F0
0078
0078
0FF8
3FF8
7878
7070
F0F0
FBE0
7FC0
3F80
ENDCHAR
STARTCHAR 04DC
ENCODING 1244
SWIDTH 468 0
DWIDTH 13 0
BBX 17 23 0 0
BITMAP
008000
01C700
01CF00
01C600
000000
000000
0E7380
0E7300
0E6700
06E600
06EE00
06FC00
07F800
07F000
07F000
0FF000
1DB800
1BB800
3BB800
73B800
731800
E71800
E71800
ENDCHAR
STARTCHAR 04DD
ENCODING 1245
SWIDTH 468 0
DWIDTH 13 0
BBX 16 19 0 0
BITMAP
010C
039E
039E
038C
0000
0000
38C7
3CCF
1CDC
0CD8
0DD8
1FF8
1FF8
19B0
1BB0
3B30
3338
F33C
E71C
ENDCHAR
STARTCHAR 04DE
ENCODING 1246
SWIDTH 468 0
DWIDTH 13 0
BBX 15 23 0 0
BITMAP
0084
03CE
03CE
038E
0000
0040
07F8
07FC
077E
001E
001C
001C
0078
07F0
07F0
0FF8
0038
003C
0038
0078
7FF8
FFF0
7FC0
ENDCHAR
STARTCHAR 04DF
ENCODING 1247
SWIDTH 468 0
DWIDTH 13 0
BBX 14 19 1 0
BITMAP
0218
073C
073C
0718
0000
0000
1FF0
1FF0
1CF8
0078
0070
0FE0
0FC0
0FF0
00F0
00F0
77F0
FFE0
FF80
ENDCHAR
STARTCHAR 04E0
ENCODING 1248
SWIDTH 468 0
DWIDTH 13 0
BBX 15 17 1 0
BITMAP
0FFE
0FFC
0FFC
0078
00F0
01E0
03C0
07E0
07F0
00F0
0078
0078
0070
40F0
7BF0
FFE0
7F80
ENDCHAR
STARTCHAR 04E1
ENCODING 1249
SWIDTH 468 0
DWIDTH 13 0
BBX 14 18 0 -5
BITMAP
0FFC
0FFC
1FF8
0070
00E0
01C0
0380
07C0
07E0
01F0
00F0
0070
00F0
00F0
63E0
7FC0
FF80
1800
ENDCHAR
STARTCHAR 04E2
ENCODING 1250
SWIDTH 468 0
DWIDTH 13 0
BBX 15 22 1 0
BITMAP
01FE
03FC
03FC
0000
0000
0E0E
1C1E
1C3E
1C7C
1C7C
3CFC
39DC
39B8
3BB8
3F38
7638
7E70
7C70
7870
F870
F0F0
E0E0
ENDCHAR
STARTCHAR 04E3
ENCODING 1251
SWIDTH 468 0
DWIDTH 13 0
BBX 12 18 2 0
BITMAP
0FF0
0FF0
0000
0000
0000
3870
3870
7870
78F0
70E0
70E0
F0E0
F1E0
F1E0
F1C0
FFE0
7FE0
7EE0
ENDCHAR
STARTCHAR 04E4
ENCODING 1252
SWIDTH 468 0
DWIDTH 13 0
BBX 15 23 1 0
BITMAP
0100
039E
079E
039C
0000
0000
0E0E
1C1E
1C3E
1C7C
1C7C
3CFC
39DC
39B8
3BB8
3F38
7638
7E70
7C70
7870
F870
F0F0
E0E0
ENDCHAR
STARTCHAR 04E5
ENCODING 1253
SWIDTH 468 0
DWIDTH 13 0
BBX 12 19 2 0
BITMAP
0C20
0E70
1E70
0C70
0000
0000
3870
3870
7870
78F0
70E0
70E0
F0E0
F1E0
F1E0
F1C0
FFE0
7FE0
7EE0
ENDCHAR
STARTCHAR 04E6
ENCODING 1254
SWIDTH 468 0
DWIDTH 13 0
BBX 14 23 2 0
BITMAP
0210
0738
0F3C
0638
0000
0180
07E0
1FF0
1EF8
3C78
7838
7038
7078
F078
F078
E070
E070
E0F0
E0E0
F1E0
FFC0
7F80
3F00
ENDCHAR
STARTCHAR 04E7
ENCODING 1255
SWIDTH 468 0
DWIDTH 13 0
BBX 12 19 2 0
BITMAP
0420
0E70
1E70
0C70
0000
0000
0FC0
1FE0
3FF0
78F0
7070
F070
E0F0
E0F0
E0E0
F1E0
FFC0
7F80
7F00
ENDCHAR
STARTCHAR 04E8
ENCODING 1256
SWIDTH 468 0
DWIDTH 13 0
BBX 13 18 2 0
BITMAP
0180
07E0
1FF0
1EF8
3C78
7838
7838
7038
FFF8
FFF8
FFF0
E070
E0F0
E0E0
F1E0
FFC0
7F80
3F00
ENDCHAR
STARTCHAR 04E9
ENCODING 1257
SWIDTH 468 0
DWIDTH 13 0
BBX 12 13 2 0
BITMAP
0FC0
3FE0
3FF0
78F0
F070
FFF0
FFF0
FFF0
E0E0
F1E0
FFC0
7F80
3F00
ENDCHAR
STARTCHAR 04EA
ENCODING 1258
SWIDTH 468 0
DWIDTH 13 0
BBX 14 23 2 0
BITMAP
0210
0738
0F3C
0638
0000
0180
07E0
1FF0
1EF8
3C78
7838
7838
7038
FFF8
FFF8
FFF0
E070
E0F0
E0E0
F1E0
FFC0
7F80
3F00
ENDCHAR
STARTCHAR 04EB
ENCODING 1259
SWIDTH 468 0
DWIDTH 13 0
BBX 12 19 2 0
BITMAP
0420
0E70
1E70
0C70
0000
0000
0FC0
3FE0
3FF0
78F0
F070
FFF0
FFF0
FFF0
E0E0
F1E0
FFC0
7F80
3F00
ENDCHAR
STARTCHAR 04EC
ENCODING 1260
SWIDTH 468 0
DWIDTH 13 0
BBX 14 22 1 1
BITMAP
039C
079C
031C
0000
0380
1FE0
0FF0
0DF8
0078
0038
003C
003C
07F8
07F8
0FF8
0078
0078
00F0
01F0
7FE0
FFC0
7F00
ENDCHAR
STARTCHAR 04ED
ENCODING 1261
SWIDTH 468 0
DWIDTH 13 0
BBX 14 19 1 0
BITMAP
0218
073C
073C
0738
0000
0000
1FC0
1FF0
1FF0
0078
0078
0FF8
0FF8
0FF0
0070
00F0
7FE0
7FC0
FF80
ENDCHAR
STARTCHAR 04EE
ENCODING 1262
SWIDTH 468 0
DWIDTH 13 0
BBX 17 22 0 0
BITMAP
01FE00
01FE00
01FE00
000000
000000
0E0780
0F0700
0F0F00
0F0E00
071E00
073C00
07BC00
03F800
03F000
03F000
01E000
01E000
03C000
078000
7F0000
7E0000
FC0000
ENDCHAR
STARTCHAR 04EF
ENCODING 1263
SWIDTH 468 0
DWIDTH 13 0
BBX 16 23 -1 -5
BITMAP
01FE
01FE
0000
0000
0000
0F0F
0F0F
0F0E
0F1E
0F1C
071C
0738
0738
0770
07F0
03E0
03E0
03C0
0780
0F00
FE00
FC00
7000
ENDCHAR
STARTCHAR 04F0
ENCODING 1264
SWIDTH 468 0
DWIDTH 13 0
BBX 17 23 0 0
BITMAP
008000
01C700
01CF00
01C600
000000
000000
0E0780
0F0700
0F0F00
0F0E00
071E00
073C00
07BC00
03F800
03F000
03F000
01E000
01E000
03C000
078000
7F0000
7E0000
FC0000
ENDCHAR
STARTCHAR 04F1
ENCODING 1265
SWIDTH 468 0
DWIDTH 13 0
BBX 16 24 -1 -5
BITMAP
0184
03CE
03CE
038E
0000
0000
0F0F
0F0F
0F0E
0F1E
0F1C
071C
0738
0738
0770
07F0
03E0
03E0
03C0
0780
0F00
FE00
FC00
7000
ENDCHAR
STARTCHAR 04F2
ENCODING 1266
SWIDTH 468 0
DWIDTH 13 0
BBX 18 23 0 0
BITMAP
002080
0071C0
00F3C0
01E700
008600
000000
0E0780
0F0700
0F0F00
0F0E00
071E00
073C00
07BC00
03F800
03F000
03F000
01E000
01E000
03C000
078000
7F0000
7E0000
FC0000
ENDCHAR
STARTCHAR 04F3
ENCODING 1267
SWIDTH 468 0
DWIDTH 13 0
BBX 18 24 -1 -5
BITMAP
002180
0073C0
00F780
01C700
008400
000000
0F0F00
0F0F00
0F0E00
0F1E00
0F1C00
071C00
073800
073800
077000
07F000
03E000
03E000
03C000
078000
0F0000
FE0000
FC0000
700000
ENDCHAR
STARTCHAR 04F4
ENCODING 1268
SWIDTH 468 0
DWIDTH 13 0
BBX 13 23 3 0
BITMAP
0420
1E70
1E70
1C70
0000
0000
7878
7878
7070
7070
70F0
F0F0
F0E0
F0E0
FFE0
7FE0
3FC0
01C0
01C0
03C0
0380
0380
0380
ENDCHAR
STARTCHAR 04F5
ENCODING 1269
SWIDTH 468 0
DWIDTH 13 0
BBX 13 19 2 0
BITMAP
0430
0E78
0E78
0E70
0000
0000
7870
7870
70F0
70F0
F0E0
F0E0
7FE0
7FE0
3FE0
01C0
01C0
03C0
03C0
ENDCHAR
STARTCHAR 04F6
ENCODING 1270
SWIDTH 468 0
DWIDTH 13 0
BBX 16 22 1 -5
BITMAP
03FF
03FE
07FE
0780
0700
0700
0F00
0F00
0E00
0E00
1E00
1E00
1C00
1C00
FFC0
FF80
FF80
0380
0780
0700
0700
0700
ENDCHAR
STARTCHAR 04F7
ENCODING 1271
SWIDTH 468 0
DWIDTH 13 0
BBX 12 17 2 -4
BITMAP
3FE0
3FE0
19F0
00F0
01F0
07E0
3FC0
7E00
F000
E000
F9C0
FFC0
7FC0
03C0
0380
0380
0380
ENDCHAR
STARTCHAR 04F8
ENCODING 1272
SWIDTH 468 0
DWIDTH 13 0
BBX 16 22 0 1
BITMAP
01CE
03CE
018E
0000
0000
0E03
0E03
0C07
0C07
1C07
1C06
1F8E
1FCE
39CE
39CC
39DC
31DC
71DC
7398
77B8
7F38
FE38
ENDCHAR
STARTCHAR 04F9
ENCODING 1273
SWIDTH 468 0
DWIDTH 13 0
BBX 14 19 1 0
BITMAP
0218
073C
073C
0738
0000
0000
380C
381C
381C
301C
7C18
7F18
7F38
63B8
63B0
E330
E770
FE70
FC60
ENDCHAR
STARTCHAR 1E80
ENCODING 7808
SWIDTH 468 0
DWIDTH 13 0
BBX 16 23 1 0
BITMAP
0080
01C0
01F0
00F8
0030
0000
1C07
1C0E
1C0E
3C0E
380E
381C
399C
3B9C
779C
7798
7FB8
7CF8
7CF0
78F0
F8F0
F0E0
F0E0
ENDCHAR
STARTCHAR 1E81
ENCODING 7809
SWIDTH 468 0
DWIDTH 13 0
BBX 14 19 2 0
BITMAP
0200
0700
07C0
03C0
00C0
0000
701C
701C
E038
E738
E738
EF30
EF70
DF60
DB60
FBE0
F3C0
E3C0
E380
ENDCHAR
STARTCHAR 1E82
ENCODING 7810
SWIDTH 468 0
DWIDTH 13 0
BBX 16 23 1 0
BITMAP
0010
0038
007C
00F0
0040
0000
1C07
1C0E
1C0E
3C0E
380E
381C
399C
3B9C
779C
7798
7FB8
7CF8
7CF0
78F0
F8F0
F0E0
F0E0
ENDCHAR
STARTCHAR 1E83
ENCODING 7811
SWIDTH 468 0
DWIDTH 13 0
BBX 14 19 2 0
BITMAP
0040
00E0
03E0
0380
0300
0000
701C
701C
E038
E738
E738
EF30
EF70
DF60
DB60
FBE0
F3C0
E3C0
E380
ENDCHAR
STARTCHAR 1E84
ENCODING 7812
SWIDTH 468 0
DWIDTH 13 0
BBX 16 23 1 0
BITMAP
0100
038E
039E
038C
0000
0000
1C07
1C0E
1C0E
3C0E
380E
381C
399C
3B9C
779C
7798
7FB8
7CF8
7CF0
78F0
F8F0
F0E0
F0E0
ENDCHAR
STARTCHAR 1E85
ENCODING 7813
SWIDTH 468 0
DWIDTH 13 0
BBX 14 19 2 0
BITMAP
0430
0E78
0E78
0E30
0000
0000
701C
701C
E038
E738
E738
EF30
EF70
DF60
DB60
FBE0
F3C0
E3C0
E380
ENDCHAR
STARTCHAR 1EF2
ENCODING 7922
SWIDTH 468 0
DWIDTH 13 0
BBX 13 23 4 0
BITMAP
0400
0E00
1F00
0780
0100
0000
E078
E0F0
F0F0
71E0
71C0
73C0
7780
7F00
3E00
3C00
3C00
3C00
3800
3800
7800
7800
7000
ENDCHAR
STARTCHAR 1EF3
ENCODING 7923
SWIDTH 468 0
DWIDTH 13 0
BBX 16 24 -1 -5
BITMAP
00C0
00E0
01F0
0078
0010
0000
0F0F
0F0F
0F0E
0F1E
0F1C
071C
0738
0738
0770
07F0
03E0
03E0
03C0
0780
0F00
FE00
FC00
7000
ENDCHAR
STARTCHAR 1F00
ENCODING 7936
SWIDTH 468 0
DWIDTH 13 0
BBX 12 21 2 0
BITMAP
0040
00E0
00E0
00E0
00C0
0380
0000
0000
0FF0
1FF0
3FF0
78F0
70F0
F0E0
E0E0
E1E0
E1E0
E1E0
FFF0
FFE0
7EE0
ENDCHAR
STARTCHAR 1F01
ENCODING 7937
SWIDTH 468 0
DWIDTH 13 0
BBX 12 21 2 0
BITMAP
0080
01C0
01C0
0180
01C0
00C0
0000
0000
0FF0
1FF0
3FF0
78F0
70F0
F0E0
E0E0
E1E0
E1E0
E1E0
FFF0
FFE0
7EE0
ENDCHAR
STARTCHAR 1F02
ENCODING 7938
SWIDTH 468 0
DWIDTH 13 0
BBX 14 21 2 0
BITMAP
0200
0730
0738
0738
0618
0C1C
0000
0000
0FF0
1FF0
3FF0
78F0
70F0
F0E0
E0E0
E1E0
E1E0
E1E0
FFF0
FFE0
7EE0
ENDCHAR
STARTCHAR 1F03
ENCODING 7939
SWIDTH 468 0
DWIDTH 13 0
BBX 13 21 2 0
BITMAP
0600
0E60
0E70
0C70
0E30
0638
0000
0000
0FF0
1FF0
3FF0
78F0
70F0
F0E0
E0E0
E1E0
E1E0
E1E0
FFF0
FFE0
7EE0
ENDCHAR
STARTCHAR 1F04
ENCODING 7940
SWIDTH 468 0
DWIDTH 13 0
BBX 14 21 2 0
BITMAP
0100
038C
079C
03B8
0338
0E70
0000
0000
0FF0
1FF0
3FF0
78F0
70F0
F0E0
E0E0
E1E0
E1E0
E1E0
FFF0
FFE0
7EE0
ENDCHAR
STARTCHAR 1F05
ENCODING 7941
SWIDTH 468 0
DWIDTH 13 0
BBX 14 21 2 0
BITMAP
0600
0F18
0F3C
0E38
0670
07E0
0200
0000
0FF0
1FF0
3FF0
78F0
70F0
F0E0
E0E0
E1E0
E1E0
E1E0
FFF0
FFE0
7EE0
ENDCHAR
STARTCHAR 1F06
ENCODING 7942
SWIDTH 468 0
DWIDTH 13 0
BBX 13 23 2 0
BITMAP
00F0
01F8
0398
0318
00E0
00E0
00E0
01C0
0000
0000
0FF0
1FF0
3FF0
78F0
70F0
F0E0
E0E0
E1E0
E1E0
E1E0
FFF0
FFE0
7EE0
ENDCHAR
STARTCHAR 1F07
ENCODING 7943
SWIDTH 468 0
DWIDTH 13 0
BBX 13 23 2 0
BITMAP
00E0
03F8
03B8
0618
00C0
00E0
00C0
00C0
0000
0000
0FF0
1FF0
3FF0
78F0
70F0
F0E0
E0E0
E1E0
E1E0
E1E0
FFF0
FFE0
7EE0
ENDCHAR
STARTCHAR 1F08
ENCODING 7944
SWIDTH 468 0
DWIDTH 13 0
BBX 13 18 0 0
BITMAP
0C00
1CF0
1CF0
0DF8
1BF8
33B8
07B8
0738
0F38
0E38
1E38
1FF8
3FF8
3FF8
7838
7038
F038
F038
ENDCHAR
STARTCHAR 1F09
ENCODING 7945
SWIDTH 468 0
DWIDTH 13 0
BBX 13 18 0 0
BITMAP
3000
38F0
78F0
31F8
33F8
1BB8
07B8
0738
0F38
0E38
1E38
1FF8
3FF8
3FF8
7838
7038
F038
F038
ENDCHAR
STARTCHAR 1F0A
ENCODING 7946
SWIDTH 468 0
DWIDTH 13 0
BBX 17 18 -4 0
BITMAP
610000
F70F00
F30F00
739F80
E1BF80
C1BB80
007B80
007380
00F380
00E380
01E380
01FF80
03FF80
03FF80
078380
070380
0F0380
0F0380
ENDCHAR
STARTCHAR 1F0B
ENCODING 7947
SWIDTH 468 0
DWIDTH 13 0
BBX 17 18 -4 0
BITMAP
610000
F70F00
F30F00
639F80
61BF80
31BB80
007B80
007380
00F380
00E380
01E380
01FF80
03FF80
03FF80
078380
070380
0F0380
0F0380
ENDCHAR
STARTCHAR 1F0C
ENCODING 7948
SWIDTH 468 0
DWIDTH 13 0
BBX 16 18 -3 0
BITMAP
6000
F19E
F39E
773F
E67F
CC77
00F7
00E7
01E7
01C7
03C7
03FF
07FF
07FF
0F07
0E07
1E07
1E07
ENDCHAR
STARTCHAR 1F0D
ENCODING 7949
SWIDTH 468 0
DWIDTH 13 0
BBX 16 18 -3 0
BITMAP
6000
F19E
E39E
C73F
677F
2677
00F7
00E7
01E7
01C7
03C7
03FF
07FF
07FF
0F07
0E07
1E07
1E07
ENDCHAR
STARTCHAR 1F0E
ENCODING 7950
SWIDTH 468 0
DWIDTH 13 0
BBX 14 20 -1 0
BITMAP
3E00
7F00
E300
C378
1878
38FC
19FC
31DC
03DC
039C
079C
071C
0F1C
0FFC
1FFC
1FFC
3C1C
381C
781C
781C
ENDCHAR
STARTCHAR 1F0F
ENCODING 7951
SWIDTH 468 0
DWIDTH 13 0
BBX 14 20 -1 0
BITMAP
3E00
7F00
E300
C378
1878
38FC
11FC
19DC
03DC
039C
079C
071C
0F1C
0FFC
1FFC
1FFC
3C1C
381C
781C
781C
ENDCHAR
STARTCHAR 1F10
ENCODING 7952
SWIDTH 468 0
DWIDTH 13 0
BBX 13 21 2 0
BITMAP
0040
00E0
00E0
00E0
00C0
0380
0000
0000
0FF8
3FF0
3E70
3800
3800
3F80
3F80
7F80
F000
E000
FDE0
FFE0
3FE0
ENDCHAR
STARTCHAR 1F11
ENCODING 7953
SWIDTH 468 0
DWIDTH 13 0
BBX 13 21 2 0
BITMAP
0080
01C0
01C0
0180
01C0
00C0
0000
0000
0FF8
3FF0
3E70
3800
3800
3F80
3F80
7F80
F000
E000
FDE0
FFE0
3FE0
ENDCHAR
STARTCHAR 1F12
ENCODING 7954
SWIDTH 468 0
DWIDTH 13 0
BBX 14 21 2 0
BITMAP
0200
0730
0738
0738
0618
0C1C
0000
0000
0FF8
3FF0
3E70
3800
3800
3F80
3F80
7F80
F000
E000
FDE0
FFE0
3FE0
ENDCHAR
STARTCHAR 1F13
ENCODING 7955
SWIDTH 468 0
DWIDTH 13 0
BBX 13 21 2 0
BITMAP
0600
0E60
0E70
0C70
0E30
0638
0000
0000
0FF8
3FF0
3E70
3800
3800
3F80
3F80
7F80
F000
E000
FDE0
FFE0
3FE0
ENDCHAR
STARTCHAR 1F14
ENCODING 7956
SWIDTH 468 0
DWIDTH 13 0
BBX 14 21 2 0
BITMAP
0100
038C
079C
03B8
0338
0E70
0000
0000
0FF8
3FF0
3E70
3800
3800
3F80
3F80
7F80
F000
E000
FDE0
FFE0
3FE0
ENDCHAR
STARTCHAR 1F15
ENCODING 7957
SWIDTH 468 0
DWIDTH 13 0
BBX 14 21 2 0
BITMAP
0600
0F18
0F3C
0E38
0670
07E0
0200
0000
0FF8
3FF0
3E70
3800
3800
3F80
3F80
7F80
F000
E000
FDE0
FFE0
3FE0
ENDCHAR
STARTCHAR 1F18
ENCODING 7960
SWIDTH 468 0
DWIDTH 13 0
BBX 16 18 0 0
BITMAP
2000
F7FF
77FE
77FE
E700
CF00
0F00
0FF8
0FF8
1FF8
1E00
1C00
1C00
1C00
3C00
3FF8
3FF8
3FF0
ENDCHAR
STARTCHAR 1F19
ENCODING 7961
SWIDTH 468 0
DWIDTH 13 0
BBX 16 18 0 0
BITMAP
6000
E7FF
E7FE
C7FE
E700
6F00
0F00
0FF8
0FF8
1FF8
1E00
1C00
1C00
1C00
3C00
3FF8
3FF8
3FF0
ENDCHAR
STARTCHAR 1F1A
ENCODING 7962
SWIDTH 468 0
DWIDTH 13 0
BBX 22 18 -6 0
BITMAP
610000
771FFC
739FF8
739FF8
619C00
C1FC00
003C00
003FE0
003FE0
007FE0
007800
007000
007000
007000
00F000
00FFE0
00FFE0
00FFC0
ENDCHAR
STARTCHAR 1F1B
ENCODING 7963
SWIDTH 468 0
DWIDTH 13 0
BBX 21 18 -5 0
BITMAP
620000
EE3FF8
E73FF0
C73FF0
E33800
63F800
007800
007FC0
007FC0
00FFC0
00F000
00E000
00E000
00E000
01E000
01FFC0
01FFC0
01FF80
ENDCHAR
STARTCHAR 1F1C
ENCODING 7964
SWIDTH 468 0
DWIDTH 13 0
BBX 22 18 -6 0
BITMAP
208000
71DFFC
71DFF8
339FF8
671C00
C63C00
003C00
003FE0
003FE0
007FE0
007800
007000
007000
007000
00F000
00FFE0
00FFE0
00FFC0
ENDCHAR
STARTCHAR 1F1D
ENCODING 7965
SWIDTH 468 0
DWIDTH 13 0
BBX 22 18 -6 0
BITMAP
600000
F1DFFC
F3DFF8
E39FF8
671C00
363C00
003C00
003FE0
003FE0
007FE0
007800
007000
007000
007000
00F000
00FFE0
00FFE0
00FFC0
ENDCHAR
STARTCHAR 1F20
ENCODING 7968
SWIDTH 468 0
DWIDTH 13 0
BBX 13 26 1 -5
BITMAP
0020
0070
0070
0070
0060
01C0
0000
0000
1FE0
1FF0
1FF8
3C78
3C78
3878
3870
3870
78F0
70F0
70E0
70E0
F1E0
01E0
01C0
01C0
03C0
03C0
ENDCHAR
STARTCHAR 1F21
ENCODING 7969
SWIDTH 468 0
DWIDTH 13 0
BBX 13 26 1 -5
BITMAP
0040
00E0
00E0
00C0
00E0
0060
0000
0000
1FE0
1FF0
1FF8
3C78
3C78
3878
3870
3870
78F0
70F0
70E0
70E0
F1E0
01E0
01C0
01C0
03C0
03C0
ENDCHAR
STARTCHAR 1F22
ENCODING 7970
SWIDTH 468 0
DWIDTH 13 0
BBX 15 26 1 -5
BITMAP
0100
0398
039C
039C
030C
060E
0000
0000
1FE0
1FF0
1FF8
3C78
3C78
3878
3870
3870
78F0
70F0
70E0
70E0
F1E0
01E0
01C0
01C0
03C0
03C0
ENDCHAR
STARTCHAR 1F23
ENCODING 7971
SWIDTH 468 0
DWIDTH 13 0
BBX 14 26 1 -5
BITMAP
0300
0730
0738
0638
0718
031C
0000
0000
1FE0
1FF0
1FF8
3C78
3C78
3878
3870
3870
78F0
70F0
70E0
70E0
F1E0
01E0
01C0
01C0
03C0
03C0
ENDCHAR
STARTCHAR 1F24
ENCODING 7972
SWIDTH 468 0
DWIDTH 13 0
BBX 15 26 1 -5
BITMAP
0080
01C6
03CE
01DC
019C
0738
0000
0000
1FE0
1FF0
1FF8
3C78
3C78
3878
3870
3870
78F0
70F0
70E0
70E0
F1E0
01E0
01C0
01C0
03C0
03C0
ENDCHAR
STARTCHAR 1F25
ENCODING 7973
SWIDTH 468 0
DWIDTH 13 0
BBX 15 26 1 -5
BITMAP
0300
078C
079E
071C
0338
03F0
0100
0000
1FE0
1FF0
1FF8
3C78
3C78
3878
3870
3870
78F0
70F0
70E0
70E0
F1E0
01E0
01C0
01C0
03C0
03C0
ENDCHAR
STARTCHAR 1F26
ENCODING 7974
SWIDTH 468 0
DWIDTH 13 0
BBX 14 28 1 -5
BITMAP
0070
01FC
01DC
030C
0060
0070
0060
00C0
0080
0000
1FE0
1FF0
1FF8
3C78
3C78
3878
3870
3870
78F0
70F0
70E0
70E0
F1E0
01E0
01C0
01C0
03C0
03C0
ENDCHAR
STARTCHAR 1F27
ENCODING 7975
SWIDTH 468 0
DWIDTH 13 0
BBX 14 28 1 -5
BITMAP
0070
01F8
039C
030C
0060
00E0
00C0
0060
0000
0000
1FE0
1FF0
1FF8
3C78
3C78
3878
3870
3870
78F0
70F0
70E0
70E0
F1E0
01E0
01C0
01C0
03C0
03C0
ENDCHAR
STARTCHAR 1F28
ENCODING 7976
SWIDTH 468 0
DWIDTH 13 0
BBX 17 18 -1 0
BITMAP
600000
738380
778780
778780
670700
C70700
0F0F00
0F0F00
0FFE00
0FFE00
0E0E00
1E1E00
1C1C00
1C1C00
1C1C00
3C3C00
3C3C00
383800
ENDCHAR
STARTCHAR 1F29
ENCODING 7977
SWIDTH 468 0
DWIDTH 13 0
BBX 17 18 -1 0
BITMAP
600000
F38380
E78780
C78780
670700
670700
0F0F00
0F0F00
0FFE00
0FFE00
0E0E00
1E1E00
1C1C00
1C1C00
1C1C00
3C3C00
3C3C00
383800
ENDCHAR
STARTCHAR 1F2A
ENCODING 7978
SWIDTH 468 0
DWIDTH 13 0
BBX 23 18 -7 0
BITMAP
200000
730E0E
739E1E
319E1E
619C1C
C0DC1C
003C3C
003C3C
003FF8
003FF8
003838
007878
007070
007070
007070
00F0F0
00F0F0
00E0E0
ENDCHAR
STARTCHAR 1F2B
ENCODING 7979
SWIDTH 468 0
DWIDTH 13 0
BBX 22 18 -6 0
BITMAP
600000
E61C1C
E73C3C
C33C3C
63B838
61B838
007878
007878
007FF0
007FF0
007070
00F0F0
00E0E0
00E0E0
00E0E0
01E1E0
01E1E0
01C1C0
ENDCHAR
STARTCHAR 1F2C
ENCODING 7980
SWIDTH 468 0
DWIDTH 13 0
BBX 23 18 -7 0
BITMAP
308000
79CE0E
79DE1E
339E1E
671C1C
C61C1C
003C3C
003C3C
003FF8
003FF8
003838
007878
007070
007070
007070
00F0F0
00F0F0
00E0E0
ENDCHAR
STARTCHAR 1F2D
ENCODING 7981
SWIDTH 468 0
DWIDTH 13 0
BBX 22 18 -6 0
BITMAP
610000
E19C1C
E3BC3C
C73C3C
CE3838
6C3838
007878
007878
007FF0
007FF0
007070
00F0F0
00E0E0
00E0E0
00E0E0
01E1E0
01E1E0
01C1C0
ENDCHAR
STARTCHAR 1F2E
ENCODING 7982
SWIDTH 468 0
DWIDTH 13 0
BBX 20 20 -4 0
BITMAP
3C0000
7E0000
E60000
C37070
38F0F0
38F0F0
18E0E0
70E0E0
01E1E0
01E1E0
01FFC0
01FFC0
01C1C0
03C3C0
038380
038380
038380
078780
078780
070700
ENDCHAR
STARTCHAR 1F2F
ENCODING 7983
SWIDTH 468 0
DWIDTH 13 0
BBX 20 20 -4 0
BITMAP
3C0000
7E0000
E60000
C37070
38F0F0
38F0F0
30E0E0
18E0E0
01E1E0
01E1E0
01FFC0
01FFC0
01C1C0
03C3C0
038380
038380
038380
078780
078780
070700
ENDCHAR
STARTCHAR 1F30
ENCODING 7984
SWIDTH 468 0
DWIDTH 13 0
BBX 10 21 3 0
BITMAP
0180
03C0
03C0
0180
0380
0700
0000
0000
7F00
FE00
FE00
0E00
1E00
1E00
1C00
1C00
3C00
3C00
3FC0
1FC0
1FC0
ENDCHAR
STARTCHAR 1F31
ENCODING 7985
SWIDTH 468 0
DWIDTH 13 0
BBX 10 21 3 0
BITMAP
0100
0780
0780
0700
0300
0180
0000
0000
7F00
FE00
FE00
0E00
1E00
1E00
1C00
1C00
3C00
3C00
3FC0
1FC0
1FC0
ENDCHAR
STARTCHAR 1F32
ENCODING 7986
SWIDTH 468 0
DWIDTH 13 0
BBX 12 21 3 0
BITMAP
0420
0EE0
1E60
0E70
0C30
3830
0000
0000
7F00
FE00
FE00
0E00
1E00
1E00
1C00
1C00
3C00
3C00
3FC0
1FC0
1FC0
ENDCHAR
STARTCHAR 1F33
ENCODING 7987
SWIDTH 468 0
DWIDTH 13 0
BBX 11 21 3 0
BITMAP
0840
1DC0
1CC0
18E0
1860
0C60
0000
0000
7F00
FE00
FE00
0E00
1E00
1E00
1C00
1C00
3C00
3C00
3FC0
1FC0
1FC0
ENDCHAR
STARTCHAR 1F34
ENCODING 7988
SWIDTH 468 0
DWIDTH 13 0
BBX 13 21 3 0
BITMAP
0010
0F18
0F38
0670
0EE0
1CC0
0000
0000
7F00
FE00
FE00
0E00
1E00
1E00
1C00
1C00
3C00
3C00
3FC0
1FC0
1FC0
ENDCHAR
STARTCHAR 1F35
ENCODING 7989
SWIDTH 468 0
DWIDTH 13 0
BBX 12 21 3 0
BITMAP
0C00
1C30
1C70
18E0
1CC0
0DC0
0000
0000
7F00
FE00
FE00
0E00
1E00
1E00
1C00
1C00
3C00
3C00
3FC0
1FC0
1FC0
ENDCHAR
STARTCHAR 1F36
ENCODING 7990
SWIDTH 468 0
DWIDTH 13 0
BBX 12 23 3 0
BITMAP
03C0
07E0
0E70
0C30
0380
0380
0180
0300
0000
0000
7F00
FE00
FE00
0E00
1E00
1E00
1C00
1C00
3C00
3C00
3FC0
1FC0
1FC0
ENDCHAR
STARTCHAR 1F37
ENCODING 7991
SWIDTH 468 0
DWIDTH 13 0
BBX 11 23 3 0
BITMAP
03C0
07E0
0E60
0C60
0380
0380
0300
0180
0000
0000
7F00
FE00
FE00
0E00
1E00
1E00
1C00
1C00
3C00
3C00
3FC0
1FC0
1FC0
ENDCHAR
STARTCHAR 1F38
ENCODING 7992
SWIDTH 468 0
DWIDTH 13 0
BBX 17 18 -1 0
BITMAP
200000
73FF80
73FF80
37FF00
607000
C07000
00F000
00F000
00E000
00E000
00E000
01E000
01C000
01C000
01C000
1FF800
3FF800
3FF800
ENDCHAR
STARTCHAR 1F39
ENCODING 7993
SWIDTH 468 0
DWIDTH 13 0
BBX 17 18 -1 0
BITMAP
600000
73FF80
F3FF80
67FF00
607000
307000
00F000
00F000
00E000
00E000
00E000
01E000
01C000
01C000
01C000
1FF800
3FF800
3FF800
ENDCHAR
STARTCHAR 1F3A
ENCODING 7994
SWIDTH 468 0
DWIDTH 13 0
BBX 23 18 -7 0
BITMAP
300000
7B8FFE
7B8FFE
319FFC
71C1C0
E0C1C0
0003C0
0003C0
000380
000380
000380
000780
000700
000700
000700
007FE0
00FFE0
00FFE0
ENDCHAR
STARTCHAR 1F3B
ENCODING 7995
SWIDTH 468 0
DWIDTH 13 0
BBX 21 18 -5 0
BITMAP
620000
EE3FF8
E73FF8
C77FF0
E30700
638700
000F00
000F00
000E00
000E00
000E00
001E00
001C00
001C00
001C00
01FF80
03FF80
03FF80
ENDCHAR
STARTCHAR 1F3C
ENCODING 7996
SWIDTH 468 0
DWIDTH 13 0
BBX 23 18 -7 0
BITMAP
300000
78CFFE
79CFFE
3B9FFC
7301C0
E601C0
0003C0
0003C0
000380
000380
000380
000780
000700
000700
000700
007FE0
00FFE0
00FFE0
ENDCHAR
STARTCHAR 1F3D
ENCODING 7997
SWIDTH 468 0
DWIDTH 13 0
BBX 22 18 -6 0
BITMAP
610000
E19FFC
E39FFC
C73FF8
EE0380
6C0380
000780
000780
000700
000700
000700
000F00
000E00
000E00
000E00
00FFC0
01FFC0
01FFC0
ENDCHAR
STARTCHAR 1F3E
ENCODING 7998
SWIDTH 468 0
DWIDTH 13 0
BBX 20 20 -4 0
BITMAP
3C0000
7E0000
E70000
C37FF0
387FF0
38FFE0
180E00
300E00
001E00
001E00
001C00
001C00
001C00
003C00
003800
003800
003800
03FF00
07FF00
07FF00
ENDCHAR
STARTCHAR 1F3F
ENCODING 7999
SWIDTH 468 0
DWIDTH 13 0
BBX 20 20 -4 0
BITMAP
3C0000
7E0000
E70000
C37FF0
187FF0
38FFE0
100E00
180E00
001E00
001E00
001C00
001C00
001C00
003C00
003800
003800
003800
03FF00
07FF00
07FF00
ENDCHAR
STARTCHAR 1F40
ENCODING 8000
SWIDTH 468 0
DWIDTH 13 0
BBX 12 21 2 0
BITMAP
0040
00E0
00E0
00E0
00C0
0380
0000
0000
0FC0
1FE0
3FF0
78F0
7070
F070
E0F0
E0F0
E0E0
F1E0
FFC0
7F80
7F00
ENDCHAR
STARTCHAR 1F41
ENCODING 8001
SWIDTH 468 0
DWIDTH 13 0
BBX 12 21 2 0
BITMAP
0080
01C0
01C0
0180
01C0
00C0
0000
0000
0FC0
1FE0
3FF0
78F0
7070
F070
E0F0
E0F0
E0E0
F1E0
FFC0
7F80
7F00
ENDCHAR
STARTCHAR 1F42
ENCODING 8002
SWIDTH 468 0
DWIDTH 13 0
BBX 14 21 2 0
BITMAP
0200
0730
0738
0738
0618
0C1C
0000
0000
0FC0
1FE0
3FF0
78F0
7070
F070
E0F0
E0F0
E0E0
F1E0
FFC0
7F80
7F00
ENDCHAR
STARTCHAR 1F43
ENCODING 8003
SWIDTH 468 0
DWIDTH 13 0
BBX 13 21 2 0
BITMAP
0600
0E60
0E70
0C70
0E30
0638
0000
0000
0FC0
1FE0
3FF0
78F0
7070
F070
E0F0
E0F0
E0E0
F1E0
FFC0
7F80
7F00
ENDCHAR
STARTCHAR 1F44
ENCODING 8004
SWIDTH 468 0
DWIDTH 13 0
BBX 14 21 2 0
BITMAP
0100
038C
079C
03B8
0338
0E70
0000
0000
0FC0
1FE0
3FF0
78F0
7070
F070
E0F0
E0F0
E0E0
F1E0
FFC0
7F80
7F00
ENDCHAR
STARTCHAR 1F45
ENCODING 8005
SWIDTH 468 0
DWIDTH 13 0
BBX 14 21 2 0
BITMAP
0600
0F18
0F3C
0E38
0670
07E0
0200
0000
0FC0
1FE0
3FF0
78F0
7070
F070
E0F0
E0F0
E0E0
F1E0
FFC0
7F80
7F00
ENDCHAR
STARTCHAR 1F48
ENCODING 8008
SWIDTH 468 0
DWIDTH 13 0
BBX 16 18 -1 0
BITMAP
2030
70FC
73FE
33DF
678F
CF07
0E07
0E0F
1E0F
1E0F
1C0E
1C0E
1C1E
1C1C
1E3C
1FF8
0FF0
07E0
ENDCHAR
STARTCHAR 1F49
ENCODING 8009
SWIDTH 468 0
DWIDTH 13 0
BBX 16 18 -1 0
BITMAP
6030
E0FC
E3FE
C3DF
678F
6F07
0E07
0E0F
1E0F
1E0F
1C0E
1C0E
1C1E
1C1C
1E3C
1FF8
0FF0
07E0
ENDCHAR
STARTCHAR 1F4A
ENCODING 8010
SWIDTH 468 0
DWIDTH 13 0
BBX 22 18 -7 0
BITMAP
2100C0
7703F0
730FF8
738F7C
619E3C
C1FC1C
00381C
00383C
00783C
00783C
007038
007038
007078
007070
0078F0
007FE0
003FC0
001F80
ENDCHAR
STARTCHAR 1F4B
ENCODING 8011
SWIDTH 468 0
DWIDTH 13 0
BBX 21 18 -6 0
BITMAP
620180
EE07E0
E71FF0
C71EF8
E33C78
63F838
007838
007038
00F078
00F078
00E070
00E070
00E0F0
00E0E0
00F1E0
00FFC0
007F80
003F00
ENDCHAR
STARTCHAR 1F4C
ENCODING 8012
SWIDTH 468 0
DWIDTH 13 0
BBX 21 18 -6 0
BITMAP
208180
71C7E0
71DFF0
339EF8
673C78
C67838
007038
007078
00F078
00F078
00E070
00E070
00E0F0
00E0E0
00F1E0
00FFC0
007F80
003F00
ENDCHAR
STARTCHAR 1F4D
ENCODING 8013
SWIDTH 468 0
DWIDTH 13 0
BBX 20 18 -5 0
BITMAP
610300
E18FC0
E3BFE0
C73DF0
EE78F0
6CF070
00E070
00E0F0
01E0F0
01E0F0
01C0E0
01C0E0
01C1E0
01C1C0
01E3C0
01FF80
00FF00
007E00
ENDCHAR
STARTCHAR 1F50
ENCODING 8016
SWIDTH 468 0
DWIDTH 13 0
BBX 13 21 2 0
BITMAP
0040
00E0
00E0
00E0
00C0
0380
0000
0000
3878
3870
3870
7870
78F0
70E0
70E0
F0E0
F1E0
F1C0
FFC0
7F80
3F00
ENDCHAR
STARTCHAR 1F51
ENCODING 8017
SWIDTH 468 0
DWIDTH 13 0
BBX 13 21 2 0
BITMAP
0080
03C0
03C0
0380
0180
00C0
0000
0000
3878
3870
3870
7870
78F0
70E0
70E0
F0E0
F1E0
F1C0
FFC0
7F80
3F00
ENDCHAR
STARTCHAR 1F52
ENCODING 8018
SWIDTH 468 0
DWIDTH 13 0
BBX 13 20 2 1
BITMAP
0F70
0F70
0630
0E38
1C18
0000
0000
3878
3870
3870
7870
78F0
70E0
70E0
F0E0
F1E0
F1C0
FFC0
7F80
3F00
ENDCHAR
STARTCHAR 1F53
ENCODING 8019
SWIDTH 468 0
DWIDTH 13 0
BBX 13 21 2 0
BITMAP
0400
1EE0
1EE0
1C60
0C70
0630
0020
0000
3878
3870
3870
7870
78F0
70E0
70E0
F0E0
F1E0
F1C0
FFC0
7F80
3F00
ENDCHAR
STARTCHAR 1F54
ENCODING 8020
SWIDTH 468 0
DWIDTH 13 0
BBX 14 21 2 0
BITMAP
0200
071C
079C
0338
0770
0C60
0000
0000
3878
3870
3870
7870
78F0
70E0
70E0
F0E0
F1E0
F1C0
FFC0
7F80
3F00
ENDCHAR
STARTCHAR 1F55
ENCODING 8021
SWIDTH 468 0
DWIDTH 13 0
BBX 13 21 2 0
BITMAP
0600
0E18
0E38
0C70
0E60
06E0
0000
0000
3878
3870
3870
7870
78F0
70E0
70E0
F0E0
F1E0
F1C0
FFC0
7F80
3F00
ENDCHAR
STARTCHAR 1F56
ENCODING 8022
SWIDTH 468 0
DWIDTH 13 0
BBX 13 23 2 0
BITMAP
00E0
03F0
0738
0618
00C0
01C0
00C0
0180
0000
0000
3878
3870
3870
7870
78F0
70E0
70E0
F0E0
F1E0
F1C0
FFC0
7F80
3F00
ENDCHAR
STARTCHAR 1F57
ENCODING 8023
SWIDTH 468 0
DWIDTH 13 0
BBX 13 23 2 0
BITMAP
01E0
03F0
0738
0618
01C0
01C0
0180
00C0
0000
0000
3878
3870
3870
7870
78F0
70E0
70E0
F0E0
F1E0
F1C0
FFC0
7F80
3F00
ENDCHAR
STARTCHAR 1F59
ENCODING 8025
SWIDTH 468 0
DWIDTH 13 0
BBX 18 18 -1 0
BITMAP
600000
F703C0
E70780
C78780
638F00
638E00
039E00
03BC00
03F800
01F000
01E000
01E000
01E000
01C000
01C000
03C000
03C000
038000
ENDCHAR
STARTCHAR 1F5B
ENCODING 8027
SWIDTH 468 0
DWIDTH 13 0
BBX 23 18 -6 0
BITMAP
600000
F7381E
F7383C
C33C3C
639C78
319C70
001CF0
001DE0
001FC0
000F80
000F00
000F00
000F00
000E00
000E00
001E00
001E00
001C00
ENDCHAR
STARTCHAR 1F5D
ENCODING 8029
SWIDTH 468 0
DWIDTH 13 0
BBX 24 18 -7 0
BITMAP
600000
F1DC0F
F3DC1E
C39E1E
670E3C
360E38
000E78
000EF0
000FE0
0007C0
000780
000780
000780
000700
000700
000F00
000F00
000E00
ENDCHAR
STARTCHAR 1F5F
ENCODING 8031
SWIDTH 468 0
DWIDTH 13 0
BBX 22 20 -5 0
BITMAP
3E0000
7F0000
630000
C3703C
187078
387878
1038F0
0838E0
0039E0
003BC0
003F80
001F00
001E00
001E00
001E00
001C00
001C00
003C00
003C00
003800
ENDCHAR
STARTCHAR 1F60
ENCODING 8032
SWIDTH 468 0
DWIDTH 13 0
BBX 13 21 1 0
BITMAP
0020
0070
0070
0070
0060
01C0
0000
0000
0C38
1C38
3838
3818
7018
7398
E338
E738
E738
E738
FFF8
FFF0
79E0
ENDCHAR
STARTCHAR 1F61
ENCODING 8033
SWIDTH 468 0
DWIDTH 13 0
BBX 13 21 1 0
BITMAP
0040
01E0
01E0
01C0
00C0
0060
0000
0000
0C38
1C38
3838
3818
7018
7398
E338
E738
E738
E738
FFF8
FFF0
79E0
ENDCHAR
STARTCHAR 1F62
ENCODING 8034
SWIDTH 468 0
DWIDTH 13 0
BBX 14 20 1 1
BITMAP
07B8
07B8
0318
071C
0E0C
0000
0000
0C38
1C38
3838
3818
7018
7398
E338
E738
E738
E738
FFF8
FFF0
79E0
ENDCHAR
STARTCHAR 1F63
ENCODING 8035
SWIDTH 468 0
DWIDTH 13 0
BBX 13 21 1 0
BITMAP
0200
0F70
0F70
0E30
0638
0318
0010
0000
0C38
1C38
3838
3818
7018
7398
E338
E738
E738
E738
FFF8
FFF0
79E0
ENDCHAR
STARTCHAR 1F64
ENCODING 8036
SWIDTH 468 0
DWIDTH 13 0
BBX 15 21 1 0
BITMAP
0100
038C
039E
039C
0338
0630
0000
0000
0C38
1C38
3838
3818
7018
7398
E338
E738
E738
E738
FFF8
FFF0
79E0
ENDCHAR
STARTCHAR 1F65
ENCODING 8037
SWIDTH 468 0
DWIDTH 13 0
BBX 14 21 1 0
BITMAP
0208
070C
071C
0638
0670
0360
0000
0000
0C38
1C38
3838
3818
7018
7398
E338
E738
E738
E738
FFF8
FFF0
79E0
ENDCHAR
STARTCHAR 1F66
ENCODING 8038
SWIDTH 468 0
DWIDTH 13 0
BBX 14 23 1 0
BITMAP
0070
01F8
039C
030C
0060
00E0
0060
00C0
0000
0000
0C38
1C38
3838
3818
7018
7398
E338
E738
E738
E738
FFF8
FFF0
79E0
ENDCHAR
STARTCHAR 1F67
ENCODING 8039
SWIDTH 468 0
DWIDTH 13 0
BBX 14 23 1 0
BITMAP
00F0
01F8
039C
030C
00E0
00E0
00C0
0060
0000
0000
0C38
1C38
3838
3818
7018
7398
E338
E738
E738
E738
FFF8
FFF0
79E0
ENDCHAR
STARTCHAR 1F68
ENCODING 8040
SWIDTH 468 0
DWIDTH 13 0
BBX 16 18 -1 0
BITMAP
2010
71FE
73FE
77DF
E707
CF07
0E07
1E07
1E07
1C0F
1C0E
1C0E
1C1C
0E1C
0E38
3E7E
7E7C
7EFC
ENDCHAR
STARTCHAR 1F69
ENCODING 8041
SWIDTH 468 0
DWIDTH 13 0
BBX 17 18 -2 0
BITMAP
600800
F0FF00
F1FF00
63EF80
638380
378380
070380
0F0380
0F0380
0E0780
0E0700
0E0700
0E0E00
070E00
071C00
1F3F00
3F3E00
3F7E00
ENDCHAR
STARTCHAR 1F6A
ENCODING 8042
SWIDTH 468 0
DWIDTH 13 0
BBX 23 18 -8 0
BITMAP
308020
7B83FC
7B87FC
31CFBE
71CE0E
E0DE0E
001C0E
003C0E
003C0E
00381E
00381C
00381C
003838
001C38
001C70
007CFC
00FCF8
00FDF8
ENDCHAR
STARTCHAR 1F6B
ENCODING 8043
SWIDTH 468 0
DWIDTH 13 0
BBX 22 18 -7 0
BITMAP
610040
F707F8
F30FF8
639F7C
619C1C
31BC1C
00381C
00781C
00781C
00703C
007038
007038
007070
003870
0038E0
00F9F8
01F9F0
01FBF0
ENDCHAR
STARTCHAR 1F6C
ENCODING 8044
SWIDTH 468 0
DWIDTH 13 0
BBX 21 18 -6 0
BITMAP
200080
718FF0
739FF0
73BEF8
673838
C67838
007038
00F038
00F038
00E078
00E070
00E070
00E0E0
0070E0
0071C0
01F3F0
03F3E0
03F7E0
ENDCHAR
STARTCHAR 1F6D
ENCODING 8045
SWIDTH 468 0
DWIDTH 13 0
BBX 21 18 -6 0
BITMAP
600080
F18FF0
F39FF0
C3BEF8
673838
367838
007038
00F038
00F038
00E078
00E070
00E070
00E0E0
0070E0
0071C0
01F3F0
03F3E0
03F7E0
ENDCHAR
STARTCHAR 1F6E
ENCODING 8046
SWIDTH 468 0
DWIDTH 13 0
BBX 18 20 -3 0
BITMAP
3C0000
FE0000
C60400
C67F80
38FF80
39F7C0
11C1C0
73C1C0
0381C0
0781C0
0781C0
0703C0
070380
070380
070700
038700
038E00
0F9F80
1F9F00
1FBF00
ENDCHAR
STARTCHAR 1F6F
ENCODING 8047
SWIDTH 468 0
DWIDTH 13 0
BBX 18 20 -3 0
BITMAP
3C0000
FE0000
C60400
C67F80
38FF80
39F7C0
31C1C0
1BC1C0
0381C0
0781C0
0781C0
0703C0
070380
070380
070700
038700
038E00
0F9F80
1F9F00
1FBF00
ENDCHAR
STARTCHAR 1F70
ENCODING 8048
SWIDTH 468 0
DWIDTH 13 0
BBX 12 19 2 1
BITMAP
0180
03E0
01F0
0070
0000
0000
0FF0
1FF0
3FF0
78F0
70F0
F0E0
E0E0
E1E0
E1E0
E1E0
FFF0
FFE0
7EE0
ENDCHAR
STARTCHAR 1F71
ENCODING 8049
SWIDTH 468 0
DWIDTH 13 0
BBX 12 19 2 1
BITMAP
0060
01F0
03E0
0380
0000
0000
0FF0
1FF0
3FF0
78F0
70F0
F0E0
E0E0
E1E0
E1E0
E1E0
FFF0
FFE0
7EE0
ENDCHAR
STARTCHAR 1F72
ENCODING 8050
SWIDTH 468 0
DWIDTH 13 0
BBX 13 19 2 1
BITMAP
0180
03E0
01F0
0070
0000
0000
0FF8
3FF0
3E70
3800
3800
3F80
3F80
7F80
F000
E000
FDE0
FFE0
3FE0
ENDCHAR
STARTCHAR 1F73
ENCODING 8051
SWIDTH 468 0
DWIDTH 13 0
BBX 13 19 2 1
BITMAP
0060
01F0
03E0
0380
0000
0000
0FF8
3FF0
3E70
3800
3800
3F80
3F80
7F80
F000
E000
FDE0
FFE0
3FE0
ENDCHAR
STARTCHAR 1F74
ENCODING 8052
SWIDTH 468 0
DWIDTH 13 0
BBX 13 24 1 -4
BITMAP
0180
01E0
01F8
0070
0010
0000
1FE0
1FF0
1FF8
3C78
3C78
3878
3870
3870
78F0
70F0
70E0
70E0
F1E0
01E0
01C0
01C0
03C0
03C0
ENDCHAR
STARTCHAR 1F75
ENCODING 8053
SWIDTH 468 0
DWIDTH 13 0
BBX 13 24 1 -4
BITMAP
0030
00F8
01F0
01C0
0000
0000
1FE0
1FF0
1FF8
3C78
3C78
3878
3870
3870
78F0
70F0
70E0
70E0
F1E0
01E0
01C0
01C0
03C0
03C0
ENDCHAR
STARTCHAR 1F76
ENCODING 8054
SWIDTH 468 0
DWIDTH 13 0
BBX 10 19 3 1
BITMAP
0600
0F80
07C0
01C0
0000
0000
7F00
FE00
FE00
0E00
1E00
1E00
1C00
1C00
3C00
3C00
3FC0
1FC0
1FC0
ENDCHAR
STARTCHAR 1F77
ENCODING 8055
SWIDTH 468 0
DWIDTH 13 0
BBX 10 19 3 1
BITMAP
01C0
03C0
0FC0
0700
0400
0000
7F00
FE00
FE00
0E00
1E00
1E00
1C00
1C00
3C00
3C00
3FC0
1FC0
1FC0
ENDCHAR
STARTCHAR 1F78
ENCODING 8056
SWIDTH 468 0
DWIDTH 13 0
BBX 12 19 2 1
BITMAP
0180
03E0
01F0
0070
0000
0000
0FC0
1FE0
3FF0
78F0
7070
F070
E0F0
E0F0
E0E0
F1E0
FFC0
7F80
7F00
ENDCHAR
STARTCHAR 1F79
ENCODING 8057
SWIDTH 468 0
DWIDTH 13 0
BBX 12 19 2 1
BITMAP
0060
01F0
03E0
0380
0000
0000
0FC0
1FE0
3FF0
78F0
7070
F070
E0F0
E0F0
E0E0
F1E0
FFC0
7F80
7F00
ENDCHAR
STARTCHAR 1F7A
ENCODING 8058
SWIDTH 468 0
DWIDTH 13 0
BBX 13 19 2 1
BITMAP
0300
03C0
03F0
00E0
0020
0000
3878
3870
3870
7870
78F0
70E0
70E0
F0E0
F1E0
F1C0
FFC0
7F80
3F00
ENDCHAR
STARTCHAR 1F7B
ENCODING 8059
SWIDTH 468 0
DWIDTH 13 0
BBX 13 19 2 1
BITMAP
0060
01F0
03E0
0380
0000
0000
3878
3870
3870
7870
78F0
70E0
70E0
F0E0
F1E0
F1C0
FFC0
7F80
3F00
ENDCHAR
STARTCHAR 1F7C
ENCODING 8060
SWIDTH 468 0
DWIDTH 13 0
BBX 13 19 1 1
BITMAP
0380
03C0
01F0
00F0
0020
0000
0C38
1C38
3838
3818
7018
7398
E338
E738
E738
E738
FFF8
FFF0
79E0
ENDCHAR
STARTCHAR 1F7D
ENCODING 8061
SWIDTH 468 0
DWIDTH 13 0
BBX 13 19 1 1
BITMAP
0030
00F8
01F0
01C0
0000
0000
0C38
1C38
3838
3818
7018
7398
E338
E738
E738
E738
FFF8
FFF0
79E0
ENDCHAR
STARTCHAR 1F80
ENCODING 8064
SWIDTH 468 0
DWIDTH 13 0
BBX 12 26 2 -5
BITMAP
0040
00E0
00E0
00E0
00C0
0380
0000
0000
0FF0
1FF0
3FF0
78F0
70F0
F0E0
E0E0
E1E0
E1E0
E1E0
FFF0
FFE0
7EE0
0000
1C00
1C00
1E00
0E00
ENDCHAR
STARTCHAR 1F81
ENCODING 8065
SWIDTH 468 0
DWIDTH 13 0
BBX 12 26 2 -5
BITMAP
0080
01C0
01C0
0180
01C0
00C0
0000
0000
0FF0
1FF0
3FF0
78F0
70F0
F0E0
E0E0
E1E0
E1E0
E1E0
FFF0
FFE0
7EE0
0000
1C00
1C00
1E00
0E00
ENDCHAR
STARTCHAR 1F82
ENCODING 8066
SWIDTH 468 0
DWIDTH 13 0
BBX 14 26 2 -5
BITMAP
0200
0730
0738
0738
0618
0C1C
0000
0000
0FF0
1FF0
3FF0
78F0
70F0
F0E0
E0E0
E1E0
E1E0
E1E0
FFF0
FFE0
7EE0
0000
1C00
1C00
1E00
0E00
ENDCHAR
STARTCHAR 1F83
ENCODING 8067
SWIDTH 468 0
DWIDTH 13 0
BBX 13 26 2 -5
BITMAP
0600
0E60
0E70
0C70
0E30
0638
0000
0000
0FF0
1FF0
3FF0
78F0
70F0
F0E0
E0E0
E1E0
E1E0
E1E0
FFF0
FFE0
7EE0
0000
1C00
1C00
1E00
0E00
ENDCHAR
STARTCHAR 1F84
ENCODING 8068
SWIDTH 468 0
DWIDTH 13 0
BBX 14 26 2 -5
BITMAP
0100
038C
079C
03B8
0338
0E70
0000
0000
0FF0
1FF0
3FF0
78F0
70F0
F0E0
E0E0
E1E0
E1E0
E1E0
FFF0
FFE0
7EE0
0000
1C00
1C00
1E00
0E00
ENDCHAR
STARTCHAR 1F85
ENCODING 8069
SWIDTH 468 0
DWIDTH 13 0
BBX 14 26 2 -5
BITMAP
0600
0F18
0F3C
0E38
0670
07E0
0200
0000
0FF0
1FF0
3FF0
78F0
70F0
F0E0
E0E0
E1E0
E1E0
E1E0
FFF0
FFE0
7EE0
0000
1C00
1C00
1E00
0E00
ENDCHAR
STARTCHAR 1F86
ENCODING 8070
SWIDTH 468 0
DWIDTH 13 0
BBX 13 28 2 -5
BITMAP
00F0
01F8
0398
0318
00E0
00E0
00E0
01C0
0000
0000
0FF0
1FF0
3FF0
78F0
70F0
F0E0
E0E0
E1E0
E1E0
E1E0
FFF0
FFE0
7EE0
0000
1C00
1C00
1E00
0E00
ENDCHAR
STARTCHAR 1F87
ENCODING 8071
SWIDTH 468 0
DWIDTH 13 0
BBX 13 28 2 -5
BITMAP
00E0
03F8
03B8
0618
00C0
00E0
00C0
00C0
0000
0000
0FF0
1FF0
3FF0
78F0
70F0
F0E0
E0E0
E1E0
E1E0
E1E0
FFF0
FFE0
7EE0
0000
1C00
1C00
1E00
0E00
ENDCHAR
STARTCHAR 1F88
ENCODING 8072
SWIDTH 468 0
DWIDTH 13 0
BBX 15 18 0 0
BITMAP
2000
7BC0
7BC0
33C0
67C0
C6C6
0ECE
0CCE
1DCE
1DCC
19DC
3FDC
3FDC
7FD8
71F8
61F8
E1BC
E39C
ENDCHAR
STARTCHAR 1F89
ENCODING 8073
SWIDTH 468 0
DWIDTH 13 0
BBX 15 18 0 0
BITMAP
6000
F3C0
E3C0
C3C0
67C0
66C6
0ECE
0CCE
1DCE
1DCC
19DC
3FDC
3FDC
7FD8
71F8
61F8
E1BC
E39C
ENDCHAR
STARTCHAR 1F8A
ENCODING 8074
SWIDTH 468 0
DWIDTH 13 0
BBX 21 18 -6 0
BITMAP
210000
770F00
738F00
338F00
619F00
C1DB18
003B38
003338
007738
007730
006770
00FF70
00FF70
01FF60
01C7E0
0187E0
0386F0
038E70
ENDCHAR
STARTCHAR 1F8B
ENCODING 8075
SWIDTH 468 0
DWIDTH 13 0
BBX 20 18 -5 0
BITMAP
620000
EE1E00
E71E00
C71E00
E33E00
63B630
007670
006670
00EE70
00EE60
00CEE0
01FEE0
01FEE0
03FEC0
038FC0
030FC0
070DE0
071CE0
ENDCHAR
STARTCHAR 1F8C
ENCODING 8076
SWIDTH 468 0
DWIDTH 13 0
BBX 20 18 -5 0
BITMAP
200000
71DE00
73DE00
339E00
673E00
C63630
007670
006670
00EE70
00EE60
00CEE0
01FEE0
01FEE0
03FEC0
038FC0
030FC0
070DE0
071CE0
ENDCHAR
STARTCHAR 1F8D
ENCODING 8077
SWIDTH 468 0
DWIDTH 13 0
BBX 20 18 -5 0
BITMAP
600000
F1DE00
F3DE00
E39E00
673E00
363630
007670
006670
00EE70
00EE60
00CEE0
01FEE0
01FEE0
03FEC0
038FC0
030FC0
070DE0
071CE0
ENDCHAR
STARTCHAR 1F8E
ENCODING 8078
SWIDTH 468 0
DWIDTH 13 0
BBX 18 20 -3 0
BITMAP
1E0000
7F0000
630000
C37800
187800
1C7800
18F800
30D8C0
01D9C0
0199C0
03B9C0
03B980
033B80
07FB80
07FB80
0FFB00
0E3F00
0C3F00
1C3780
1C7380
ENDCHAR
STARTCHAR 1F8F
ENCODING 8079
SWIDTH 468 0
DWIDTH 13 0
BBX 18 20 -3 0
BITMAP
1E0000
7F0000
630000
C37800
187800
1C7800
18F800
0CD8C0
01D9C0
0199C0
03B9C0
03B980
033B80
07FB80
07FB80
0FFB00
0E3F00
0C3F00
1C3780
1C7380
ENDCHAR
STARTCHAR 1F90
ENCODING 8080
SWIDTH 468 0
DWIDTH 13 0
BBX 13 26 1 -5
BITMAP
0020
0070
0070
0070
0060
01C0
0000
0000
1FE0
1FF0
1FF8
3C78
3C78
3878
3870
3870
78F0
70F0
70E0
70E0
F1E0
01E0
E1C0
E1C0
F3C0
33C0
ENDCHAR
STARTCHAR 1F91
ENCODING 8081
SWIDTH 468 0
DWIDTH 13 0
BBX 13 26 1 -5
BITMAP
0040
00E0
00E0
00C0
00E0
0060
0000
0000
1FE0
1FF0
1FF8
3C78
3C78
3878
3870
3870
78F0
70F0
70E0
70E0
F1E0
01E0
E1C0
E1C0
F3C0
33C0
ENDCHAR
STARTCHAR 1F92
ENCODING 8082
SWIDTH 468 0
DWIDTH 13 0
BBX 14 25 1 -4
BITMAP
07B8
07B8
0318
071C
0E0C
0000
0000
1FE0
1FF0
1FF8
3C78
3C78
3878
3870
3870
78F0
70F0
70E0
70E0
F1E0
01E0
E1C0
E1C0
F3C0
33C0
ENDCHAR
STARTCHAR 1F93
ENCODING 8083
SWIDTH 468 0
DWIDTH 13 0
BBX 13 26 1 -5
BITMAP
0200
0F70
0F70
0E30
0638
0318
0010
0000
1FE0
1FF0
1FF8
3C78
3C78
3878
3870
3870
78F0
70F0
70E0
70E0
F1E0
01E0
E1C0
E1C0
F3C0
33C0
ENDCHAR
STARTCHAR 1F94
ENCODING 8084
SWIDTH 468 0
DWIDTH 13 0
BBX 15 26 1 -5
BITMAP
0100
038E
03CE
019C
03B8
0630
0000
0000
1FE0
1FF0
1FF8
3C78
3C78
3878
3870
3870
78F0
70F0
70E0
70E0
F1E0
01E0
E1C0
E1C0
F3C0
33C0
ENDCHAR
STARTCHAR 1F95
ENCODING 8085
SWIDTH 468 0
DWIDTH 13 0
BBX 14 26 1 -5
BITMAP
0208
070C
071C
0638
0670
0360
0000
0000
1FE0
1FF0
1FF8
3C78
3C78
3878
3870
3870
78F0
70F0
70E0
70E0
F1E0
01E0
E1C0
E1C0
F3C0
33C0
ENDCHAR
STARTCHAR 1F96
ENCODING 8086
SWIDTH 468 0
DWIDTH 13 0
BBX 14 28 1 -5
BITMAP
0070
01FC
01DC
030C
0060
0070
0060
00C0
0080
0000
1FE0
1FF0
1FF8
3C78
3C78
3878
3870
3870
78F0
70F0
70E0
70E0
F1E0
01E0
E1C0
E1C0
F3C0
33C0
ENDCHAR
STARTCHAR 1F97
ENCODING 8087
SWIDTH 468 0
DWIDTH 13 0
BBX 14 28 1 -5
BITMAP
0070
01F8
039C
030C
0060
00E0
0040
0060
0000
0000
1FE0
1FF0
1FF8
3C78
3C78
3878
3870
3870
78F0
70F0
70E0
70E0
F1E0
01E0
E1C0
E1C0
F3C0
33C0
ENDCHAR
STARTCHAR 1F98
ENCODING 8088
SWIDTH 468 0
DWIDTH 13 0
BBX 17 18 -2 0
BITMAP
300000
7B8C00
7B1C00
331C00
771C00
C71980
073B80
063B80
0FFB80
0FF300
0E7700
0C7700
1C7700
1C6600
1CEE00
18EE00
38EF00
38C700
ENDCHAR
STARTCHAR 1F99
ENCODING 8089
SWIDTH 468 0
DWIDTH 13 0
BBX 17 18 -2 0
BITMAP
600000
F38C00
F31C00
631C00
671C00
371980
073B80
063B80
0FFB80
0FF300
0E7700
0C7700
1C7700
1C6600
1CEE00
18EE00
38EF00
38C700
ENDCHAR
STARTCHAR 1F9A
ENCODING 8090
SWIDTH 468 0
DWIDTH 13 0
BBX 23 18 -8 0
BITMAP
300000
7B8E30
7B8C70
318C70
71DC70
E0DC66
001CEE
0018EE
003FEE
003FCC
0039DC
0031DC
0071DC
007198
0073B8
0063B8
00E3BC
00E31C
ENDCHAR
STARTCHAR 1F9B
ENCODING 8091
SWIDTH 468 0
DWIDTH 13 0
BBX 22 18 -7 0
BITMAP
600000
F71C60
F718E0
E398E0
63B8E0
31B8CC
0039DC
0031DC
007FDC
007F98
0073B8
0063B8
00E3B8
00E330
00E770
00C770
01C778
01C638
ENDCHAR
STARTCHAR 1F9C
ENCODING 8092
SWIDTH 468 0
DWIDTH 13 0
BBX 22 18 -7 0
BITMAP
600000
F19C60
F398E0
7718E0
E638E0
CC38CC
0039DC
0031DC
007FDC
007F98
0073B8
0063B8
00E3B8
00E330
00E770
00C770
01C778
01C638
ENDCHAR
STARTCHAR 1F9D
ENCODING 8093
SWIDTH 468 0
DWIDTH 13 0
BBX 22 18 -7 0
BITMAP
600000
E19C60
E398E0
C718E0
6638E0
6C38CC
0039DC
0031DC
007FDC
007F98
0073B8
0063B8
00E3B8
00E330
00E770
00C770
01C778
01C638
ENDCHAR
STARTCHAR 1F9E
ENCODING 8094
SWIDTH 468 0
DWIDTH 13 0
BBX 20 20 -5 0
BITMAP
3C0000
7E0000
E30000
C37180
186380
386380
18E380
30E330
00E770
00C770
01FF70
01FE60
01CEE0
018EE0
038EE0
038CC0
039DC0
031DC0
071DE0
0718E0
ENDCHAR
STARTCHAR 1F9F
ENCODING 8095
SWIDTH 468 0
DWIDTH 13 0
BBX 20 20 -5 0
BITMAP
3C0000
7E0000
E30000
C37180
186380
386380
10E380
18E330
00E770
00C770
01FF70
01FE60
01CEE0
018EE0
038EE0
038CC0
039DC0
031DC0
071DE0
0718E0
ENDCHAR
STARTCHAR 1FA0
ENCODING 8096
SWIDTH 468 0
DWIDTH 13 0
BBX 13 26 1 -5
BITMAP
0060
00F0
00F0
0060
00E0
01C0
0000
0000
0C38
1C38
3838
3818
7018
7398
E338
E738
E738
E738
FFF8
FFF0
79E0
0000
0E00
0E00
0F00
0700
ENDCHAR
STARTCHAR 1FA1
ENCODING 8097
SWIDTH 468 0
DWIDTH 13 0
BBX 13 26 1 -5
BITMAP
00C0
01C0
01C0
0180
01C0
00C0
0000
0000
0C38
1C38
3838
3818
7018
7398
E338
E738
E738
E738
FFF8
FFF0
79E0
0000
0E00
0E00
0F00
0700
ENDCHAR
STARTCHAR 1FA2
ENCODING 8098
SWIDTH 468 0
DWIDTH 13 0
BBX 14 26 1 -5
BITMAP
0200
0730
07B8
0318
071C
0C0C
0000
0000
0C38
1C38
3838
3818
7018
7398
E338
E738
E738
E738
FFF8
FFF0
79E0
0000
0E00
0E00
0F00
0700
ENDCHAR
STARTCHAR 1FA3
ENCODING 8099
SWIDTH 468 0
DWIDTH 13 0
BBX 13 26 1 -5
BITMAP
0600
0E60
0E70
0C70
0E30
0638
0000
0000
0C38
1C38
3838
3818
7018
7398
E338
E738
E738
E738
FFF8
FFF0
79E0
0000
0E00
0E00
0F00
0700
ENDCHAR
STARTCHAR 1FA4
ENCODING 8100
SWIDTH 468 0
DWIDTH 13 0
BBX 14 26 1 -5
BITMAP
0100
038C
079C
03B8
0338
0E70
0000
0000
0C38
1C38
3838
3818
7018
7398
E338
E738
E738
E738
FFF8
FFF0
79E0
0000
0E00
0E00
0F00
0700
ENDCHAR
STARTCHAR 1FA5
ENCODING 8101
SWIDTH 468 0
DWIDTH 13 0
BBX 14 26 1 -5
BITMAP
0208
070C
071C
0638
0670
0360
0000
0000
0C38
1C38
3838
3818
7018
7398
E338
E738
E738
E738
FFF8
FFF0
79E0
0000
0E00
0E00
0F00
0700
ENDCHAR
STARTCHAR 1FA6
ENCODING 8102
SWIDTH 468 0
DWIDTH 13 0
BBX 14 28 1 -5
BITMAP
00F0
01F8
039C
030C
00E0
00E0
0060
00C0
0000
0000
0C38
1C38
3838
3818
7018
7398
E338
E738
E738
E738
FFF8
FFF0
79E0
0000
0E00
0E00
0F00
0700
ENDCHAR
STARTCHAR 1FA7
ENCODING 8103
SWIDTH 468 0
DWIDTH 13 0
BBX 13 28 1 -5
BITMAP
00F0
01F8
0398
0318
00E0
00E0
00C0
0060
0000
0000
0C38
1C38
3838
3818
7018
7398
E338
E738
E738
E738
FFF8
FFF0
79E0
0000
0E00
0E00
0F00
0700
ENDCHAR
STARTCHAR 1FA8
ENCODING 8104
SWIDTH 468 0
DWIDTH 13 0
BBX 16 18 -1 0
BITMAP
6040
73F0
77F0
7770
6E30
CE73
1C77
1C77
1C77
1866
18EE
18EE
18CE
198C
199C
7BDC
7BDE
7BCE
ENDCHAR
STARTCHAR 1FA9
ENCODING 8105
SWIDTH 468 0
DWIDTH 13 0
BBX 17 18 -2 0
BITMAP
602000
F1F800
F3F800
63B800
671800
373980
0E3B80
0E3B80
0E3B80
0C3300
0C7700
0C7700
0C6700
0CC600
0CCE00
3DEE00
3DEF00
3DE700
ENDCHAR
STARTCHAR 1FAA
ENCODING 8106
SWIDTH 468 0
DWIDTH 13 0
BBX 23 18 -8 0
BITMAP
300080
7B87E0
7B8FE0
318EE0
61DC60
C0DCE6
0038EE
0038EE
0038EE
0030CC
0031DC
0031DC
00319C
003318
003338
00F7B8
00F7BC
00F79C
ENDCHAR
STARTCHAR 1FAB
ENCODING 8107
SWIDTH 468 0
DWIDTH 13 0
BBX 22 18 -7 0
BITMAP
600100
F70FC0
F71FC0
C31DC0
63B8C0
21B9CC
0071DC
0071DC
0071DC
006198
0063B8
0063B8
006338
006630
006670
01EF70
01EF78
01EF38
ENDCHAR
STARTCHAR 1FAC
ENCODING 8108
SWIDTH 468 0
DWIDTH 13 0
BBX 22 18 -7 0
BITMAP
308100
78CFC0
79DFC0
339DC0
7738C0
E639CC
0071DC
0071DC
0071DC
006198
0063B8
0063B8
006338
006630
006670
01EF70
01EF78
01EF38
ENDCHAR
STARTCHAR 1FAD
ENCODING 8109
SWIDTH 468 0
DWIDTH 13 0
BBX 21 18 -6 0
BITMAP
410200
E19F80
E3BF80
C73B80
CE7180
6C7398
00E3B8
00E3B8
00E3B8
00C330
00C770
00C770
00C670
00CC60
00CCE0
03DEE0
03DEF0
03DE70
ENDCHAR
STARTCHAR 1FAE
ENCODING 8110
SWIDTH 468 0
DWIDTH 13 0
BBX 19 20 -4 0
BITMAP
1E0000
7F0000
630800
C37E00
1CFE00
1CEE00
19C600
31CE60
038EE0
038EE0
038EE0
030CC0
031DC0
031DC0
0319C0
033180
033380
0F7B80
0F7BC0
0F79C0
ENDCHAR
STARTCHAR 1FAF
ENCODING 8111
SWIDTH 468 0
DWIDTH 13 0
BBX 19 20 -4 0
BITMAP
1E0000
7F0000
630800
C37E00
18FE00
18EE00
11C600
0DCE60
038EE0
038EE0
038EE0
030CC0
031DC0
031DC0
0319C0
033180
033380
0F7B80
0F7BC0
0F79C0
ENDCHAR
STARTCHAR 1FB0
ENCODING 8112
SWIDTH 468 0
DWIDTH 13 0
BBX 13 19 2 0
BITMAP
0738
0738
03F0
03E0
0000
0000
0FF0
1FF0
3FF0
78F0
70F0
F0E0
E0E0
E1E0
E1E0
E1E0
FFF0
FFE0
7EE0
ENDCHAR
STARTCHAR 1FB1
ENCODING 8113
SWIDTH 468 0
DWIDTH 13 0
BBX 13 18 2 0
BITMAP
07F8
07F8
0000
0000
0000
0FF0
1FF0
3FF0
78F0
70F0
F0E0
E0E0
E1E0
E1E0
E1E0
FFF0
FFE0
7EE0
ENDCHAR
STARTCHAR 1FB2
ENCODING 8114
SWIDTH 468 0
DWIDTH 13 0
BBX 12 24 2 -4
BITMAP
0300
03C0
03F0
00E0
0020
0000
0FF0
1FF0
3FF0
78F0
70F0
F0E0
E0E0
E1E0
E1E0
E1E0
FFF0
FFE0
7EE0
0000
1C00
1C00
1E00
0E00
ENDCHAR
STARTCHAR 1FB3
ENCODING 8115
SWIDTH 468 0
DWIDTH 13 0
BBX 12 18 2 -5
BITMAP
0FF0
1FF0
3FF0
78F0
70F0
F0E0
E0E0
E1E0
E1E0
E1E0
FFF0
FFE0
7EE0
0000
1C00
1C00
1E00
0E00
ENDCHAR
STARTCHAR 1FB4
ENCODING 8116
SWIDTH 468 0
DWIDTH 13 0
BBX 12 24 2 -4
BITMAP
0060
01F0
03E0
0380
0000
0000
0FF0
1FF0
3FF0
78F0
70F0
F0E0
E0E0
E1E0
E1E0
E1E0
FFF0
FFE0
7EE0
0000
1C00
1C00
1E00
0E00
ENDCHAR
STARTCHAR 1FB6
ENCODING 8118
SWIDTH 468 0
DWIDTH 13 0
BBX 12 19 2 0
BITMAP
01C0
03F0
07F0
0630
0000
0000
0FF0
1FF0
3FF0
78F0
70F0
F0E0
E0E0
E1E0
E1E0
E1E0
FFF0
FFE0
7EE0
ENDCHAR
STARTCHAR 1FB7
ENCODING 8119
SWIDTH 468 0
DWIDTH 13 0
BBX 12 24 2 -5
BITMAP
01C0
03F0
07F0
0630
0000
0000
0FF0
1FF0
3FF0
78F0
70F0
F0E0
E0E0
E1E0
E1E0
E1E0
FFF0
FFE0
7EE0
0000
1C00
1C00
1E00
0E00
ENDCHAR
STARTCHAR 1FB8
ENCODING 8120
SWIDTH 468 0
DWIDTH 13 0
BBX 16 23 0 0
BITMAP
00C7
00CE
00FE
007C
0000
0000
00F0
00F0
01F8
03F8
03B8
07B8
0738
0F38
0E38
1E38
1FF8
3FF8
3FF8
7838
7038
F038
F038
ENDCHAR
STARTCHAR 1FB9
ENCODING 8121
SWIDTH 468 0
DWIDTH 13 0
BBX 15 22 0 0
BITMAP
01FE
01FE
01FE
0000
0000
00F0
00F0
01F8
03F8
03B8
07B8
0738
0F38
0E38
1E38
1FF8
3FF8
3FF8
7838
7038
F038
F038
ENDCHAR
STARTCHAR 1FBA
ENCODING 8122
SWIDTH 468 0
DWIDTH 13 0
BBX 13 18 0 0
BITMAP
4000
E0F0
F8F0
7DF8
1BF8
03B8
07B8
0738
0F38
0E38
1E38
1FF8
3FF8
3FF8
7838
7038
F038
F038
ENDCHAR
STARTCHAR 1FBB
ENCODING 8123
SWIDTH 468 0
DWIDTH 13 0
BBX 13 18 0 0
BITMAP
0800
1CF0
7CF0
F9F8
63F8
03B8
07B8
0738
0F38
0E38
1E38
1FF8
3FF8
3FF8
7838
7038
F038
F038
ENDCHAR
STARTCHAR 1FBC
ENCODING 8124
SWIDTH 468 0
DWIDTH 13 0
BBX 15 17 0 0
BITMAP
03C0
03C0
03C0
07C0
06C6
0ECE
0CCE
1DCE
1DCC
19DC
3FDC
3FDC
7FD8
71F8
61F8
E1BC
E39C
ENDCHAR
STARTCHAR 1FBD
ENCODING 8125
SWIDTH 468 0
DWIDTH 13 0
BBX 5 6 7 14
BITMAP
10
38
38
38
30
E0
ENDCHAR
STARTCHAR 1FBE
ENCODING 8126
SWIDTH 468 0
DWIDTH 13 0
BBX 4 4 5 -5
BITMAP
E0
E0
F0
70
ENDCHAR
STARTCHAR 1FBF
ENCODING 8127
SWIDTH 468 0
DWIDTH 13 0
BBX 5 6 7 14
BITMAP
10
38
38
38
30
E0
ENDCHAR
STARTCHAR 1FC0
ENCODING 8128
SWIDTH 468 0
DWIDTH 13 0
BBX 8 4 6 15
BITMAP
3E
7F
FF
E7
ENDCHAR
STARTCHAR 1FC1
ENCODING 8129
SWIDTH 468 0
DWIDTH 13 0
BBX 9 8 6 15
BITMAP
0E00
3F00
3380
6180
0000
6380
F380
E380
ENDCHAR
STARTCHAR 1FC2
ENCODING 8130
SWIDTH 468 0
DWIDTH 13 0
BBX 13 24 1 -4
BITMAP
0180
01E0
01F8
0070
0010
0000
1FE0
1FF0
1FF8
3C78
3C78
3878
3870
3870
78F0
70F0
70E0
70E0
F1E0
01E0
E1C0
E1C0
F3C0
33C0
ENDCHAR
STARTCHAR 1FC3
ENCODING 8131
SWIDTH 468 0
DWIDTH 13 0
BBX 13 18 1 -5
BITMAP
1FE0
1FF0
1FF8
3C78
3C78
3878
3870
3870
78F0
70F0
70E0
70E0
F1E0
01E0
E1C0
E1C0
F3C0
33C0
ENDCHAR
STARTCHAR 1FC4
ENCODING 8132
SWIDTH 468 0
DWIDTH 13 0
BBX 13 24 1 -4
BITMAP
0038
0078
01F0
01C0
0000
0000
1FE0
1FF0
1FF8
3C78
3C78
3878
3870
3870
78F0
70F0
70E0
70E0
F1E0
01E0
E1C0
E1C0
F3C0
33C0
ENDCHAR
STARTCHAR 1FC6
ENCODING 8134
SWIDTH 468 0
DWIDTH 13 0
BBX 13 24 1 -5
BITMAP
00E0
01F8
03F8
0318
0000
0000
1FE0
1FF0
1FF8
3C78
3C78
3878
3870
3870
78F0
70F0
70E0
70E0
F1E0
01E0
01C0
01C0
03C0
03C0
ENDCHAR
STARTCHAR 1FC7
ENCODING 8135
SWIDTH 468 0
DWIDTH 13 0
BBX 13 24 1 -5
BITMAP
00E0
01F8
03F8
0318
0000
0000
1FE0
1FF0
1FF8
3C78
3C78
3878
3870
3870
78F0
70F0
70E0
70E0
F1E0
01E0
E1C0
E1C0
F3C0
33C0
ENDCHAR
STARTCHAR 1FC8
ENCODING 8136
SWIDTH 468 0
DWIDTH 13 0
BBX 18 18 -2 0
BITMAP
400000
E1FFC0
F9FF80
7DFF80
19C000
03C000
03C000
03FE00
03FE00
07FE00
078000
070000
070000
070000
0F0000
0FFE00
0FFE00
0FFC00
ENDCHAR
STARTCHAR 1FC9
ENCODING 8137
SWIDTH 468 0
DWIDTH 13 0
BBX 18 18 -2 0
BITMAP
080000
39FFC0
7DFF80
F9FF80
E1C000
03C000
03C000
03FE00
03FE00
07FE00
078000
070000
070000
070000
0F0000
0FFE00
0FFE00
0FFC00
ENDCHAR
STARTCHAR 1FCA
ENCODING 8138
SWIDTH 468 0
DWIDTH 13 0
BBX 19 18 -3 0
BITMAP
400000
E0E0E0
F9E1E0
7DE1E0
1DC1C0
01C1C0
03C3C0
03C3C0
03FF80
03FF80
038380
078780
070700
070700
070700
0F0F00
0F0F00
0E0E00
ENDCHAR
STARTCHAR 1FCB
ENCODING 8139
SWIDTH 468 0
DWIDTH 13 0
BBX 19 18 -3 0
BITMAP
080000
1CE0E0
7DE1E0
F9E1E0
61C1C0
01C1C0
03C3C0
03C3C0
03FF80
03FF80
038380
078780
070700
070700
070700
0F0F00
0F0F00
0E0E00
ENDCHAR
STARTCHAR 1FCC
ENCODING 8140
SWIDTH 468 0
DWIDTH 13 0
BBX 15 17 0 0
BITMAP
0E30
0C70
0C70
1C70
1C66
1CEE
18EE
3FEE
3FCC
39DC
31DC
71DC
7198
73B8
63B8
E3BC
E31C
ENDCHAR
STARTCHAR 1FCD
ENCODING 8141
SWIDTH 468 0
DWIDTH 13 0
BBX 10 6 5 14
BITMAP
2000
7300
7380
7380
6180
C1C0
ENDCHAR
STARTCHAR 1FCE
ENCODING 8142
SWIDTH 468 0
DWIDTH 13 0
BBX 10 6 5 14
BITMAP
1000
38C0
79C0
3B80
3380
E700
ENDCHAR
STARTCHAR 1FCF
ENCODING 8143
SWIDTH 468 0
DWIDTH 13 0
BBX 8 8 7 14
BITMAP
1C
7E
E7
C3
18
38
18
30
ENDCHAR
STARTCHAR 1FD0
ENCODING 8144
SWIDTH 468 0
DWIDTH 13 0
BBX 11 19 3 0
BITMAP
18E0
1DC0
1FC0
0F80
0000
0000
7F00
FE00
FE00
0E00
1E00
1E00
1C00
1C00
3C00
3C00
3FC0
1FC0
1FC0
ENDCHAR
STARTCHAR 1FD1
ENCODING 8145
SWIDTH 468 0
DWIDTH 13 0
BBX 10 18 3 0
BITMAP
3FC0
3FC0
0000
0000
0000
7F00
FE00
FE00
0E00
1E00
1E00
1C00
1C00
3C00
3C00
3FC0
1FC0
1FC0
ENDCHAR
STARTCHAR 1FD2
ENCODING 8146
SWIDTH 468 0
DWIDTH 13 0
BBX 13 20 3 0
BITMAP
0300
1710
3B38
7BF8
31B0
0000
0000
7F00
FE00
FE00
0E00
1E00
1E00
1C00
1C00
3C00
3C00
3FC0
1FC0
1FC0
ENDCHAR
STARTCHAR 1FD3
ENCODING 8147
SWIDTH 468 0
DWIDTH 13 0
BBX 13 20 3 0
BITMAP
0100
11D0
3BB8
7B78
3630
0200
0000
7F00
FE00
FE00
0E00
1E00
1E00
1C00
1C00
3C00
3C00
3FC0
1FC0
1FC0
ENDCHAR
STARTCHAR 1FD6
ENCODING 8150
SWIDTH 468 0
DWIDTH 13 0
BBX 10 19 3 0
BITMAP
0700
0FC0
1FC0
18C0
0000
0000
7F00
FE00
FE00
0E00
1E00
1E00
1C00
1C00
3C00
3C00
3FC0
1FC0
1FC0
ENDCHAR
STARTCHAR 1FD7
ENCODING 8151
SWIDTH 468 0
DWIDTH 13 0
BBX 12 23 3 0
BITMAP
03C0
07E0
0E60
0C30
0000
1C60
1CE0
1CE0
0000
0000
7F00
FE00
FE00
0E00
1E00
1E00
1C00
1C00
3C00
3C00
3FC0
1FC0
1FC0
ENDCHAR
STARTCHAR 1FD8
ENCODING 8152
SWIDTH 468 0
DWIDTH 13 0
BBX 15 23 1 0
BITMAP
018E
019C
01FC
00F8
0000
0000
0FFE
0FFE
1FFC
01C0
01C0
03C0
03C0
0380
0380
0380
0780
0700
0700
0700
7FE0
FFE0
FFE0
ENDCHAR
STARTCHAR 1FD9
ENCODING 8153
SWIDTH 468 0
DWIDTH 13 0
BBX 15 22 1 0
BITMAP
03FC
03FC
03FC
0000
0000
0FFE
0FFE
1FFC
01C0
01C0
03C0
03C0
0380
0380
0380
0780
0700
0700
0700
7FE0
FFE0
FFE0
ENDCHAR
STARTCHAR 1FDA
ENCODING 8154
SWIDTH 468 0
DWIDTH 13 0
BBX 19 18 -3 0
BITMAP
400000
70FFE0
F8FFE0
7DFFC0
1C1C00
001C00
003C00
003C00
003800
003800
003800
007800
007000
007000
007000
07FE00
0FFE00
0FFE00
ENDCHAR
STARTCHAR 1FDB
ENCODING 8155
SWIDTH 468 0
DWIDTH 13 0
BBX 19 17 -3 1
BITMAP
1CFFE0
3EFFE0
F9FFC0
601C00
001C00
003C00
003C00
003800
003800
003800
007800
007000
007000
007000
07FE00
0FFE00
0FFE00
ENDCHAR
STARTCHAR 1FDD
ENCODING 8157
SWIDTH 468 0
DWIDTH 13 0
BBX 9 7 5 14
BITMAP
2000
F700
F700
E300
6380
3180
0100
ENDCHAR
STARTCHAR 1FDE
ENCODING 8158
SWIDTH 468 0
DWIDTH 13 0
BBX 9 6 6 14
BITMAP
4100
E180
E380
C700
CE00
6C00
ENDCHAR
STARTCHAR 1FDF
ENCODING 8159
SWIDTH 468 0
DWIDTH 13 0
BBX 8 8 7 14
BITMAP
3C
7E
E7
C3
38
38
30
18
ENDCHAR
STARTCHAR 1FE0
ENCODING 8160
SWIDTH 468 0
DWIDTH 13 0
BBX 13 19 2 0
BITMAP
0638
0770
07F0
03E0
0000
0000
3878
3870
3870
7870
78F0
70E0
70E0
F0E0
F1E0
F1C0
FFC0
7F80
3F00
ENDCHAR
STARTCHAR 1FE1
ENCODING 8161
SWIDTH 468 0
DWIDTH 13 0
BBX 13 18 2 0
BITMAP
0FF0
0FF0
0000
0000
0000
3878
3870
3870
7870
78F0
70E0
70E0
F0E0
F1E0
F1C0
FFC0
7F80
3F00
ENDCHAR
STARTCHAR 1FE2
ENCODING 8162
SWIDTH 468 0
DWIDTH 13 0
BBX 14 20 2 0
BITMAP
0180
0B88
1D9C
3DFC
18D8
0000
0000
3878
3870
3870
7870
78F0
70E0
70E0
F0E0
F1E0
F1C0
FFC0
7F80
3F00
ENDCHAR
STARTCHAR 1FE3
ENCODING 8163
SWIDTH 468 0
DWIDTH 13 0
BBX 14 20 2 0
BITMAP
0080
08E8
1DDC
3DBC
1B18
0100
0000
3878
3870
3870
7870
78F0
70E0
70E0
F0E0
F1E0
F1C0
FFC0
7F80
3F00
ENDCHAR
STARTCHAR 1FE4
ENCODING 8164
SWIDTH 468 0
DWIDTH 13 0
BBX 14 26 0 -5
BITMAP
0010
0038
0038
0038
0030
00E0
0000
0000
03F0
07F8
0FFC
1E3C
1C1C
1C1C
3C3C
3C3C
3838
3878
3FF0
7FE0
7FC0
7000
7000
F000
F000
E000
ENDCHAR
STARTCHAR 1FE5
ENCODING 8165
SWIDTH 468 0
DWIDTH 13 0
BBX 14 26 0 -5
BITMAP
0020
0070
0070
0060
0070
0030
0000
0000
03F0
07F8
0FFC
1E3C
1C1C
1C1C
3C3C
3C3C
3838
3878
3FF0
7FE0
7FC0
7000
7000
F000
F000
E000
ENDCHAR
STARTCHAR 1FE6
ENCODING 8166
SWIDTH 468 0
DWIDTH 13 0
BBX 13 19 2 0
BITMAP
01C0
07E0
0FF0
0E70
0000
0000
3878
3870
3870
7870
78F0
70E0
70E0
F0E0
F1E0
F1C0
FFC0
7F80
3F00
ENDCHAR
STARTCHAR 1FE7
ENCODING 8167
SWIDTH 468 0
DWIDTH 13 0
BBX 13 23 2 0
BITMAP
01E0
03F0
0738
0618
0000
0E30
0E78
0E30
0000
0000
3878
3870
3870
7870
78F0
70E0
70E0
F0E0
F1E0
F1C0
FFC0
7F80
3F00
ENDCHAR
STARTCHAR 1FE8
ENCODING 8168
SWIDTH 468 0
DWIDTH 13 0
BBX 13 23 4 0
BITMAP
0C70
0CE0
0FE0
07C0
0000
0000
E078
E0F0
F0F0
71E0
71C0
73C0
7780
7F00
3E00
3C00
3C00
3C00
3800
3800
7800
7800
7000
ENDCHAR
STARTCHAR 1FE9
ENCODING 8169
SWIDTH 468 0
DWIDTH 13 0
BBX 13 22 4 0
BITMAP
1FE0
1FE0
1FE0
0000
0000
E078
E0F0
F0F0
71E0
71C0
73C0
7780
7F00
3E00
3C00
3C00
3C00
3800
3800
7800
7800
7000
ENDCHAR
STARTCHAR 1FEA
ENCODING 8170
SWIDTH 468 0
DWIDTH 13 0
BBX 20 18 -3 0
BITMAP
400000
E1C0F0
F9C1E0
7DE1E0
1CE3C0
00E380
00E780
00EF00
00FE00
007C00
007800
007800
007800
007000
007000
00F000
00F000
00E000
ENDCHAR
STARTCHAR 1FEB
ENCODING 8171
SWIDTH 468 0
DWIDTH 13 0
BBX 20 18 -3 0
BITMAP
080000
39C0F0
7DC1E0
F1E1E0
E0E3C0
00E380
00E780
00EF00
00FE00
007C00
007800
007800
007800
007000
007000
00F000
00F000
00E000
ENDCHAR
STARTCHAR 1FEC
ENCODING 8172
SWIDTH 468 0
DWIDTH 13 0
BBX 15 19 0 0
BITMAP
6000
E000
E7F8
C7FE
67FE
6F0E
0E0E
0E0E
0E0E
1E1E
1FFC
1FF8
1FE0
3C00
3C00
3800
3800
7800
7800
ENDCHAR
STARTCHAR 1FED
ENCODING 8173
SWIDTH 468 0
DWIDTH 13 0
BBX 12 5 4 15
BITMAP
0600
2E20
7670
F7F0
6360
ENDCHAR
STARTCHAR 1FEE
ENCODING 8174
SWIDTH 468 0
DWIDTH 13 0
BBX 12 6 4 14
BITMAP
0100
23A0
7770
F6F0
6C60
0400
ENDCHAR
STARTCHAR 1FEF
ENCODING 8175
SWIDTH 468 0
DWIDTH 13 0
BBX 6 4 7 15
BITMAP
60
F8
7C
1C
ENDCHAR
STARTCHAR 1FF2
ENCODING 8178
SWIDTH 468 0
DWIDTH 13 0
BBX 13 24 1 -4
BITMAP
0380
03C0
03F0
00E0
0020
0000
0C38
1C38
3838
3818
7018
7398
E338
E738
E738
E738
FFF8
FFF0
79E0
0000
0E00
0E00
0F00
0700
ENDCHAR
STARTCHAR 1FF3
ENCODING 8179
SWIDTH 468 0
DWIDTH 13 0
BBX 13 18 1 -5
BITMAP
0C38
1C38
3838
3818
7018
7398
E338
E738
E738
E738
FFF8
FFF0
79E0
0000
0E00
0E00
0F00
0700
ENDCHAR
STARTCHAR 1FF4
ENCODING 8180
SWIDTH 468 0
DWIDTH 13 0
BBX 13 24 1 -4
BITMAP
0070
00F0
03F0
01C0
0100
0000
0C38
1C38
3838
3818
7018
7398
E338
E738
E738
E738
FFF8
FFF0
79E0
0000
0E00
0E00
0F00
0700
ENDCHAR
STARTCHAR 1FF6
ENCODING 8182
SWIDTH 468 0
DWIDTH 13 0
BBX 13 19 1 0
BITMAP
00E0
03F0
07F8
0738
0000
0000
0C38
1C38
3838
3818
7018
7398
E338
E738
E738
E738
FFF8
FFF0
79E0
ENDCHAR
STARTCHAR 1FF7
ENCODING 8183
SWIDTH 468 0
DWIDTH 13 0
BBX 13 24 1 -5
BITMAP
00E0
03F0
07F8
0738
0000
0000
0C38
1C38
3838
3818
7018
7398
E338
E738
E738
E738
FFF8
FFF0
79E0
0000
0E00
0E00
0F00
0700
ENDCHAR
STARTCHAR 1FF8
ENCODING 8184
SWIDTH 468 0
DWIDTH 13 0
BBX 18 18 -3 0
BITMAP
400C00
703F00
F8FF80
3CF7C0
1DE3C0
03C1C0
0381C0
0383C0
0783C0
0783C0
070380
070380
070780
070700
078F00
07FE00
03FC00
01F800
ENDCHAR
STARTCHAR 1FF9
ENCODING 8185
SWIDTH 468 0
DWIDTH 13 0
BBX 18 18 -3 0
BITMAP
000C00
1C3F00
3EFF80
F8F7C0
61E3C0
03C1C0
0381C0
0383C0
0783C0
0783C0
070380
070380
070780
070700
078F00
07FE00
03FC00
01F800
ENDCHAR
STARTCHAR 1FFA
ENCODING 8186
SWIDTH 468 0
DWIDTH 13 0
BBX 18 18 -3 0
BITMAP
400400
E07F80
F8FF80
7DF7C0
19C1C0
03C1C0
0381C0
0781C0
0781C0
0703C0
070380
070380
070700
038700
038E00
0F9F80
1F9F00
1FBF00
ENDCHAR
STARTCHAR 1FFB
ENCODING 8187
SWIDTH 468 0
DWIDTH 13 0
BBX 18 18 -3 0
BITMAP
080400
1C7F80
7CFF80
F9F7C0
61C1C0
03C1C0
0381C0
0781C0
0781C0
0703C0
070380
070380
070700
038700
038E00
0F9F80
1F9F00
1FBF00
ENDCHAR
STARTCHAR 1FFC
ENCODING 8188
SWIDTH 468 0
DWIDTH 13 0
BBX 15 18 0 0
BITMAP
0080
07E0
0FE0
0EE0
1C60
1CE6
38EE
38EE
38EE
30CC
31DC
31DC
319C
3318
3338
F7B8
F7BC
F79C
ENDCHAR
STARTCHAR 1FFD
ENCODING 8189
SWIDTH 468 0
DWIDTH 13 0
BBX 6 5 7 15
BITMAP
1C
3C
FC
70
40
ENDCHAR
STARTCHAR 1FFE
ENCODING 8190
SWIDTH 468 0
DWIDTH 13 0
BBX 4 6 8 14
BITMAP
20
F0
F0
E0
60
30
ENDCHAR
STARTCHAR 2013
ENCODING 8211
SWIDTH 468 0
DWIDTH 13 0
BBX 11 3 3 6
BITMAP
FFE0
FFE0
FFC0
ENDCHAR
STARTCHAR 2014
ENCODING 8212
SWIDTH 468 0
DWIDTH 13 0
BBX 14 3 1 6
BITMAP
7FFC
FFFC
FFFC
ENDCHAR
STARTCHAR 2015
ENCODING 8213
SWIDTH 468 0
DWIDTH 13 0
BBX 14 3 1 6
BITMAP
7FFC
FFFC
FFFC
ENDCHAR
STARTCHAR 2018
ENCODING 8216
SWIDTH 468 0
DWIDTH 13 0
BBX 7 8 7 12
BITMAP
1E
3E
70
60
F8
F8
F8
70
ENDCHAR
STARTCHAR 2019
ENCODING 8217
SWIDTH 468 0
DWIDTH 13 0
BBX 6 8 7 12
BITMAP
3C
3C
7C
3C
1C
38
F8
E0
ENDCHAR
STARTCHAR 201A
ENCODING 8218
SWIDTH 468 0
DWIDTH 13 0
BBX 6 9 3 -4
BITMAP
18
3C
3C
3C
3C
1C
38
F0
E0
ENDCHAR
STARTCHAR 201C
ENCODING 8220
SWIDTH 468 0
DWIDTH 13 0
BBX 13 7 4 12
BITMAP
1C38
3CF8
70C0
71E0
F9E0
F9E0
71E0
ENDCHAR
STARTCHAR 201D
ENCODING 8221
SWIDTH 468 0
DWIDTH 13 0
BBX 12 7 4 12
BITMAP
38F0
78F0
78F0
38F0
3860
F3E0
E380
ENDCHAR
STARTCHAR 201E
ENCODING 8222
SWIDTH 468 0
DWIDTH 13 0
BBX 12 8 0 -4
BITMAP
1820
3C70
3CF0
3CF0
1C70
3870
F1E0
E180
ENDCHAR
STARTCHAR 2020
ENCODING 8224
SWIDTH 468 0
DWIDTH 13 0
BBX 10 21 4 -4
BITMAP
0700
0700
0E00
0E00
0E00
FFC0
FFC0
FFC0
1C00
1C00
3800
3800
3800
3800
7000
7000
7000
7000
6000
6000
E000
ENDCHAR
STARTCHAR 2021
ENCODING 8225
SWIDTH 468 0
DWIDTH 13 0
BBX 12 21 2 -4
BITMAP
01C0
01C0
0380
0380
0380
3FF0
3FF0
3FF0
0700
0700
0E00
7FE0
FFE0
FFC0
1E00
1C00
1C00
1C00
1800
1800
3800
ENDCHAR
STARTCHAR 2022
ENCODING 8226
SWIDTH 468 0
DWIDTH 13 0
BBX 7 8 5 5
BITMAP
18
7C
FE
FE
FE
FE
FE
7C
ENDCHAR
STARTCHAR 2026
ENCODING 8230
SWIDTH 468 0
DWIDTH 13 0
BBX 12 3 1 0
BITMAP
E670
EF70
EE70
ENDCHAR
STARTCHAR 2030
ENCODING 8240
SWIDTH 468 0
DWIDTH 13 0
BBX 14 18 2 0
BITMAP
0800
3C00
7C00
6400
6C04
6C1C
78F0
7B80
0E00
3800
C000
3CF0
7CF0
6D90
4DB0
CDB0
F9F0
79E0
ENDCHAR
STARTCHAR 2039
ENCODING 8249
SWIDTH 468 0
DWIDTH 13 0
BBX 7 12 5 1
BITMAP
04
0E
1C
3C
78
F0
F0
F0
70
38
38
10
ENDCHAR
STARTCHAR 203A
ENCODING 8250
SWIDTH 468 0
DWIDTH 13 0
BBX 7 12 4 1
BITMAP
10
38
3C
1C
1E
1E
1E
3C
78
F0
E0
40
ENDCHAR
STARTCHAR 2044
ENCODING 8260
SWIDTH 468 0
DWIDTH 13 0
BBX 15 17 1 0
BITMAP
000E
001C
0038
0078
0070
00E0
01C0
03C0
0380
0700
0E00
1E00
1C00
3800
7000
F000
E000
ENDCHAR
STARTCHAR 2070
ENCODING 8304
SWIDTH 468 0
DWIDTH 13 0
BBX 9 11 5 7
BITMAP
0400
3F00
7F80
7380
EB80
FB80
E300
E700
FE00
7C00
3000
ENDCHAR
STARTCHAR 2074
ENCODING 8308
SWIDTH 468 0
DWIDTH 13 0
BBX 8 10 5 7
BITMAP
07
0F
1B
37
66
FF
FF
0E
0C
0C
ENDCHAR
STARTCHAR 2075
ENCODING 8309
SWIDTH 468 0
DWIDTH 13 0
BBX 9 10 5 7
BITMAP
1F80
3F00
3000
3800
7E00
0700
0700
FE00
FE00
7000
ENDCHAR
STARTCHAR 2076
ENCODING 8310
SWIDTH 468 0
DWIDTH 13 0
BBX 8 10 5 7
BITMAP
0F
3F
70
7C
FE
E7
E7
EE
7E
38
ENDCHAR
STARTCHAR 2077
ENCODING 8311
SWIDTH 468 0
DWIDTH 13 0
BBX 8 10 6 7
BITMAP
7F
FF
0E
1C
38
38
70
60
E0
E0
ENDCHAR
STARTCHAR 2078
ENCODING 8312
SWIDTH 468 0
DWIDTH 13 0
BBX 9 11 5 7
BITMAP
0400
3F00
7380
7380
3F00
3E00
6700
C700
E700
FE00
3800
ENDCHAR
STARTCHAR 2079
ENCODING 8313
SWIDTH 468 0
DWIDTH 13 0
BBX 9 11 5 7
BITMAP
0C00
3F00
3F00
7380
7380
7F00
3F00
0700
7E00
F800
C000
ENDCHAR
STARTCHAR 2080
ENCODING 8320
SWIDTH 468 0
DWIDTH 13 0
BBX 9 10 3 0
BITMAP
1F00
3F80
7380
6180
6F80
EB80
E300
E700
7E00
7C00
ENDCHAR
STARTCHAR 2081
ENCODING 8321
SWIDTH 468 0
DWIDTH 13 0
BBX 8 10 3 0
BITMAP
06
1E
7E
6E
0C
1C
1C
1C
FF
FE
ENDCHAR
STARTCHAR 2082
ENCODING 8322
SWIDTH 468 0
DWIDTH 13 0
BBX 8 10 3 0
BITMAP
1F
7F
33
03
0F
1E
38
70
FF
FF
ENDCHAR
STARTCHAR 2083
ENCODING 8323
SWIDTH 468 0
DWIDTH 13 0
BBX 8 10 3 0
BITMAP
3F
3F
23
03
1E
1F
03
07
FF
FC
ENDCHAR
STARTCHAR 2084
ENCODING 8324
SWIDTH 468 0
DWIDTH 13 0
BBX 9 10 3 0
BITMAP
0380
0780
0F00
1B00
3700
6700
FF00
FF00
0600
0E00
ENDCHAR
STARTCHAR 2085
ENCODING 8325
SWIDTH 468 0
DWIDTH 13 0
BBX 9 10 3 0
BITMAP
1F80
1F80
1800
3000
3E00
3F00
0700
4700
FE00
FC00
ENDCHAR
STARTCHAR 2086
ENCODING 8326
SWIDTH 468 0
DWIDTH 13 0
BBX 9 10 3 0
BITMAP
0780
1F80
3C00
7000
7E00
E700
E700
E700
7E00
3C00
ENDCHAR
STARTCHAR 2087
ENCODING 8327
SWIDTH 468 0
DWIDTH 13 0
BBX 9 10 4 0
BITMAP
7F80
7F00
0700
0E00
1C00
3800
3800
7000
7000
E000
ENDCHAR
STARTCHAR 2088
ENCODING 8328
SWIDTH 468 0
DWIDTH 13 0
BBX 9 10 3 0
BITMAP
1F00
3F80
3180
3380
3F00
7F00
6300
E300
FF00
7E00
ENDCHAR
STARTCHAR 2089
ENCODING 8329
SWIDTH 468 0
DWIDTH 13 0
BBX 8 10 4 0
BITMAP
3E
7F
67
E3
77
7F
0E
1E
F8
E0
ENDCHAR
STARTCHAR 20AC
ENCODING 8364
SWIDTH 468 0
DWIDTH 13 0
BBX 15 18 2 0
BITMAP
0018
01FE
07FC
0F84
0F00
1E00
7FF0
7FF0
3C00
3800
FFC0
FFC0
FFC0
3800
3C00
3FE0
1FF0
0FF0
ENDCHAR
STARTCHAR 20AE
ENCODING 8366
SWIDTH 468 0
DWIDTH 13 0
BBX 14 17 3 0
BITMAP
7FFC
7FF8
7FF8
0700
0700
0FE0
0FE0
1F00
7E00
7E80
1FC0
1F80
7E00
FC00
FC00
3800
3800
ENDCHAR
STARTCHAR 20B4
ENCODING 8372
SWIDTH 468 0
DWIDTH 13 0
BBX 14 18 1 0
BITMAP
01C0
0FF0
0FF8
0C78
0038
0038
3FFC
7FFC
03E0
0F80
7FF8
FFF8
FFF8
7000
7800
7FE0
3FE0
3FE0
ENDCHAR
STARTCHAR 20B9
ENCODING 8377
SWIDTH 468 0
DWIDTH 13 0
BBX 15 17 2 0
BITMAP
1FFE
3FFC
01E0
00E0
3FF8
3FF8
01E0
03C0
7F80
7F00
F000
7800
3C00
1C00
1E00
0E00
0F00
ENDCHAR
STARTCHAR 2113
ENCODING 8467
SWIDTH 468 0
DWIDTH 13 0
BBX 10 19 3 0
BITMAP
0F00
1F80
1880
38C0
30C0
3080
3180
3180
3300
3300
3600
3C00
3800
7000
F000
B800
3800
1FC0
0FC0
ENDCHAR
STARTCHAR 2116
ENCODING 8470
SWIDTH 468 0
DWIDTH 13 0
BBX 17 18 0 0
BITMAP
000200
0C6F00
0CEF80
0CD980
1CDB00
1CDB00
1DDB00
1D9E00
3F9C00
378000
378000
377E00
777E00
677C00
670000
670000
E60000
C60000
ENDCHAR
STARTCHAR 2122
ENCODING 8482
SWIDTH 468 0
DWIDTH 13 0
BBX 13 7 3 10
BITMAP
F930
33B0
33B8
33F8
3358
3318
3318
ENDCHAR
STARTCHAR 2126
ENCODING 8486
SWIDTH 468 0
DWIDTH 13 0
BBX 15 18 0 0
BITMAP
0020
03FC
07FC
0FBE
0E0E
1E0E
1C0E
3C0E
3C0E
381E
381C
381C
3838
1C38
1C70
7CFC
FCF8
FDF8
ENDCHAR
STARTCHAR 212E
ENCODING 8494
SWIDTH 468 0
DWIDTH 13 0
BBX 12 11 2 0
BITMAP
0F00
30C0
4020
C030
C030
C030
FFC0
C000
4000
4020
3FC0
ENDCHAR
STARTCHAR 2153
ENCODING 8531
SWIDTH 468 0
DWIDTH 13 0
BBX 14 17 1 0
BITMAP
0E0C
3E1C
3E38
0C70
0C60
0CE0
1DC0
0380
0300
0700
0EF8
1CF8
1838
3870
7038
E1F8
C3F0
ENDCHAR
STARTCHAR 2154
ENCODING 8532
SWIDTH 468 0
DWIDTH 13 0
BBX 15 18 1 0
BITMAP
0400
1F0E
171C
0618
1E30
3870
7EE0
7EC0
0180
0380
0700
06F8
0CF8
1C38
3870
3038
61F8
E1F0
ENDCHAR
STARTCHAR 2155
ENCODING 8533
SWIDTH 468 0
DWIDTH 13 0
BBX 14 17 1 0
BITMAP
0E0C
3E1C
3E38
0C70
0C60
0CE0
1DC0
0380
0300
0700
0E78
1CF8
18C0
38F0
7038
E1F0
C3E0
ENDCHAR
STARTCHAR 2156
ENCODING 8534
SWIDTH 468 0
DWIDTH 13 0
BBX 15 18 1 0
BITMAP
0400
1F0E
171C
0618
1E38
3870
7EE0
7EC0
01C0
0380
0700
0678
0EF8
1CC0
38F0
3038
71F0
E3E0
ENDCHAR
STARTCHAR 2157
ENCODING 8535
SWIDTH 468 0
DWIDTH 13 0
BBX 15 18 1 0
BITMAP
0600
1F0E
031C
0E18
1F38
0770
3EE0
3CC0
01C0
0380
0700
0678
0EF8
1CC0
38F0
3038
71F0
E3E0
ENDCHAR
STARTCHAR 2158
ENCODING 8536
SWIDTH 468 0
DWIDTH 13 0
BBX 15 17 1 0
BITMAP
0F0E
0F0C
1E1C
3638
7F70
0660
0CE0
01C0
0380
0300
0778
0EF8
1CC0
18F0
3838
71F0
E3E0
ENDCHAR
STARTCHAR 2159
ENCODING 8537
SWIDTH 468 0
DWIDTH 13 0
BBX 14 17 1 0
BITMAP
0E0C
3E1C
3E38
0E70
0C60
0CE0
1DC0
0380
0300
0700
0E78
1CF0
1980
39F0
7330
E3F0
C1E0
ENDCHAR
STARTCHAR 215A
ENCODING 8538
SWIDTH 468 0
DWIDTH 13 0
BBX 15 17 1 0
BITMAP
0F0E
181C
1E38
1E30
0670
3EE0
3DC0
0180
0380
0700
0E78
0CF0
1D80
39F0
7330
63F0
E1E0
ENDCHAR
STARTCHAR 215B
ENCODING 8539
SWIDTH 468 0
DWIDTH 13 0
BBX 14 17 1 0
BITMAP
0E0C
3E1C
3E38
0E70
0C60
0CE0
1DC0
0380
0300
0700
0EF8
1DD8
19D8
38F0
71B8
E3B8
C1F0
ENDCHAR
ENDFONT
